<svg width="720" height="594" viewBox="0 0 720 594" fill="none" xmlns="http://www.w3.org/2000/svg">
<path d="M575.965 7.96098L563.723 15.2423L563.963 30.1251C564.283 50.2889 564.683 50.929 581.246 64.5315C588.687 70.5326 589.648 71.0927 590.848 70.0525C591.568 69.4124 596.209 65.5717 601.17 61.4909C609.091 55.0097 610.451 53.4894 612.772 48.7686L615.412 43.4076V15.4024L603.01 7.96098C596.209 3.96024 590.128 0.599609 589.408 0.599609C588.767 0.679624 582.686 3.96024 575.965 7.96098ZM601.41 9.96135L613.012 17.0027V29.405C613.012 47.4883 611.972 49.6487 597.009 61.811L589.408 67.9721L580.046 60.1307C567.003 49.0886 566.683 48.3685 566.363 30.5252L566.123 16.7626L577.565 9.88134C583.887 6.12064 589.168 3.00006 589.408 3.00006C589.648 3.00006 595.089 6.12064 601.41 9.96135Z" fill="white"/>
<path d="M593.648 31.1653L584.607 40.207L580.606 36.2062C577.965 33.5657 576.365 32.5255 575.805 33.0856C575.325 33.5657 576.605 35.4861 579.806 38.6067L584.607 43.4076L594.208 33.8058C602.77 25.2442 605.171 22.2036 603.17 22.2036C602.85 22.2036 598.529 26.2844 593.648 31.1653Z" fill="white"/>
<path d="M454.318 41.7575C444.156 48.3987 435.914 54.2398 435.914 54.7199C435.834 55.2 449.037 55.6001 473.681 55.7601C505.367 55.9201 511.448 55.7601 511.448 54.7999C511.448 53.6797 475.441 29.5152 473.681 29.5152C473.121 29.5152 464.399 35.0362 454.318 41.7575ZM490.164 42.7177L506.007 53.1196L489.924 53.3596C481.043 53.4397 466.56 53.4397 457.758 53.3596L441.595 53.1196L457.518 42.5576C466.24 36.7166 473.681 31.9957 473.921 32.1557C474.161 32.2357 481.523 36.9566 490.164 42.7177Z" fill="white"/>
<path d="M448.236 69.1226C448.236 73.9235 448.476 75.1237 449.437 75.1237C450.397 75.1237 450.637 73.9235 450.637 69.1226C450.637 64.3217 450.397 63.1215 449.437 63.1215C448.476 63.1215 448.236 64.3217 448.236 69.1226Z" fill="white"/>
<path d="M472.801 63.6816C471.841 64.5618 472.161 90.1665 473.121 90.7266C473.601 91.0467 474.081 91.1267 474.241 90.9667C474.721 90.4866 475.361 65.5219 474.881 64.2417C474.401 63.0415 473.601 62.8014 472.801 63.6816Z" fill="white"/>
<path d="M497.046 77.2041C497.046 88.0861 497.286 91.2067 498.086 90.9666C498.806 90.6466 499.126 86.9659 499.286 76.884C499.446 64.9618 499.286 63.1214 498.246 63.1214C497.206 63.1214 497.046 65.1218 497.046 77.2041Z" fill="white"/>
<path d="M440.235 84.0053C431.753 87.526 427.033 97.7679 429.913 106.41C431.433 110.89 434.634 114.411 438.955 116.411C451.677 122.332 464.96 113.371 464.079 99.4482C463.679 93.5271 461.119 89.0463 456.158 85.7657C453.517 84.0053 451.757 83.5252 447.516 83.3652C444.636 83.2052 441.355 83.5252 440.235 84.0053ZM448.236 89.5263C448.236 90.3265 448.957 91.4467 449.837 91.9268C452.157 93.207 450.957 95.3674 448.236 94.7273C446.796 94.4073 445.756 94.6473 445.036 95.5275C443.836 96.9677 443.836 96.9677 448.797 100.248C453.597 103.369 454.078 105.529 450.717 108.65C449.357 109.93 448.236 111.53 448.236 112.251C448.236 114.251 445.916 113.771 445.036 111.61C444.636 110.57 443.596 109.45 442.635 109.13C439.835 108.25 442.235 106.169 445.436 106.81C447.116 107.13 448.236 106.89 448.957 106.009C449.757 105.049 449.277 104.409 445.516 102.009C441.835 99.6082 441.035 98.7281 441.035 96.8877C441.035 95.5275 441.835 93.8472 443.035 92.727C444.156 91.6868 445.036 90.1665 445.036 89.3663C445.036 88.4862 445.596 87.9261 446.636 87.9261C447.676 87.9261 448.236 88.4862 448.236 89.5263Z" fill="white"/>
<path d="M469.84 108.73H509.848V97.5279H469.84V108.73Z" fill="white"/>
<path d="M238.821 75.2233C231.38 77.5437 225.699 83.3048 222.338 91.7863C218.818 100.828 220.738 119.151 225.699 124.592C232.1 131.314 240.902 122.592 238.581 111.71C236.741 103.228 237.781 93.7067 241.062 89.1459C242.662 86.8254 247.943 84.745 250.023 85.5452C250.904 85.9453 250.504 86.7454 248.103 89.0658C243.942 93.3066 242.182 99.3077 242.662 108.029C243.062 114.911 245.063 120.112 249.223 125.153C251.224 127.473 251.304 127.793 251.304 139.955V152.438L234.741 152.678C219.138 152.918 217.937 152.998 215.217 154.678C213.617 155.718 211.376 157.959 210.176 159.719C206.095 165.88 206.095 167.4 208.416 207.408C209.616 227.652 210.896 245.975 211.376 248.215C212.737 255.177 216.017 260.218 222.018 264.618L225.139 266.939H155.286V283.662L166.488 283.902C172.649 284.062 177.77 284.302 177.85 284.542C177.93 284.782 173.209 314.148 167.288 349.914L156.486 414.886L153.285 414.406C147.124 413.606 143.444 419.927 147.364 424.888C148.405 426.249 149.765 426.969 151.205 426.969C154.166 426.969 154.326 427.209 153.686 431.209C146.564 474.177 127.121 589.239 126.881 589.959C126.641 590.759 124 590.999 117.279 590.999H108.077V585.558C108.077 580.437 108.237 580.037 111.038 577.397C119.679 569.075 120.319 554.432 112.478 544.11C109.997 540.91 109.997 540.91 112.558 537.629C119.839 528.027 119.839 515.545 112.558 505.943C109.997 502.663 109.997 502.663 112.478 499.462C120.079 489.46 119.759 476.098 111.598 467.056L108.077 463.135V448.573H104.876C103.116 448.573 101.676 448.253 101.676 447.853C101.676 446.572 114.478 419.447 115.518 418.487C116.079 418.007 123.92 416.087 133.122 414.166C144.564 411.766 149.685 410.326 149.685 409.605C149.685 408.165 150.165 408.165 132.802 411.766C124.32 413.526 117.279 414.886 117.119 414.726C116.959 414.566 122.08 403.284 128.481 389.682C134.882 376.079 140.003 364.477 139.923 363.917C139.363 361.517 138.083 363.437 133.202 373.919C130.321 380 127.201 386.721 126.16 388.962L124.24 392.962L115.038 374.159C109.997 363.837 104.556 352.555 102.956 349.114C101.196 345.113 99.7555 342.953 99.1154 343.193C98.5553 343.353 98.1552 343.993 98.3152 344.633C98.4753 345.193 103.836 356.476 110.237 369.678C116.559 382.961 122 394.323 122.24 394.963C122.48 395.923 111.758 420.087 99.0354 446.732C98.4753 448.093 97.5151 448.573 95.5147 448.573H92.8742V427.369C92.8742 409.045 92.7142 406.165 91.674 406.165C90.7138 406.165 90.4738 407.765 90.4738 415.767C90.4738 421.048 90.3138 425.368 89.9937 425.368C89.7537 425.368 88.4734 424.328 87.0331 422.968C85.4329 421.448 84.2326 420.888 83.7525 421.368C83.1924 421.928 84.2326 423.528 86.7131 426.009L90.4738 429.849V448.573H87.3532C84.3927 448.573 84.2326 448.413 82.2323 443.932C79.5118 437.931 53.0268 377.599 51.8266 374.799C50.8664 372.479 50.0663 371.998 49.2661 373.279C49.0261 373.759 52.7868 383.121 57.6677 394.243C62.5486 405.285 66.3893 414.486 66.2293 414.646C66.0692 414.806 58.2278 412.806 48.786 410.166C39.4243 407.525 31.1828 405.365 30.7027 405.365C30.1426 405.365 29.6625 405.845 29.6625 406.405C29.6625 407.045 35.7436 409.125 46.7056 412.086C55.9874 414.646 64.789 417.207 66.0692 417.767C68.2296 418.567 69.1898 420.407 74.9509 433.45L81.4321 448.173L77.5114 448.413L73.6707 448.653V462.415L70.5501 465.776C65.6692 471.137 63.8288 475.298 63.4288 482.339C63.1087 487.94 63.2687 488.9 65.5091 493.541C66.8694 496.342 68.7898 499.542 69.8299 500.742L71.5903 502.983L69.5099 505.143C64.3889 510.584 61.9885 520.826 63.9889 528.188C64.709 530.908 67.5895 535.949 70.8701 540.27C71.4302 540.99 71.0302 541.95 69.5099 543.55C63.6688 549.792 61.6684 560.434 64.789 568.595C65.7492 571.076 67.9896 574.676 70.07 576.917C73.6707 580.757 73.7507 580.837 73.5106 585.718L73.2706 590.599L37.0238 590.839C5.578 590.999 0.857117 591.159 0.857117 592.199C0.857117 593.24 42.5449 593.4 361.724 593.4C681.944 593.4 722.591 593.24 722.591 592.199C722.591 591.159 718.191 590.999 687.465 590.999H652.338L651.858 588.839C651.618 587.559 648.017 566.115 643.857 540.99C639.696 515.865 628.334 448.013 618.652 390.162C608.89 332.311 600.969 284.702 600.969 284.382C600.969 284.062 607.53 283.662 615.611 283.582L630.174 283.342V267.339L602.809 266.939C578.725 266.619 575.524 266.379 576.164 265.339C576.564 264.699 576.964 262.218 576.964 259.898C576.964 255.977 577.124 255.737 578.965 255.737C583.605 255.737 587.366 251.976 587.366 247.415C587.366 244.295 583.686 240.614 580.085 240.054C577.204 239.574 576.964 239.334 576.964 236.853V234.133L562.001 234.293L546.959 234.533V249.336C546.959 257.497 547.279 264.779 547.679 265.499C548.319 266.859 547.199 266.939 530.636 266.939H512.872L514.473 264.698C515.353 263.498 518.953 251.896 522.554 238.934C526.155 225.971 530.636 209.568 532.636 202.447C536.477 188.604 536.797 185.644 534.956 182.203C532.476 177.322 532.796 177.322 473.905 177.322C441.019 177.322 419.415 177.642 417.655 178.122C412.934 179.483 411.413 181.803 408.053 193.885C395.891 236.693 390.37 257.337 390.37 259.658C390.37 261.098 391.09 263.338 392.05 264.618L393.81 266.939H378.527L374.207 258.297C371.806 253.496 368.605 248.535 367.005 247.015L364.125 244.215V226.771C364.125 211.809 363.965 209.328 362.924 209.328C361.964 209.328 361.724 207.808 361.724 200.607V191.805L369.406 177.722C377.727 162.439 378.607 159.559 377.007 152.758C375.407 146.276 371.086 142.756 364.765 142.756C359.164 142.836 358.444 143.796 350.522 161.719C348.922 165.32 348.682 165.56 347.882 164.2C344.121 158.199 340.92 156.678 338.2 159.639C336.84 161.159 336.92 161.879 340.04 175.642L343.241 190.045L342.041 197.086C340.28 207.648 340.2 208.128 339.08 207.008C337.4 205.327 336.279 206.128 335.719 209.328C335.399 211.089 334.919 212.529 334.679 212.529C334.359 212.529 332.519 208.288 330.598 203.087C328.678 197.966 324.357 186.684 320.997 178.122C315.476 163.96 314.595 162.119 310.915 158.279L306.834 154.118H278.509V148.117C278.509 142.356 278.589 142.116 280.749 140.995C283.95 139.315 288.751 133.794 290.831 129.393C292.351 126.113 292.511 124.512 292.271 114.431C292.111 104.029 292.191 103.068 293.712 101.708C294.592 100.908 295.312 99.2277 295.312 97.9475C295.312 92.8265 288.831 84.0249 283.95 82.5046C282.91 82.1846 281.069 81.0644 279.869 80.0242C275.468 76.3435 267.147 75.6233 262.746 78.5039C261.146 79.6241 260.665 79.5441 258.105 77.7837C253.144 74.3431 244.983 73.3029 238.821 75.2233ZM287.39 103.629C289.391 104.349 289.471 104.589 289.951 113.31C290.511 123.552 289.551 127.873 285.71 133.234C282.429 137.715 278.989 139.715 274.428 139.715C269.867 139.715 265.866 138.115 262.106 134.834C260.105 133.074 258.985 132.514 258.425 133.074C257.545 133.954 257.945 134.914 262.266 141.396C264.186 144.276 269.787 147.877 273.948 148.837C276.028 149.317 276.108 149.557 276.108 154.598C276.108 158.439 276.348 159.799 277.149 159.559C277.629 159.319 278.189 158.439 278.349 157.479C278.589 156.038 279.149 155.718 281.789 155.718C285.39 155.718 285.55 156.358 283.31 160.439C280.109 166.04 271.868 169.081 265.466 167C262.186 165.88 256.505 160.039 254.824 156.118C254.024 154.118 253.704 149.637 253.704 139.155V124.832L251.304 122.752C247.223 119.231 248.823 113.47 253.624 114.511C255.464 114.911 255.865 114.591 257.545 110.91C259.865 105.949 263.066 103.709 268.107 103.709C272.588 103.709 277.469 102.348 280.109 100.508C282.109 99.0677 282.109 99.0677 283.71 100.908C284.59 102.028 286.27 103.228 287.39 103.629ZM371.886 148.037C374.207 150.837 375.567 156.038 375.007 160.039C374.687 161.799 371.086 169.481 366.925 177.082L359.324 190.845V210.288L351.722 209.968C347.562 209.808 343.801 209.328 343.401 208.928C342.921 208.448 343.241 204.767 344.201 199.326L345.801 190.525L342.601 176.122C340.92 168.201 339.8 161.399 340.12 160.999C341.48 159.639 343.481 161.399 345.481 165.88C348.122 171.801 347.962 171.641 349.722 169.481L351.242 167.64L353.323 171.321C354.603 173.402 355.563 176.362 355.643 178.282C355.883 182.203 357.323 183.243 358.044 179.963C358.924 175.962 355.003 166.92 352.442 166.92C351.802 166.92 351.322 166.76 351.322 166.6C351.322 165.48 359.644 147.877 360.764 146.677C362.844 144.356 369.406 145.156 371.886 148.037ZM252.584 157.479C254.984 162.199 259.225 166.76 262.986 168.521C266.026 170.041 267.547 170.281 271.868 169.881C278.749 169.321 282.91 166.6 285.71 160.759L287.71 156.598L296.672 156.518C309.875 156.518 309.795 156.358 320.757 184.604C324.277 193.565 328.598 204.847 330.438 209.728L333.799 218.53L327.558 247.335L315.476 247.575C308.754 247.655 303.313 247.495 303.313 247.095C303.313 246.695 304.033 245.735 304.914 244.935C308.994 241.174 307.074 240.854 276.108 240.134C255.464 239.574 254.424 239.334 253.064 234.773C252.584 233.333 250.344 220.77 248.023 206.928C245.703 193.085 243.542 181.403 243.222 181.003C241.142 178.602 241.622 183.883 245.863 208.688C250.664 237.253 251.224 239.014 255.384 241.094C256.665 241.734 265.226 242.294 279.149 242.774C291.151 243.175 301.073 243.655 301.313 243.895C301.553 244.135 301.153 245.575 300.513 247.175C298.833 251.176 298.993 257.817 300.913 262.058C301.793 263.978 302.513 265.819 302.513 266.299C302.513 266.699 288.831 266.939 267.147 266.779C228.26 266.54 228.259 266.539 221.858 261.481C221.831 261.46 221.805 261.439 221.778 261.418C219.778 259.818 217.617 256.937 216.017 253.736L213.537 248.615L211.216 210.768C209.936 189.965 209.056 171.321 209.376 169.321C210.176 163.08 213.857 157.639 218.498 155.798C219.618 155.398 227.459 154.998 235.861 154.998L251.224 154.918L252.584 157.479ZM532.076 182.603C533.036 183.803 533.756 185.724 533.756 186.844C533.756 189.004 528.395 209.088 518.313 244.455C514.713 257.337 512.792 262.858 511.432 264.218L509.592 266.139H396.851L394.93 264.138C392.37 261.658 392.37 258.857 394.85 250.136C395.891 246.375 399.891 232.132 403.732 218.53C413.974 181.963 413.574 183.083 415.574 181.723C417.094 180.683 424.296 180.523 473.825 180.523H530.476L532.076 182.603ZM343.001 211.409C345.881 212.209 349.642 212.529 354.523 212.369L361.724 212.129V242.774L357.964 241.574C352.683 239.974 346.921 240.694 337.88 244.055C333.879 245.495 330.518 246.535 330.518 246.215C330.438 245.015 338.04 210.128 338.36 210.128C338.52 210.128 340.6 210.688 343.001 211.409ZM583.605 244.695C585.526 246.935 585.286 249.096 582.965 251.336C579.525 254.857 578.565 254.057 578.565 247.655C578.565 242.214 578.645 242.054 580.405 242.534C581.365 242.854 582.805 243.815 583.605 244.695ZM360.684 245.415C362.604 246.295 365.005 248.135 366.125 249.496C367.965 251.656 375.327 265.339 375.327 266.539C375.327 266.779 374.687 266.939 373.967 266.939C373.166 266.859 371.246 265.019 369.726 262.778C366.925 258.617 363.164 255.657 362.044 256.777C361.724 257.097 363.084 259.097 365.165 261.178C369.326 265.419 369.806 266.939 367.085 266.939C365.805 266.939 364.845 266.059 363.725 264.058C361.964 260.778 357.403 256.537 355.723 256.537C353.803 256.537 354.283 257.497 357.643 260.698C359.404 262.298 361.244 264.378 361.724 265.339C362.444 266.699 362.364 266.939 360.684 266.939C359.564 266.939 357.243 265.339 354.443 262.698C352.042 260.298 349.322 258.217 348.442 257.977C347.402 257.737 344.681 258.857 340.92 261.018C331.799 266.379 329.238 267.019 316.836 266.779L306.114 266.539L303.953 262.218C302.433 259.257 301.713 256.617 301.713 253.977V250.136H328.678L337.16 247.015C341.801 245.255 346.441 243.655 347.482 243.495C350.682 242.774 357.163 243.735 360.684 245.415ZM562.722 246.615C562.242 247.495 560.241 249.736 558.241 251.736C555.36 254.457 554.32 255.017 553.6 254.297C552.8 253.496 553.68 252.296 557.361 248.536C560.081 245.735 562.402 244.055 562.802 244.455C563.202 244.855 563.202 245.815 562.722 246.615ZM568.483 250.776C569.123 251.896 559.681 260.778 558.561 260.138C557.921 259.738 559.121 257.977 562.242 254.857C566.962 250.136 567.763 249.576 568.483 250.776ZM349.562 261.658C352.042 262.938 355.003 265.979 354.363 266.539C354.123 266.779 349.802 266.859 344.841 266.779L335.719 266.539L340.12 264.218C342.521 263.018 344.841 261.658 345.321 261.258C346.281 260.298 347.001 260.378 349.562 261.658ZM627.374 281.342H157.686V269.339H627.374V281.342ZM220.098 284.302C220.098 284.702 218.098 292.304 215.697 301.345C211.936 315.428 211.296 318.789 211.296 325.03C211.296 333.351 212.576 338.552 216.657 346.314C220.418 353.515 228.419 361.116 236.261 364.877L242.102 367.678L214.897 368.158L214.417 387.761H226.099C234.821 387.761 237.701 388.001 237.701 388.802C237.701 389.282 236.981 393.522 236.101 398.163C235.221 402.804 231.06 425.848 226.819 449.373C213.457 524.667 201.614 589.719 201.214 590.359C200.974 590.679 188.412 590.999 173.209 590.999C148.645 590.999 145.684 590.839 145.684 589.719C145.684 588.999 148.165 573.476 151.205 555.153C154.326 536.829 160.087 501.463 164.087 476.578C168.088 451.693 174.409 413.206 178.09 390.962C181.771 368.718 187.212 335.992 190.092 318.148C192.973 300.305 195.453 285.262 195.693 284.702C195.933 283.982 199.214 283.742 208.096 283.742C214.657 283.742 220.098 283.982 220.098 284.302ZM308.114 284.142C308.114 284.382 307.154 288.783 306.034 293.824C304.914 298.945 304.274 303.346 304.674 303.746C304.994 304.066 322.197 307.266 342.921 310.867C365.885 314.868 381.968 318.068 384.288 319.109C388.769 321.029 393.25 325.67 395.491 330.791C397.411 334.952 397.251 333.831 401.332 399.764C402.932 424.648 405.092 459.455 406.213 477.218C407.333 494.981 408.053 509.704 407.813 510.024C407.253 510.504 356.923 507.064 353.323 506.263C351.002 505.703 350.922 505.623 349.562 496.182L348.122 486.66L351.722 452.253C353.643 433.29 355.563 415.447 355.803 412.566C356.283 407.685 361.484 392.562 372.846 362.717C375.167 356.556 376.127 352.955 376.127 349.914C376.047 343.033 372.206 336.312 366.125 332.551C364.845 331.751 347.162 326.79 326.918 321.429C306.674 316.148 283.31 309.987 274.988 307.746C261.066 303.986 256.105 303.266 258.265 305.426C258.985 306.146 269.627 309.027 334.919 326.15C353.803 331.031 363.885 334.071 365.885 335.352C369.726 337.912 373.086 343.673 373.566 348.634C373.886 351.995 373.246 354.475 369.086 365.597C351.402 413.126 310.275 522.666 310.115 522.826C309.795 523.147 281.949 514.185 261.866 507.304C248.743 502.743 246.423 501.703 246.743 500.502C246.983 499.782 254.024 486.98 262.506 472.017C276.908 446.732 301.073 404.084 315.476 378.64C318.916 372.559 321.637 367.198 321.557 366.797C321.397 366.397 305.394 366.077 284.11 366.077C247.063 366.157 246.903 366.157 241.622 364.237C228.579 359.596 219.298 349.914 215.217 336.472C212.576 327.75 213.297 319.749 218.418 300.625C220.738 292.064 222.738 284.702 222.978 284.382C223.459 283.662 308.114 283.502 308.114 284.142ZM583.766 285.502C584.006 286.543 585.606 296.544 587.366 307.746C589.207 318.949 594.568 351.915 599.368 380.96C604.169 410.006 610.811 450.653 614.171 471.377C617.532 492.021 623.293 527.307 626.974 549.711C630.734 572.036 633.775 590.519 633.775 590.679C633.775 590.839 621.693 590.999 606.89 590.999H580.085L584.166 586.998C586.886 584.358 589.207 580.997 591.047 577.077C595.528 567.315 596.248 562.994 596.968 541.39C597.688 518.746 598.248 516.425 604.249 507.544C607.45 502.743 608.25 500.982 608.01 498.822C607.77 496.502 607.53 496.182 605.77 496.502C602.409 496.982 598.168 499.542 595.048 503.063C588.646 510.104 586.806 517.866 585.846 541.39C585.046 560.033 584.326 563.954 580.245 570.435C577.364 574.916 575.204 575.316 573.364 571.796C572.483 570.035 572.163 566.835 572.163 558.753C572.163 538.109 567.282 522.587 555.6 505.943C551.52 500.182 548.479 493.301 549.519 492.261C549.759 492.021 552.88 492.901 556.4 494.261C563.842 496.902 564.162 496.982 564.162 495.461C564.162 494.741 561.281 493.301 556.56 491.701C548.559 488.82 548.159 488.42 549.759 484.259C550.479 482.259 550.719 482.179 557.361 482.179C562.882 482.179 564.162 481.939 564.162 480.979C564.162 480.019 563.042 479.779 558.561 479.779C555.52 479.779 552.96 479.458 552.96 479.058C552.96 478.658 553.44 477.138 554.08 475.698C555.12 473.217 555.68 469.697 555.44 467.296C555.28 465.696 551.359 465.216 546.959 466.256C543.038 467.136 542.558 467.056 540.878 465.456C539.917 464.576 538.557 463.776 537.997 463.776C537.277 463.776 536.957 462.575 536.957 459.935C536.957 457.774 536.477 455.454 535.997 454.734C535.036 453.454 534.636 453.534 530.556 455.454C523.754 458.575 516.953 466.176 516.953 470.577C516.953 472.177 516.793 472.097 512.152 469.777C507.511 467.456 507.351 467.376 507.351 468.977C507.351 469.617 509.272 471.137 511.592 472.257C513.832 473.457 515.833 474.418 515.833 474.498C515.913 474.498 516.233 476.418 516.553 478.738L517.113 482.899L509.272 483.139C504.071 483.299 501.35 483.699 501.19 484.339C500.95 485.06 503.031 485.38 509.112 485.54L517.353 485.78L517.273 491.781C517.193 496.502 516.393 500.022 513.833 507.944C509.192 522.106 508.151 527.307 507.671 540.19C507.271 548.271 507.511 554.032 508.472 561.154C509.192 566.515 509.752 571.876 509.752 573.156C509.752 577.237 508.071 581.477 505.271 584.438C503.751 586.038 502.55 588.119 502.55 589.159C502.55 590.999 502.55 590.999 490.148 590.999H477.826L476.546 588.679C475.265 586.118 474.225 585.638 456.542 579.717L446.14 576.276L449.741 575.636C454.782 574.756 457.262 572.676 457.582 569.155C457.742 567.075 457.342 565.794 456.222 564.674C454.061 562.514 453.581 562.594 450.701 564.994C447.9 567.315 447.34 567.475 447.34 565.795C447.34 562.514 440.139 559.713 439.099 562.514C438.458 564.114 439.659 568.035 441.739 571.396C442.699 572.916 443.259 574.196 443.019 574.196C442.299 574.196 418.215 562.994 417.575 562.354C417.335 562.034 415.574 549.712 413.814 534.989C410.933 511.704 409.893 497.062 405.332 422.968C402.452 376.079 399.731 336.152 399.251 334.231C397.411 326.31 392.45 320.069 385.409 316.868C381.968 315.348 352.443 309.667 309.955 302.386C308.114 302.065 307.314 301.505 307.314 300.465C307.314 298.945 310.435 285.262 311.075 284.302C311.235 283.982 372.606 283.742 447.34 283.742H583.365L583.766 285.502ZM192.893 284.862C192.893 285.502 187.852 316.548 178.97 370.158C174.329 398.083 167.448 440.251 163.687 463.776C159.847 487.3 153.606 525.467 149.765 548.591L142.804 590.599L136.242 590.839C131.921 590.999 129.681 590.759 129.681 590.199C129.681 588.839 149.205 472.337 153.686 446.972C155.926 434.41 158.086 421.608 158.486 418.567C158.887 415.447 159.447 412.086 159.687 411.046C160.167 409.285 160.247 409.285 161.607 410.486C163.527 412.246 167.448 412.086 169.528 410.166C174.649 405.365 170.569 397.843 163.687 399.124C162.567 399.364 161.687 399.204 161.687 398.723C161.687 397.123 178.97 294.544 180.571 286.703C180.971 284.542 181.131 284.542 186.972 284.542C190.252 284.542 192.893 284.702 192.893 284.862ZM598.568 285.182C598.568 285.502 605.61 327.67 614.251 378.96C622.813 430.249 634.175 497.942 639.376 529.388C639.668 531.128 639.958 532.853 640.245 534.561C645.14 563.713 649.155 587.625 649.458 588.759L649.938 590.999H643.057C639.296 590.999 636.175 590.759 636.175 590.359C636.175 590.071 633.382 573.153 629.786 551.37C629.391 548.977 628.986 546.525 628.574 544.03C628.457 543.322 628.339 542.606 628.219 541.881C624.078 516.798 618.327 481.957 615.371 463.215C608.09 418.087 586.646 287.743 586.246 285.902C585.926 284.702 586.646 284.542 592.247 284.542C595.688 284.542 598.568 284.782 598.568 285.182ZM306.994 388.161C306.754 388.882 299.633 401.524 291.231 416.407C244.022 499.622 242.502 502.343 242.982 503.063C243.142 503.383 252.104 506.584 262.906 510.184C273.708 513.785 282.51 516.985 282.51 517.225C282.51 517.546 280.509 524.907 278.029 533.628C275.068 544.431 272.108 552.832 268.747 560.194C266.026 566.195 264.026 571.236 264.266 571.476C264.506 571.636 270.427 574.516 277.389 577.717C284.43 580.917 293.392 585.158 297.312 587.078L304.514 590.599L261.386 590.839C237.621 590.919 218.098 590.839 217.937 590.679C217.537 590.279 222.498 561.074 236.101 483.779C241.302 454.094 247.063 421.128 248.823 410.566C250.664 400.004 252.344 390.562 252.504 389.602C252.984 387.521 254.504 387.361 287.23 387.121C305.074 386.961 307.394 387.121 306.994 388.161ZM349.802 446.332C348.122 461.615 346.681 474.337 346.441 474.578C346.201 474.738 345.001 468.496 343.801 460.575L341.48 446.172L344.521 438.331C351.242 420.728 352.282 418.087 352.523 418.327C352.683 418.487 351.402 431.049 349.802 446.332ZM94.7146 451.773H105.677V458.174C105.677 464.496 105.757 464.656 108.477 467.056C112.558 470.657 115.438 477.138 115.518 482.739C115.518 488.66 114.158 492.901 110.798 497.302C107.517 501.543 107.437 503.623 110.077 506.824C117.199 515.305 117.199 528.268 110.077 536.749C107.437 539.87 107.517 541.63 110.798 546.111C119.519 558.193 115.839 573.876 102.636 580.357C98.7153 582.278 97.195 582.518 90.8739 582.518C81.7522 582.518 76.7912 580.517 71.6703 574.836C63.8288 566.115 63.7488 554.112 71.6703 544.751C74.2308 541.71 74.2308 540.27 71.6703 537.229C67.3495 532.108 66.0692 528.588 66.0692 521.786C66.0692 514.985 67.3495 511.464 71.6703 506.343C72.7905 505.063 73.6707 503.383 73.6707 502.663C73.6707 502.023 72.2304 499.542 70.5501 497.222C63.3487 487.78 64.3089 475.378 72.8705 467.056C76.0711 464.016 76.0711 463.936 76.0711 457.934C76.0711 451.933 76.0711 451.853 78.3115 451.533C79.5117 451.373 81.1921 451.293 82.0722 451.453C82.9524 451.613 88.6334 451.773 94.7146 451.773ZM534.716 461.775C534.956 465.216 535.197 465.776 536.717 466.016C537.757 466.176 539.277 467.216 540.157 468.336C541.678 470.337 541.998 470.337 544.798 469.457C546.399 468.896 548.879 468.416 550.159 468.336C552.4 468.176 552.56 468.336 552.48 470.977C552.48 472.577 551.76 475.138 550.959 476.818L549.599 479.779H543.678C538.957 479.779 537.757 480.019 537.757 480.979C537.757 481.939 538.797 482.179 542.638 482.179H547.599L547.039 484.739C546.799 486.1 546.399 487.38 546.239 487.54C546.159 487.7 544.478 487.22 542.558 486.58C535.517 484.099 534.796 486.34 541.838 488.98C545.919 490.581 546.239 490.901 547.039 494.261C548.239 498.982 548.879 500.182 555.04 509.464C565.362 524.907 569.763 539.95 569.763 559.633C569.763 569.875 569.923 570.995 571.603 573.476C574.964 578.517 578.965 577.397 583.125 570.355C586.806 564.114 587.446 560.273 588.246 541.79C588.967 522.266 590.487 514.185 594.407 507.864C596.728 504.103 601.049 500.262 604.009 499.382C606.73 498.582 606.25 500.262 601.769 506.824C595.688 515.705 595.288 517.946 594.568 540.99C594.087 557.793 593.687 561.954 592.247 566.755C589.687 575.556 586.806 580.917 582.565 584.918C577.364 589.799 572.964 590.999 560.561 590.999C538.157 590.999 504.951 589.879 504.951 589.159C504.951 588.759 506.151 586.998 507.671 585.318C512.392 580.117 512.952 576.036 510.872 560.354C509.352 548.911 509.752 534.029 511.752 524.187C512.472 520.666 514.553 513.465 516.313 508.184C518.633 501.222 519.674 496.742 519.994 491.941L520.394 485.38H524.314C529.835 485.38 529.115 483.459 523.514 483.139L519.354 482.899V479.698C519.354 478.018 519.514 476.578 519.674 476.578C519.834 476.578 521.514 477.458 523.434 478.498C526.715 480.419 528.155 480.499 528.155 478.898C528.155 478.498 526.155 477.218 523.754 476.018C520.074 474.177 519.354 473.457 519.354 471.777C519.354 468.736 523.514 462.735 527.515 460.015C533.676 455.694 534.316 455.854 534.716 461.775ZM337.32 514.985C340.12 534.589 343.721 559.153 345.321 569.715C346.841 580.197 348.122 589.319 348.122 589.879C348.122 590.519 347.322 590.999 346.281 590.999C345.001 590.999 344.201 590.279 343.561 588.599C343.081 587.319 341.56 585.558 340.12 584.838C334.919 581.877 334.839 581.717 337.32 580.517C341.721 578.437 342.601 572.516 338.76 570.755C337.24 570.035 336.44 570.195 334.519 571.716C332.119 573.396 332.119 573.396 332.119 571.796C332.119 570.915 331.399 569.475 330.518 568.595C327.078 565.154 323.477 567.715 324.917 572.516C325.317 573.876 325.477 574.996 325.317 574.996C324.757 574.996 303.954 551.472 303.553 550.512C303.233 549.551 311.715 525.707 324.677 491.541C330.038 477.138 330.999 475.218 331.559 477.138C331.879 478.338 334.439 495.381 337.32 514.985ZM379.728 511.144C380.368 511.784 387.409 572.676 387.889 581.157L388.369 590.999H364.445L361.324 571.156C359.644 560.274 356.763 542.03 354.923 530.588C353.083 519.146 351.642 509.624 351.802 509.384C351.962 508.904 379.328 510.664 379.728 511.144ZM398.291 512.265C403.172 512.585 407.493 512.985 407.893 513.305C408.293 513.545 410.053 525.067 411.734 538.909L414.854 564.034L422.456 567.635C426.616 569.555 432.057 572.036 434.458 573.156C438.779 575.076 438.859 575.156 436.938 575.956C433.738 577.237 417.815 577.717 411.654 576.676C406.373 575.796 392.85 571.716 390.69 570.275C389.969 569.875 388.529 560.273 386.129 540.91C384.128 525.147 382.528 511.864 382.528 511.464C382.528 511.144 384.048 510.984 385.969 511.304C387.809 511.544 393.33 512.024 398.291 512.265ZM297.872 521.866C303.953 523.867 308.914 525.787 308.914 526.187C308.914 526.507 308.434 528.188 307.794 529.868C307.154 531.628 305.234 536.989 303.393 541.95L300.193 550.912L306.674 558.353C310.275 562.434 315.476 568.195 318.276 571.236C321.077 574.196 323.317 576.917 323.317 577.317C323.317 578.997 309.074 575.956 302.833 572.996C297.072 570.195 293.392 567.075 284.27 557.313L276.268 548.751L279.389 537.709C281.149 531.548 283.07 524.667 283.71 522.346C284.43 520.106 285.39 518.186 285.95 518.186C286.43 518.186 291.871 519.866 297.872 521.866ZM443.98 564.754C444.54 565.314 444.94 566.995 444.94 568.515V571.396L443.339 568.995C440.939 565.314 441.419 562.194 443.98 564.754ZM455.182 568.435C455.582 570.835 454.221 572.356 451.261 572.996C448.22 573.716 447.74 573.236 448.94 570.835C451.421 566.035 454.701 564.834 455.182 568.435ZM329.718 573.476C329.718 574.756 329.398 575.796 329.078 575.796C328.278 575.796 326.518 570.435 327.158 569.875C328.038 568.915 329.718 571.316 329.718 573.476ZM338.52 575.396C338.52 577.477 336.52 578.997 333.799 578.997C331.479 578.997 331.719 578.117 334.599 575.156C337.32 572.356 338.52 572.436 338.52 575.396Z" fill="#3D3D50"/>
<path d="M363.325 154.438C360.924 159.879 360.444 160.439 358.204 160.679C355.003 160.999 355.003 162.279 358.204 163C361.164 163.56 366.525 166.68 366.525 167.8C366.525 168.201 367.085 168.521 367.725 168.521C369.166 168.521 369.246 167.4 367.965 165.32C367.165 164.04 367.325 163.32 369.166 160.839C371.086 158.039 371.326 156.518 369.726 156.518C369.406 156.518 367.965 158.039 366.605 159.879C363.165 164.52 362.684 162.279 365.645 155.318C367.885 150.037 368.125 148.517 366.605 148.517C366.205 148.517 364.765 151.237 363.325 154.438Z" fill="#3D3D50"/>
<path d="M299.713 185.324C299.473 185.804 300.993 190.125 303.233 195.006C305.474 199.806 307.314 204.847 307.314 206.208C307.314 211.409 302.993 216.209 297.552 217.01C295.632 217.33 294.512 217.97 294.512 218.77C294.512 220.45 300.033 219.57 303.793 217.25C307.074 215.249 309.635 210.368 309.715 206.288C309.715 203.487 301.953 184.524 300.833 184.524C300.513 184.524 299.953 184.924 299.713 185.324Z" fill="#3D3D50"/>
<path d="M461.023 211.809C457.422 212.529 454.462 214.849 452.781 218.21C450.861 221.89 451.021 225.091 453.181 228.852C458.862 238.854 473.585 235.813 475.025 224.371C475.986 216.69 468.704 210.128 461.023 211.809Z" fill="#3D3D50"/>
<path d="M78.5516 480.899C75.671 483.779 74.6308 485.38 75.271 485.78C75.8311 486.1 77.5914 484.979 79.7518 482.899L83.2725 479.458L91.2739 487.3L99.2754 479.458L103.196 483.299C105.837 485.86 107.277 486.82 107.677 486.18C108.317 485.22 100.476 476.578 98.9554 476.578C98.4753 476.578 96.5549 478.098 94.7146 479.939L91.2739 483.299L87.8333 479.939C85.993 478.098 84.0726 476.578 83.5925 476.578C83.1924 476.578 80.872 478.498 78.5516 480.899Z" fill="#3D3D50"/>
<path d="M78.9517 518.906C75.8311 522.026 74.6308 523.787 75.271 524.187C75.8311 524.507 77.5914 523.467 79.5918 521.466C81.4321 519.706 83.2725 518.186 83.7525 518.186C84.1526 518.186 85.993 519.626 87.6733 521.386C89.3536 523.147 91.1939 524.587 91.594 524.587C92.0741 524.587 93.9944 523.067 95.8348 521.226L99.2754 517.866L102.716 521.226C105.837 524.267 108.077 525.467 108.077 524.027C108.077 523.707 105.997 521.386 103.516 518.826L98.9554 514.185L91.2739 521.706L83.5925 514.185L78.9517 518.906Z" fill="#3D3D50"/>
<path d="M78.4715 556.993C75.0309 560.434 74.3108 561.554 75.1109 562.354C75.9111 563.154 76.8712 562.514 79.8318 559.553L83.6725 555.793L87.4332 559.553L91.2739 563.314L98.9554 555.793L102.876 559.793C105.197 562.114 107.117 563.474 107.517 563.074C108.557 562.034 107.197 559.953 102.956 555.793L99.2754 552.272L91.2739 560.113L87.4332 556.353C85.3528 554.272 83.4325 552.592 83.1924 552.592C83.0324 552.592 80.872 554.592 78.4715 556.993Z" fill="#3D3D50"/>
<path d="M521.514 527.547C521.274 527.948 520.874 536.029 520.554 545.551C520.074 560.594 520.154 562.994 521.114 562.994C522.074 562.994 522.394 560.914 522.794 552.752C523.834 532.908 523.354 524.347 521.514 527.547Z" fill="#3D3D50"/>
<path d="M546.479 534.109C541.278 537.389 536.477 542.67 533.916 547.791C531.996 551.712 531.756 553.072 531.756 560.594C531.756 565.234 532.076 570.275 532.396 571.796L533.036 574.676L525.035 578.357C517.753 581.718 515.113 583.798 518.073 583.798C519.834 583.798 536.157 575.956 536.157 575.156C536.157 574.756 535.597 572.836 534.956 570.996C533.196 565.955 533.356 556.033 535.437 550.592C537.437 545.231 543.438 538.429 548.479 535.709C551.92 533.949 552.72 532.668 550.879 532.028C550.479 531.868 548.479 532.828 546.479 534.109Z" fill="#3D3D50"/>
<path d="M559.841 563.474C559.601 564.194 559.361 565.874 559.361 567.235C559.281 572.836 553.44 580.597 548.399 581.878C546.559 582.358 545.758 584.598 547.439 584.598C550.959 584.598 558.481 578.117 560.321 573.556C561.441 570.675 562.482 564.514 562.001 563.234C561.441 561.794 560.401 561.954 559.841 563.474Z" fill="#3D3D50"/>
<path d="M592.934 126.438C592.614 126.678 592.373 130.439 592.373 134.76V142.601L578.371 143.081V185.489H655.985L656.785 171.887L672.388 171.407L672.228 148.842L671.988 126.278L632.701 126.038C611.097 125.958 593.174 126.118 592.934 126.438ZM669.988 169.086H656.385L656.225 156.044L655.985 143.081L625.42 142.841L594.774 142.681V129.079H669.988V169.086ZM618.778 150.603C618.778 151.403 619.579 152.603 620.539 153.243C622.699 154.683 621.739 156.604 619.178 155.964C618.138 155.724 616.698 155.724 616.058 155.964C613.657 156.924 614.778 159.164 618.778 161.485C621.019 162.845 623.019 164.685 623.259 165.645C623.979 168.206 622.939 170.686 620.699 171.647C619.499 172.207 618.778 173.247 618.778 174.447C618.778 175.727 618.298 176.287 617.178 176.287C616.058 176.287 615.578 175.727 615.578 174.447C615.578 173.167 614.858 172.207 613.497 171.567C610.297 170.126 611.577 168.686 616.058 168.686C620.859 168.686 621.659 166.926 617.818 164.765C614.218 162.685 610.777 159.404 610.777 158.044C610.777 157.484 611.897 155.884 613.177 154.523C614.538 153.243 615.578 151.483 615.578 150.603C615.578 149.642 616.138 149.082 617.178 149.082C618.218 149.082 618.778 149.642 618.778 150.603Z" fill="white"/>
<path d="M106.477 331.191C103.916 332.471 102.316 335.912 102.956 338.552C103.596 341.033 106.877 343.753 109.277 343.753C111.678 343.753 115.038 341.033 115.438 338.632C115.999 335.752 114.078 331.831 111.678 330.951C109.037 329.911 108.877 329.991 106.477 331.191Z" fill="#3D3D50"/>
<path d="M137.363 345.433C135.762 346.714 135.282 347.754 135.282 350.074C135.282 355.995 141.923 358.796 146.084 354.555C151.925 348.794 143.844 340.313 137.363 345.433Z" fill="#3D3D50"/>
<path d="M50.0663 353.755C47.3458 356.396 47.3458 360.716 50.0663 363.357C52.7068 365.997 55.6673 365.917 58.5478 363.037C61.5884 359.996 61.5884 357.116 58.5478 354.075C55.6673 351.195 52.7068 351.115 50.0663 353.755Z" fill="#3D3D50"/>
<path d="M122.64 362.397C120.239 364.957 120.319 369.358 122.72 371.598C126.721 375.359 133.682 372.399 133.682 366.957C133.682 361.436 126.4 358.396 122.64 362.397Z" fill="#3D3D50"/>
<path d="M36.8638 364.317C32.303 365.997 30.7827 370.718 33.6632 374.399C37.984 379.84 46.3856 375.839 45.0253 368.958C44.4652 365.597 39.9844 363.117 36.8638 364.317Z" fill="#3D3D50"/>
<path d="M148.085 366.717C143.764 368.318 142.083 372.879 144.564 376.399C148.565 382.16 157.606 378.48 156.326 371.598C155.686 368.078 151.285 365.517 148.085 366.717Z" fill="#3D3D50"/>
<path d="M65.9092 371.758C63.1887 372.879 61.4284 376.079 62.0685 378.96C63.1887 384.001 70.07 385.681 73.5106 381.76C75.9111 378.88 75.751 376.079 72.9505 373.279C70.5501 370.878 68.9498 370.558 65.9092 371.758Z" fill="#3D3D50"/>
<path d="M105.837 387.521C104.156 388.161 102.316 392.482 102.956 394.403C105.517 402.964 115.999 400.564 115.358 391.522C115.118 388.161 109.837 385.921 105.837 387.521Z" fill="#3D3D50"/>
<path d="M30.4626 391.362C24.7816 397.363 33.8232 406.085 39.6643 400.164C42.3048 397.603 42.3048 393.923 39.6643 391.362C37.0238 388.642 33.0231 388.642 30.4626 391.362Z" fill="#3D3D50"/>
<path d="M138.403 394.883C135.842 397.523 135.442 400.084 137.363 402.804C139.123 405.365 141.923 406.245 144.884 405.285C147.764 404.244 148.885 402.404 148.885 398.643C148.885 396.643 148.325 395.443 146.804 394.243C143.844 391.922 141.203 392.162 138.403 394.883Z" fill="#3D3D50"/>
<path d="M74.6308 396.243C72.0704 398.003 71.1902 400.804 72.1504 403.764C74.3108 409.926 83.2724 408.885 84.5527 402.404C84.9528 400.244 84.6327 399.444 82.6323 397.363C79.9118 394.723 77.3513 394.323 74.6308 396.243Z" fill="#3D3D50"/>
<path d="M12.4593 403.364C7.01826 408.725 14.4596 417.287 20.7008 412.886C23.2613 411.126 24.1414 408.325 23.1813 405.365C21.581 400.964 15.8999 399.844 12.4593 403.364Z" fill="#3D3D50"/>
<path d="M97.5951 411.686C94.9546 414.326 94.7946 415.687 96.4749 418.887C97.7551 421.448 99.1154 422.168 102.476 422.168C108.237 422.168 110.638 415.126 106.157 411.286C103.196 408.725 100.476 408.885 97.5951 411.686Z" fill="#3D3D50"/>
<path d="M30.9427 420.728C26.3819 424.888 28.8623 431.77 34.8634 431.77C40.0644 431.77 43.5051 425.848 40.6245 422.088C38.064 418.727 33.9033 418.087 30.9427 420.728Z" fill="#3D3D50"/>
<path d="M50.1463 420.648C45.6654 424.168 48.3859 431.77 54.067 431.77C58.9479 431.77 61.9085 427.449 60.0681 422.968C58.3878 418.967 53.6669 417.847 50.1463 420.648Z" fill="#3D3D50"/>
<path d="M115.758 432.65C114.158 433.93 113.678 434.97 113.678 437.291C113.678 443.212 120.319 446.012 124.48 441.771C130.321 436.01 122.24 427.529 115.758 432.65Z" fill="#3D3D50"/>
<path fill-rule="evenodd" clip-rule="evenodd" d="M252.584 157.479C254.984 162.199 259.225 166.76 262.986 168.521C266.026 170.041 267.547 170.281 271.868 169.881C278.749 169.321 282.91 166.6 285.71 160.759L287.71 156.598L296.672 156.518C309.875 156.518 309.795 156.358 320.757 184.604C324.277 193.565 328.598 204.847 330.438 209.728L333.799 218.53L327.558 247.335L315.476 247.575C308.754 247.655 303.313 247.495 303.313 247.095C303.313 246.695 304.033 245.735 304.914 244.935C308.994 241.174 307.074 240.854 276.108 240.134C255.464 239.574 254.424 239.334 253.064 234.773C252.584 233.333 250.344 220.77 248.023 206.928C245.703 193.085 243.542 181.403 243.222 181.003C241.142 178.602 241.622 183.883 245.863 208.688C250.664 237.253 251.224 239.014 255.384 241.094C256.665 241.734 265.226 242.294 279.149 242.774C291.151 243.175 301.073 243.655 301.313 243.895C301.553 244.135 301.153 245.575 300.513 247.175C298.833 251.176 298.993 257.817 300.913 262.058C301.793 263.978 302.513 265.819 302.513 266.299C302.513 266.699 288.831 266.939 267.147 266.779C228.26 266.54 228.259 266.539 221.858 261.481L221.778 261.418C219.778 259.818 217.617 256.937 216.017 253.736L213.537 248.615L211.216 210.768C209.936 189.965 209.056 171.321 209.376 169.321C210.176 163.08 213.857 157.639 218.498 155.798C219.618 155.398 227.459 154.998 235.861 154.998L251.224 154.918L252.584 157.479ZM303.233 195.006C300.993 190.125 299.473 185.804 299.713 185.324C299.953 184.924 300.513 184.524 300.833 184.524C301.953 184.524 309.715 203.487 309.715 206.288C309.635 210.368 307.074 215.249 303.793 217.25C300.033 219.57 294.512 220.45 294.512 218.77C294.512 217.97 295.632 217.33 297.552 217.01C302.993 216.209 307.314 211.409 307.314 206.208C307.314 204.847 305.474 199.806 303.233 195.006Z" fill="#89CBDB"/>
<path d="M308.114 284.142C308.114 284.382 307.154 288.783 306.034 293.824C304.914 298.945 304.274 303.346 304.674 303.746C304.994 304.066 322.197 307.266 342.921 310.867C365.885 314.868 381.968 318.068 384.288 319.109C388.769 321.029 393.25 325.67 395.491 330.791C397.411 334.952 397.251 333.831 401.332 399.764C402.932 424.648 405.092 459.455 406.213 477.218C407.333 494.981 408.053 509.704 407.813 510.024C407.253 510.504 356.923 507.064 353.323 506.263C351.002 505.703 350.922 505.623 349.562 496.182L348.122 486.66L351.722 452.253C353.643 433.29 355.563 415.447 355.803 412.566C356.283 407.685 361.484 392.562 372.846 362.717C375.167 356.556 376.127 352.955 376.127 349.914C376.047 343.033 372.206 336.312 366.125 332.551C364.845 331.751 347.162 326.79 326.918 321.429C306.674 316.148 283.31 309.987 274.988 307.746C261.066 303.986 256.105 303.266 258.265 305.426C258.985 306.146 269.627 309.027 334.919 326.15C353.803 331.031 363.885 334.071 365.885 335.352C369.726 337.912 373.086 343.673 373.566 348.634C373.886 351.995 373.246 354.475 369.086 365.597C351.402 413.126 310.275 522.666 310.115 522.826C309.795 523.147 281.949 514.185 261.866 507.304C248.743 502.743 246.423 501.703 246.743 500.502C246.983 499.782 254.024 486.98 262.506 472.017C276.908 446.732 301.073 404.084 315.476 378.64C318.916 372.559 321.637 367.198 321.557 366.797C321.397 366.397 305.394 366.077 284.11 366.077C247.063 366.157 246.903 366.157 241.622 364.237C228.579 359.596 219.298 349.914 215.217 336.472C212.576 327.75 213.297 319.749 218.418 300.625C220.738 292.064 222.738 284.702 222.978 284.382C223.459 283.662 308.114 283.502 308.114 284.142Z" fill="#EE786B"/>
<path fill-rule="evenodd" clip-rule="evenodd" d="M532.076 182.603C533.036 183.803 533.756 185.724 533.756 186.844C533.756 189.004 528.395 209.088 518.313 244.455C514.713 257.337 512.792 262.858 511.432 264.218L509.592 266.139H396.851L394.93 264.138C392.37 261.658 392.37 258.857 394.85 250.136C395.891 246.375 399.891 232.132 403.732 218.53C413.974 181.963 413.574 183.083 415.574 181.723C417.094 180.683 424.296 180.523 473.825 180.523H530.476L532.076 182.603ZM452.781 218.21C454.462 214.849 457.422 212.529 461.023 211.809C468.704 210.128 475.986 216.69 475.025 224.371C473.585 235.813 458.862 238.854 453.181 228.852C451.021 225.091 450.861 221.89 452.781 218.21Z" fill="#DFE1EE"/>
<path d="M627.374 269.339V281.342H157.686V269.339H627.374Z" fill="white"/>
<path d="M598.568 285.182C598.568 285.502 605.61 327.67 614.251 378.96C622.813 430.249 634.175 497.942 639.376 529.388L640.245 534.561C645.14 563.713 649.155 587.625 649.458 588.759L649.938 590.999H643.057C639.296 590.999 636.175 590.759 636.175 590.359C636.175 590.071 633.382 573.153 629.786 551.37L628.574 544.03L628.219 541.881C624.078 516.798 618.327 481.957 615.371 463.215C608.09 418.087 586.646 287.743 586.246 285.902C585.926 284.702 586.646 284.542 592.247 284.542C595.688 284.542 598.568 284.782 598.568 285.182Z" fill="white"/>
<path d="M192.893 284.862C192.893 285.502 187.852 316.548 178.97 370.158C174.329 398.083 167.448 440.251 163.687 463.776C159.847 487.3 153.606 525.467 149.765 548.591L142.804 590.599L136.242 590.839C131.921 590.999 129.681 590.759 129.681 590.199C129.681 588.839 149.205 472.337 153.686 446.972C155.926 434.41 158.086 421.608 158.486 418.567C158.887 415.447 159.447 412.086 159.687 411.046C160.167 409.285 160.247 409.285 161.607 410.486C163.527 412.246 167.448 412.086 169.528 410.166C174.649 405.365 170.569 397.843 163.687 399.124C162.567 399.364 161.687 399.204 161.687 398.723C161.687 397.123 178.97 294.544 180.571 286.703C180.971 284.542 181.131 284.542 186.972 284.542C190.252 284.542 192.893 284.702 192.893 284.862Z" fill="white"/>
<path fill-rule="evenodd" clip-rule="evenodd" d="M534.716 461.775C534.956 465.216 535.197 465.776 536.717 466.016C537.757 466.176 539.277 467.216 540.157 468.336C541.678 470.337 541.998 470.337 544.798 469.457C546.399 468.896 548.879 468.416 550.159 468.336C552.4 468.176 552.56 468.336 552.48 470.977C552.48 472.577 551.76 475.138 550.959 476.818L549.599 479.779H543.678C538.957 479.779 537.757 480.019 537.757 480.979C537.757 481.939 538.797 482.179 542.638 482.179H547.599L547.039 484.739C546.799 486.1 546.399 487.38 546.239 487.54C546.159 487.7 544.478 487.22 542.558 486.58C535.517 484.099 534.796 486.34 541.838 488.98C545.919 490.581 546.239 490.901 547.039 494.261C548.239 498.982 548.879 500.182 555.04 509.464C565.362 524.907 569.763 539.95 569.763 559.633C569.763 569.875 569.923 570.995 571.603 573.476C574.964 578.517 578.965 577.397 583.125 570.355C586.806 564.114 587.446 560.273 588.246 541.79C588.967 522.266 590.487 514.185 594.407 507.864C596.728 504.103 601.049 500.262 604.009 499.382C606.73 498.582 606.25 500.262 601.769 506.824C595.688 515.705 595.288 517.946 594.568 540.99C594.087 557.793 593.687 561.954 592.247 566.755C589.687 575.556 586.806 580.917 582.565 584.918C577.364 589.799 572.964 590.999 560.561 590.999C538.157 590.999 504.951 589.879 504.951 589.159C504.951 588.759 506.151 586.998 507.671 585.318C512.392 580.117 512.952 576.036 510.872 560.354C509.352 548.911 509.752 534.029 511.752 524.187C512.472 520.666 514.553 513.465 516.313 508.184C518.633 501.222 519.674 496.742 519.994 491.941L520.394 485.38H524.314C529.835 485.38 529.115 483.459 523.514 483.139L519.354 482.899V479.698C519.354 478.018 519.514 476.578 519.674 476.578C519.834 476.578 521.514 477.458 523.434 478.498C526.715 480.419 528.155 480.499 528.155 478.898C528.155 478.498 526.155 477.218 523.754 476.018C520.074 474.177 519.354 473.457 519.354 471.777C519.354 468.736 523.514 462.735 527.515 460.015C533.676 455.694 534.316 455.854 534.716 461.775ZM520.554 545.551C520.874 536.029 521.274 527.948 521.514 527.547C523.354 524.347 523.834 532.908 522.794 552.752C522.394 560.914 522.074 562.994 521.114 562.994C520.154 562.994 520.074 560.594 520.554 545.551ZM533.916 547.791C536.477 542.67 541.278 537.389 546.479 534.109C548.479 532.828 550.479 531.868 550.879 532.028C552.72 532.668 551.92 533.949 548.479 535.709C543.438 538.429 537.437 545.231 535.437 550.592C533.356 556.033 533.196 565.955 534.956 570.996C535.597 572.836 536.157 574.756 536.157 575.156C536.157 575.956 519.834 583.798 518.073 583.798C515.113 583.798 517.753 581.718 525.035 578.357L533.036 574.676L532.396 571.796C532.076 570.275 531.756 565.234 531.756 560.594C531.756 553.072 531.996 551.712 533.916 547.791ZM559.361 567.235C559.361 565.874 559.601 564.194 559.841 563.474C560.401 561.954 561.441 561.794 562.001 563.234C562.482 564.514 561.441 570.675 560.321 573.556C558.481 578.117 550.959 584.598 547.439 584.598C545.758 584.598 546.559 582.358 548.399 581.878C553.44 580.597 559.281 572.836 559.361 567.235Z" fill="#EEE0DA"/>
<path fill-rule="evenodd" clip-rule="evenodd" d="M94.7146 451.773H105.677V458.174C105.677 464.496 105.757 464.656 108.477 467.056C112.558 470.657 115.438 477.138 115.518 482.739C115.518 488.66 114.158 492.901 110.798 497.302C107.517 501.543 107.437 503.623 110.077 506.824C117.199 515.305 117.199 528.268 110.077 536.749C107.437 539.87 107.517 541.63 110.798 546.111C119.519 558.193 115.839 573.876 102.636 580.357C98.7153 582.278 97.195 582.518 90.8739 582.518C81.7522 582.518 76.7912 580.517 71.6703 574.836C63.8288 566.115 63.7488 554.112 71.6703 544.751C74.2308 541.71 74.2308 540.27 71.6703 537.229C67.3495 532.108 66.0692 528.588 66.0692 521.786C66.0692 514.985 67.3495 511.464 71.6703 506.343C72.7905 505.063 73.6707 503.383 73.6707 502.663C73.6707 502.023 72.2304 499.542 70.5501 497.222C63.3487 487.78 64.3089 475.378 72.8705 467.056C76.0711 464.016 76.0711 463.936 76.0711 457.934C76.0711 451.933 76.0711 451.853 78.3115 451.533C79.5117 451.373 81.1921 451.293 82.0722 451.453C82.9524 451.613 88.6334 451.773 94.7146 451.773ZM75.271 485.78C74.6308 485.38 75.671 483.779 78.5516 480.899C80.872 478.498 83.1924 476.578 83.5925 476.578C84.0726 476.578 85.993 478.098 87.8333 479.939L91.2739 483.299L94.7146 479.939C96.5549 478.098 98.4753 476.578 98.9554 476.578C100.476 476.578 108.317 485.22 107.677 486.18C107.277 486.82 105.837 485.86 103.196 483.299L99.2754 479.458L91.2739 487.3L83.2725 479.458L79.7518 482.899C77.5914 484.979 75.8311 486.1 75.271 485.78ZM75.271 524.187C74.6308 523.787 75.8311 522.026 78.9517 518.906L83.5925 514.185L91.2739 521.706L98.9554 514.185L103.516 518.826C105.997 521.386 108.077 523.707 108.077 524.027C108.077 525.467 105.837 524.267 102.716 521.226L99.2754 517.866L95.8348 521.226C93.9944 523.067 92.0741 524.587 91.594 524.587C91.1939 524.587 89.3536 523.147 87.6733 521.386C85.993 519.626 84.1526 518.186 83.7525 518.186C83.2725 518.186 81.4321 519.706 79.5918 521.466C77.5914 523.467 75.8311 524.507 75.271 524.187ZM75.1109 562.354C74.3108 561.554 75.0309 560.434 78.4715 556.993C80.872 554.592 83.0324 552.592 83.1924 552.592C83.4325 552.592 85.3528 554.272 87.4332 556.353L91.2739 560.113L99.2754 552.272L102.956 555.793C107.197 559.953 108.557 562.034 107.517 563.074C107.117 563.474 105.197 562.114 102.876 559.793L98.9554 555.793L91.2739 563.314L87.4332 559.553L83.6725 555.793L79.8318 559.553C76.8712 562.514 75.9111 563.154 75.1109 562.354Z" fill="#DFE1EE"/>
<path d="M287.39 103.629C289.391 104.349 289.471 104.589 289.951 113.31C290.511 123.552 289.551 127.873 285.71 133.234C282.429 137.715 278.989 139.715 274.428 139.715C269.867 139.715 265.866 138.115 262.106 134.834C260.105 133.074 258.985 132.514 258.425 133.074C257.545 133.954 257.945 134.914 262.266 141.396C264.186 144.276 269.787 147.877 273.948 148.837C276.028 149.317 276.108 149.557 276.108 154.598C276.108 158.439 276.348 159.799 277.149 159.559C277.629 159.319 278.189 158.439 278.349 157.479C278.589 156.038 279.149 155.718 281.789 155.718C285.39 155.718 285.55 156.358 283.31 160.439C280.109 166.04 271.868 169.081 265.466 167C262.186 165.88 256.505 160.039 254.824 156.118C254.024 154.118 253.704 149.637 253.704 139.155V124.832L251.304 122.752C247.223 119.231 248.823 113.47 253.624 114.511C255.464 114.911 255.865 114.591 257.545 110.91C259.865 105.949 263.066 103.709 268.107 103.709C272.588 103.709 277.469 102.348 280.109 100.508C282.109 99.0677 282.109 99.0677 283.71 100.908C284.59 102.028 286.27 103.228 287.39 103.629Z" fill="white"/>
<path fill-rule="evenodd" clip-rule="evenodd" d="M371.886 148.037C374.207 150.837 375.567 156.038 375.007 160.039C374.687 161.799 371.086 169.481 366.925 177.082L359.324 190.845V210.288L351.722 209.968C347.562 209.808 343.801 209.328 343.401 208.928C342.921 208.448 343.241 204.767 344.201 199.326L345.801 190.525L342.601 176.122C340.92 168.201 339.8 161.399 340.12 160.999C341.48 159.639 343.481 161.399 345.481 165.88C348.122 171.801 347.962 171.641 349.722 169.481L351.242 167.64L353.323 171.321C354.603 173.402 355.563 176.362 355.643 178.282C355.883 182.203 357.323 183.243 358.044 179.963C358.924 175.962 355.003 166.92 352.442 166.92C351.802 166.92 351.322 166.76 351.322 166.6C351.322 165.48 359.644 147.877 360.764 146.677C362.844 144.356 369.406 145.156 371.886 148.037ZM358.204 160.679C360.444 160.439 360.924 159.879 363.325 154.438C364.765 151.237 366.205 148.517 366.605 148.517C368.125 148.517 367.885 150.037 365.645 155.318C362.684 162.279 363.165 164.52 366.605 159.879C367.965 158.039 369.406 156.518 369.726 156.518C371.326 156.518 371.086 158.039 369.166 160.839C367.325 163.32 367.165 164.04 367.965 165.32C369.246 167.4 369.166 168.521 367.725 168.521C367.085 168.521 366.525 168.201 366.525 167.8C366.525 166.68 361.164 163.56 358.204 163C355.003 162.279 355.003 160.999 358.204 160.679Z" fill="white"/>
<path d="M343.001 211.409C345.881 212.209 349.642 212.529 354.523 212.369L361.724 212.129V242.774L357.964 241.574C352.683 239.974 346.921 240.694 337.88 244.055C333.879 245.495 330.518 246.535 330.518 246.215C330.438 245.015 338.04 210.128 338.36 210.128C338.52 210.128 340.6 210.688 343.001 211.409Z" fill="#89CBDB"/>
<path d="M360.684 245.415C362.604 246.295 365.005 248.135 366.125 249.496C367.965 251.656 375.327 265.339 375.327 266.539C375.327 266.779 374.687 266.939 373.967 266.939C373.166 266.859 371.246 265.019 369.726 262.778C366.925 258.617 363.164 255.657 362.044 256.777C361.724 257.097 363.084 259.097 365.165 261.178C369.326 265.419 369.806 266.939 367.085 266.939C365.805 266.939 364.845 266.059 363.725 264.058C361.964 260.778 357.403 256.537 355.723 256.537C353.803 256.537 354.283 257.497 357.643 260.698C359.404 262.298 361.244 264.378 361.724 265.339C362.444 266.699 362.364 266.939 360.684 266.939C359.564 266.939 357.243 265.339 354.443 262.698C352.042 260.298 349.322 258.217 348.442 257.977C347.402 257.737 344.681 258.857 340.92 261.018C331.799 266.379 329.238 267.019 316.836 266.779L306.114 266.539L303.953 262.218C302.433 259.257 301.713 256.617 301.713 253.977V250.136H328.678L337.16 247.015C341.801 245.255 346.441 243.655 347.482 243.495C350.682 242.774 357.163 243.735 360.684 245.415Z" fill="white"/>
<path d="M297.872 521.866C303.953 523.867 308.914 525.787 308.914 526.187C308.914 526.507 308.434 528.188 307.794 529.868C307.154 531.628 305.234 536.989 303.393 541.95L300.193 550.912L306.674 558.353C310.275 562.434 315.476 568.195 318.276 571.236C321.077 574.196 323.317 576.917 323.317 577.317C323.317 578.997 309.074 575.956 302.833 572.996C297.072 570.195 293.392 567.075 284.27 557.313L276.268 548.751L279.389 537.709C281.149 531.548 283.07 524.667 283.71 522.346C284.43 520.106 285.39 518.186 285.95 518.186C286.43 518.186 291.871 519.866 297.872 521.866Z" fill="white"/>
<path d="M398.291 512.265C403.172 512.585 407.493 512.985 407.893 513.305C408.293 513.545 410.053 525.067 411.734 538.909L414.854 564.034L422.456 567.635C426.616 569.555 432.057 572.036 434.458 573.156C438.779 575.076 438.859 575.156 436.938 575.956C433.738 577.237 417.815 577.717 411.654 576.676C406.373 575.796 392.85 571.716 390.69 570.275C389.969 569.875 388.529 560.273 386.129 540.91C384.128 525.147 382.528 511.864 382.528 511.464C382.528 511.144 384.048 510.984 385.969 511.304C387.809 511.544 393.33 512.024 398.291 512.265Z" fill="white"/>
<path d="M562.722 246.615C562.242 247.495 560.241 249.736 558.241 251.736C555.36 254.457 554.32 255.017 553.6 254.297C552.8 253.496 553.68 252.296 557.361 248.536C560.081 245.735 562.402 244.055 562.802 244.455C563.202 244.855 563.202 245.815 562.722 246.615Z" fill="white"/>
<path d="M568.483 250.776C569.123 251.896 559.681 260.778 558.561 260.138C557.921 259.738 559.121 257.977 562.242 254.857C566.962 250.136 567.763 249.576 568.483 250.776Z" fill="white"/>
<path d="M554.72 209.728C553.2 213.089 553.6 215.489 556.32 218.61C558.961 221.65 558.961 221.33 556.56 227.091C556.16 228.132 556.4 228.532 557.281 228.532C559.121 228.532 561.201 223.411 560.561 220.53C560.321 219.33 559.201 217.49 558.081 216.53C556.08 214.529 555.6 211.809 557.041 210.368C557.921 209.488 557.441 207.728 556.24 207.728C555.92 207.728 555.2 208.608 554.72 209.728Z" fill="white"/>
<path d="M563.362 219.25C563.362 219.81 563.922 220.77 564.562 221.33C566.082 222.611 566.082 225.411 564.562 227.412C563.122 229.332 563.042 230.932 564.402 230.932C565.842 230.932 568.163 226.691 568.163 224.211C568.163 223.011 567.603 221.17 566.882 220.13C565.442 217.97 563.362 217.41 563.362 219.25Z" fill="white"/>
</svg>
