<svg width="151" height="70" viewBox="0 0 151 70" fill="none" xmlns="http://www.w3.org/2000/svg">
<path d="M104.061 13.0162C104.83 11.6786 106.76 11.6786 107.529 13.0162L113.279 23.0191C113.563 23.5128 114.043 23.8621 114.601 23.9794L125.891 26.3572C127.401 26.6752 127.997 28.5106 126.962 29.6553L119.226 38.2152C118.844 38.6376 118.661 39.2028 118.721 39.769L119.949 51.2414C120.113 52.7756 118.551 53.91 117.143 53.2798L106.611 48.5672C106.092 48.3346 105.497 48.3346 104.978 48.5672L94.4461 53.2798C93.0377 53.91 91.4764 52.7756 91.6406 51.2414L92.8681 39.769C92.9286 39.2028 92.745 38.6377 92.3632 38.2152L84.6268 29.6553C83.5922 28.5106 84.1886 26.6752 85.6984 26.3572L96.9887 23.9794C97.5459 23.8621 98.0266 23.5128 98.3104 23.0191L104.061 13.0162Z" fill="#3973AF"/>
<path d="M44.6427 13.0162C45.4117 11.6786 47.3416 11.6786 48.1105 13.0162L53.8608 23.0191C54.1446 23.5128 54.6254 23.8621 55.1826 23.9794L66.4728 26.3572C67.9826 26.6752 68.579 28.5106 67.5444 29.6553L59.808 38.2152C59.4262 38.6376 59.2426 39.2028 59.3032 39.769L60.5307 51.2414C60.6948 52.7756 59.1335 53.91 57.7251 53.2798L47.1935 48.5672C46.6738 48.3346 46.0795 48.3346 45.5597 48.5672L35.0281 53.2798C33.6198 53.91 32.0584 52.7756 32.2226 51.2414L33.4501 39.769C33.5107 39.2028 33.327 38.6377 32.9452 38.2152L25.2088 29.6553C24.1743 28.5106 24.7706 26.6752 26.2804 26.3572L37.5707 23.9794C38.1279 23.8621 38.6087 23.5128 38.8924 23.0191L44.6427 13.0162Z" fill="#3973AF"/>
</svg>
