<svg width="150" height="70" viewBox="0 0 150 70" fill="none" xmlns="http://www.w3.org/2000/svg">
<path d="M71.9155 5.01625C72.6844 3.67859 74.6143 3.67859 75.3833 5.01625L81.1336 15.0191C81.4174 15.5128 81.8981 15.8621 82.4553 15.9794L93.7456 18.3572C95.2554 18.6752 95.8517 20.5106 94.8172 21.6553L87.0808 30.2152C86.699 30.6376 86.5154 31.2028 86.5759 31.769L87.8034 43.2414C87.9676 44.7756 86.4062 45.91 84.9979 45.2798L74.4663 40.5672C73.9465 40.3346 73.3523 40.3346 72.8325 40.5672L62.3009 45.2798C60.8925 45.91 59.3312 44.7756 59.4954 43.2414L60.7228 31.769C60.7834 31.2028 60.5998 30.6377 60.218 30.2152L52.4816 21.6553C51.447 20.5106 52.0434 18.6752 53.5532 18.3572L64.8435 15.9794C65.4007 15.8621 65.8814 15.5128 66.1652 15.0191L71.9155 5.01625Z" fill="#F2EECF"/>
<path d="M122.558 22.5719C123.327 21.2343 125.257 21.2343 126.026 22.5719L131.776 32.5748C132.06 33.0685 132.541 33.4178 133.098 33.5351L144.388 35.9129C145.898 36.2308 146.494 38.0663 145.46 39.211L137.723 47.7709C137.342 48.1933 137.158 48.7585 137.219 49.3247L138.446 60.7971C138.61 62.3313 137.049 63.4656 135.64 62.8354L125.109 58.1229C124.589 57.8903 123.995 57.8903 123.475 58.1229L112.943 62.8354C111.535 63.4656 109.974 62.3313 110.138 60.7971L111.365 49.3247C111.426 48.7585 111.242 48.1933 110.861 47.7709L103.124 39.211C102.09 38.0663 102.686 36.2308 104.196 35.9129L115.486 33.5351C116.043 33.4178 116.524 33.0685 116.808 32.5748L122.558 22.5719Z" fill="#F2EECF"/>
<path d="M23.976 22.5719C24.745 21.2343 26.6749 21.2343 27.4439 22.5719L33.1941 32.5748C33.4779 33.0685 33.9587 33.4178 34.5159 33.5351L45.8061 35.9129C47.3159 36.2308 47.9123 38.0663 46.8777 39.211L39.1413 47.7709C38.7595 48.1933 38.5759 48.7585 38.6365 49.3247L39.864 60.7971C40.0281 62.3313 38.4668 63.4656 37.0584 62.8354L26.5268 58.1229C26.0071 57.8903 25.4128 57.8903 24.893 58.1229L14.3614 62.8354C12.9531 63.4656 11.3918 62.3313 11.5559 60.7971L12.7834 49.3247C12.844 48.7585 12.6603 48.1933 12.2785 47.7709L4.54214 39.211C3.50758 38.0663 4.10395 36.2308 5.61376 35.9129L16.904 33.5351C17.4612 33.4178 17.942 33.0685 18.2258 32.5748L23.976 22.5719Z" fill="#F2EECF"/>
</svg>
