<svg width="44" height="42" viewBox="0 0 44 42" fill="none" xmlns="http://www.w3.org/2000/svg">
<path d="M20.3095 1.01625C21.0784 -0.321407 23.0083 -0.321409 23.7773 1.01625L29.5275 11.0191C29.8113 11.5128 30.2921 11.8621 30.8493 11.9794L42.1395 14.3572C43.6494 14.6752 44.2457 16.5106 43.2112 17.6553L35.4748 26.2152C35.093 26.6376 34.9093 27.2028 34.9699 27.769L36.1974 39.2414C36.3616 40.7756 34.8002 41.91 33.3919 41.2798L22.8603 36.5672C22.3405 36.3346 21.7462 36.3346 21.2265 36.5672L10.6949 41.2798C9.28652 41.91 7.72519 40.7756 7.88934 39.2414L9.11683 27.769C9.17741 27.2028 8.99378 26.6377 8.61197 26.2152L0.875578 17.6553C-0.158984 16.5106 0.437389 14.6752 1.9472 14.3572L13.2374 11.9794C13.7946 11.8621 14.2754 11.5128 14.5592 11.0191L20.3095 1.01625Z" fill="#EE786B"/>
</svg>
