<svg width="173" height="30" viewBox="0 0 173 30" fill="none" xmlns="http://www.w3.org/2000/svg">
<g clip-path="url(#clip0_1_1803)">
<path d="M163.11 30H5.24001C1.92835 30 -0.544923 26.9793 0.125794 23.7931L4.31777 4.09655C4.77889 1.69655 6.9168 0 9.39007 0H167.26C170.572 0 173.045 3.02069 172.374 6.2069L168.182 25.9034C167.721 28.3034 165.583 30 163.11 30Z" fill="#DFE1EE"/>
<path d="M16.6422 11.3377C17.3967 10.8826 18.2351 10.6343 19.0735 10.6343C19.87 10.6343 20.5826 10.8412 21.1276 11.255C21.6725 11.6688 22.0498 12.2067 22.1756 12.9101L22.2175 13.117L24.1039 12.455L24.062 12.2895C23.8104 11.2136 23.2236 10.3446 22.3433 9.68256C21.4629 9.02049 20.373 8.68945 19.1154 8.68945C17.8578 8.68945 16.6841 9.02049 15.5522 9.64118C14.4623 10.2619 13.582 11.1308 12.9113 12.2067C12.2406 13.2826 11.9471 14.4412 11.9471 15.6826C11.9471 16.6343 12.1567 17.5032 12.6179 18.2481C13.079 18.9929 13.7078 19.5722 14.4623 19.986C15.2588 20.3998 16.1391 20.6067 17.1452 20.6067C18.4028 20.6067 19.5765 20.2757 20.6665 19.655C21.7564 19.0343 22.6367 18.1653 23.2655 17.0481L23.3912 16.8412L21.5049 16.1791L21.421 16.3032C20.918 17.0481 20.3311 17.6274 19.5765 18.0412C18.822 18.455 18.0255 18.6619 17.1871 18.6619C16.5583 18.6619 16.0134 18.5377 15.5103 18.2895C15.0492 18.0412 14.6719 17.6688 14.4204 17.2136C14.1689 16.7584 14.0431 16.2205 14.0431 15.6412C14.0431 14.7722 14.2527 13.986 14.7139 13.1998C15.2588 12.455 15.8876 11.8343 16.6422 11.3377Z" fill="#3D3D50"/>
<path d="M35.2546 9.35165C34.4581 8.93785 33.5778 8.73096 32.5717 8.73096C31.3141 8.73096 30.1404 9.06199 29.0085 9.68268C27.9186 10.3034 27.0383 11.1723 26.3676 12.2482C25.6969 13.3241 25.4034 14.4827 25.4034 15.7241C25.4034 16.6758 25.613 17.5448 26.0742 18.2896C26.5353 19.0344 27.1641 19.6137 27.9605 20.0275C28.757 20.4413 29.6373 20.6482 30.6434 20.6482C31.901 20.6482 33.0748 20.3172 34.1647 19.6965C35.2546 19.0758 36.1349 18.2068 36.7637 17.131C37.4344 16.0551 37.7279 14.8965 37.7279 13.6551C37.7279 12.7034 37.5183 11.8344 37.0571 11.0896C36.638 10.3447 36.0092 9.76544 35.2546 9.35165ZM30.6853 18.7034C30.0565 18.7034 29.5116 18.5792 29.0085 18.331C28.5474 18.0827 28.1702 17.7103 27.8767 17.2551C27.6252 16.7999 27.4994 16.262 27.4994 15.6827C27.4994 14.8137 27.709 14.0275 28.1701 13.2413C28.6313 12.4551 29.2601 11.8344 30.0146 11.3792C30.7692 10.9241 31.6076 10.6758 32.446 10.6758C33.0748 10.6758 33.6197 10.7999 34.1228 11.0482C34.5839 11.2965 34.9612 11.6689 35.2546 12.1241C35.5061 12.5792 35.6319 13.1172 35.6319 13.6965C35.6319 14.5654 35.4223 15.3516 34.9612 16.1379C34.5 16.9241 33.8712 17.5448 33.1167 17.9999C32.4041 18.4965 31.5657 18.7034 30.6853 18.7034Z" fill="#3D3D50"/>
<path d="M50.178 8.979H41.0814V13.1583C41.0814 14.2342 41.0395 15.1445 40.9556 15.848C40.8718 16.51 40.7041 17.0893 40.4945 17.5859C40.3268 17.9169 40.1172 18.248 39.8657 18.579H38.5243V23.5859H40.4945V20.4411H49.7588V23.5859H51.729V18.5376H50.178V8.979ZM48.1239 10.8411V18.5376H42.0875C42.4228 18.0411 42.6324 17.4618 42.7582 16.8411C42.9259 15.9721 43.0516 14.7307 43.0516 13.1169V10.7997H48.1239V10.8411Z" fill="#3D3D50"/>
<path d="M63.3827 9.51716C62.5443 8.97923 61.5802 8.73096 60.5741 8.73096C59.568 8.73096 58.6458 8.97923 57.8493 9.51716C57.0947 10.0137 56.4659 10.6758 56.0467 11.5034V8.93785H53.9927V24.7861H56.0467V17.8758C56.5079 18.7034 57.0947 19.3654 57.8493 19.862C58.6458 20.3999 59.568 20.6482 60.5741 20.6482C61.6221 20.6482 62.5443 20.3999 63.3827 19.862C64.2211 19.3241 64.8918 18.6206 65.3529 17.7103C65.8141 16.7999 66.0656 15.8068 66.0656 14.6896C66.0656 13.5723 65.8141 12.5792 65.3529 11.6689C64.8918 10.7585 64.2211 10.0551 63.3827 9.51716ZM57.9751 11.1723C58.6039 10.8413 59.3165 10.6344 60.071 10.6344C60.7837 10.6344 61.4544 10.7999 62.0413 11.1723C62.6282 11.5034 63.0893 11.9999 63.4246 12.6206C63.76 13.2413 63.9277 13.9034 63.9277 14.6896C63.9277 15.4344 63.76 16.1379 63.4246 16.7585C63.0893 17.3792 62.6282 17.8758 62.0413 18.2068C61.4544 18.5379 60.7837 18.7448 60.071 18.7448C59.3165 18.7448 58.6039 18.5792 57.9751 18.2068C57.3463 17.8758 56.8432 17.3792 56.5079 16.7585C56.1725 16.1379 55.9629 15.4344 55.9629 14.6896C55.9629 13.9448 56.1306 13.2413 56.5079 12.6206C56.8851 11.9999 57.3882 11.5448 57.9751 11.1723Z" fill="#3D3D50"/>
<path d="M72.5632 19.1583L68.8743 8.979H66.6106L70.7607 19.9445H72.3117L70.4672 24.7859H72.5632L78.5158 8.979H76.4198L72.5632 19.1583Z" fill="#3D3D50"/>
<path d="M96.0802 8.979H93.7746L90.6306 13.7376H88.87V8.979H86.8159V13.7376H85.0972L81.9533 8.979H79.6477L83.2528 14.6066L79.2704 20.3997H81.6598L85.0972 15.6411H86.8159V20.3997H88.87V15.6411H90.6306L93.9842 20.3997H96.4156L92.4332 14.5652L96.0802 8.979Z" fill="#3D3D50"/>
<path d="M106.183 9.59992C105.261 9.02061 104.171 8.73096 103.039 8.73096C101.949 8.73096 100.901 8.97923 100.021 9.51716C99.0985 10.0551 98.3858 10.7585 97.8828 11.6689C97.3378 12.5792 97.0863 13.5723 97.0863 14.6896C97.0863 15.8068 97.3378 16.7999 97.8828 17.7103C98.4277 18.6206 99.1404 19.3241 100.063 19.862C100.985 20.3999 102.033 20.6482 103.165 20.6482C104.422 20.6482 105.512 20.3585 106.476 19.7379C107.44 19.1172 108.153 18.331 108.656 17.2965L108.74 17.131L106.979 16.3861L106.896 16.5516C106.56 17.2551 106.057 17.793 105.428 18.2068C104.8 18.6206 104.045 18.8275 103.207 18.8275C102.452 18.8275 101.739 18.662 101.111 18.2896C100.482 17.9172 100.021 17.4206 99.6434 16.7999C99.3919 16.3861 99.2242 15.931 99.1823 15.4344H108.992V15.2689C109.075 14.0689 108.866 12.9516 108.363 11.9999C107.86 10.9241 107.105 10.1379 106.183 9.59992ZM99.6015 12.6206C99.9369 11.9999 100.44 11.5034 101.027 11.131C101.614 10.7585 102.284 10.593 103.039 10.593C103.752 10.593 104.422 10.7585 105.009 11.0896C105.596 11.4206 106.057 11.8758 106.392 12.4551C106.602 12.8275 106.77 13.1999 106.854 13.6551H99.1823C99.3081 13.2827 99.4338 12.9103 99.6015 12.6206Z" fill="#3D3D50"/>
<path d="M114.944 11.2137C115.531 10.8413 116.244 10.6758 116.956 10.6758C117.753 10.6758 118.507 10.8827 119.136 11.2965C119.765 11.7103 120.268 12.2896 120.603 12.993L120.687 13.1585L122.573 12.4965L122.49 12.2896C122.029 11.2137 121.274 10.3034 120.31 9.68268C119.346 9.06199 118.214 8.73096 116.956 8.73096C115.824 8.73096 114.776 8.97923 113.854 9.51716C112.932 10.0551 112.177 10.7585 111.632 11.6689C111.087 12.5792 110.836 13.5723 110.836 14.6896C110.836 15.8068 111.087 16.7999 111.632 17.7103C112.177 18.6206 112.89 19.3241 113.812 19.862C114.734 20.3999 115.782 20.6482 116.914 20.6482C118.172 20.6482 119.304 20.3172 120.268 19.6965C121.232 19.0758 121.987 18.1654 122.448 17.0896L122.532 16.8827L120.645 16.2206L120.561 16.3861C120.226 17.0896 119.765 17.6689 119.094 18.0827C118.465 18.4965 117.711 18.7034 116.914 18.7034C116.16 18.7034 115.489 18.5379 114.902 18.1654C114.315 17.793 113.812 17.3379 113.477 16.7172C113.142 16.0965 112.932 15.4344 112.932 14.6896C112.932 13.9448 113.1 13.2413 113.477 12.662C113.896 12.0413 114.357 11.5448 114.944 11.2137Z" fill="#3D3D50"/>
<path d="M123.789 10.8411H127.813V20.3997H129.868V10.8411H133.892V8.979H123.789V10.8411Z" fill="#3D3D50"/>
<path d="M144.623 15.1859C144.288 14.9376 143.827 14.7307 143.366 14.6066C143.953 14.3583 144.414 14.0273 144.707 13.6135C145.043 13.1583 145.21 12.6204 145.21 12.0411C145.21 11.4618 145.043 10.9238 144.707 10.4273C144.372 9.97211 143.911 9.59969 143.324 9.35142C142.737 9.10314 142.108 8.979 141.396 8.979H135.82V20.4411H141.982C142.695 20.4411 143.324 20.3169 143.911 20.0687C144.498 19.8204 144.917 19.448 145.252 18.9928C145.588 18.5376 145.755 17.9997 145.755 17.379C145.713 16.4273 145.336 15.6825 144.623 15.1859ZM142.695 13.3652C142.36 13.6549 141.899 13.8204 141.354 13.8204H137.79V10.7583H141.354C141.899 10.7583 142.318 10.9238 142.695 11.1721C143.03 11.4618 143.198 11.7928 143.198 12.248C143.198 12.7031 143.03 13.0756 142.695 13.3652ZM137.79 15.5997H141.899C142.444 15.5997 142.863 15.7652 143.198 16.0549C143.533 16.3445 143.701 16.7169 143.701 17.1307C143.701 17.5859 143.533 17.9169 143.198 18.2066C142.863 18.4962 142.444 18.6204 141.899 18.6204H137.79V15.5997Z" fill="#3D3D50"/>
<path d="M158.918 11.6689C158.373 10.7585 157.66 10.0551 156.696 9.51716C155.774 8.97923 154.726 8.73096 153.594 8.73096C152.462 8.73096 151.414 8.97923 150.492 9.51716C149.57 10.0551 148.815 10.7585 148.27 11.6689C147.725 12.5792 147.474 13.5723 147.474 14.6896C147.474 15.8068 147.725 16.7999 148.27 17.7103C148.815 18.6206 149.528 19.3241 150.45 19.862C151.372 20.3999 152.42 20.6482 153.552 20.6482C154.684 20.6482 155.732 20.3999 156.654 19.862C157.577 19.3241 158.331 18.6206 158.834 17.7103C159.379 16.7999 159.631 15.8068 159.631 14.6896C159.714 13.6137 159.463 12.5792 158.918 11.6689ZM153.636 18.7034C152.882 18.7034 152.211 18.5379 151.624 18.1654C151.037 17.793 150.534 17.3379 150.199 16.7172C149.863 16.0965 149.654 15.4344 149.654 14.6896C149.654 13.9448 149.821 13.2413 150.199 12.662C150.534 12.0413 151.037 11.5448 151.624 11.2137C152.211 10.8413 152.923 10.6758 153.636 10.6758C154.349 10.6758 155.061 10.8413 155.69 11.2137C156.319 11.5861 156.78 12.0413 157.115 12.662C157.451 13.2827 157.618 13.9447 157.618 14.731C157.618 15.4758 157.451 16.1792 157.115 16.7999C156.78 17.4206 156.277 17.8758 155.69 18.2482C155.061 18.5379 154.349 18.7034 153.636 18.7034Z" fill="#3D3D50"/>
</g>
<defs>
<clipPath id="clip0_1_1803">
<rect width="172.5" height="30" fill="white"/>
</clipPath>
</defs>
</svg>
