<svg width="236" height="206" viewBox="0 0 236 206" fill="none" xmlns="http://www.w3.org/2000/svg">
<path d="M1.12006 1.38143C1.01334 1.63103 0.977766 43.9568 1.01334 95.4466L1.12006 189.048L26.591 189.155L52.0976 189.226L52.4889 191.473C53.3782 196.643 57.2202 201.671 61.9516 203.882C68.3193 206.877 75.9677 205.593 81.0192 200.637C83.4383 198.248 85.4304 194.468 85.8573 191.366L86.1419 189.405L234.841 189.048V1.13183L118.052 1.02485C24.8123 0.953536 1.22679 1.02485 1.12006 1.38143ZM166.148 3.44958C167.073 6.08825 167.108 12.0788 166.254 14.9314L165.614 16.9995H156.934L150.887 13.2911C146.724 10.6881 144.768 9.68969 144.59 9.97495C144.448 10.2246 144.305 11.9005 144.305 13.6834V16.9995H123.388L123.032 15.9298C122.819 15.3593 122.463 13.612 122.249 12.0788C121.787 9.01219 122.178 4.80458 123.103 2.55814L123.637 1.31011L144.554 1.38143L165.472 1.48841L166.148 3.44958ZM11.9346 7.58588C12.9662 8.86956 12.8595 9.72534 11.6144 11.009C10.725 11.8648 10.3337 12.0431 9.5511 11.8648C7.55895 11.3656 6.74075 9.11916 7.91469 7.44325C8.7329 6.26654 10.9741 6.33786 11.9346 7.58588ZM19.9031 7.79983C21.6107 10.0819 18.5869 13.1128 16.3102 11.4013C15.1362 10.5455 14.8872 8.76258 15.7054 7.51456C16.5236 6.26654 18.8715 6.40917 19.9031 7.79983ZM27.5871 7.58588C28.5832 8.86956 28.512 9.72534 27.3025 10.9734C26.0574 12.1857 25.2036 12.257 23.923 11.2586C22.8558 10.4028 22.6779 8.69127 23.5672 7.44325C24.3854 6.26654 26.6266 6.33786 27.5871 7.58588ZM144.127 20.0304C144.127 21.3854 143.985 27.3046 143.843 33.1168C143.523 43.5289 143.558 43.7072 144.27 44.4203C145.622 45.7753 146.724 45.4188 151.278 41.9956C153.59 40.2484 155.618 38.929 155.76 39.036C155.902 39.1786 157.29 41.746 158.891 44.7413L161.808 50.1612L165.33 48.307C167.251 47.2729 168.851 46.3459 168.851 46.2389C168.851 46.1319 167.5 43.5646 165.863 40.5336C163.658 36.4687 162.982 34.9354 163.337 34.7571C163.586 34.6145 165.828 33.7587 168.353 32.8672C170.879 31.9758 173.156 30.9774 173.405 30.6564C174.045 29.8007 173.938 27.9108 173.191 27.2333C172.622 26.7341 168.674 24.2381 161.488 19.8878C159.673 18.7824 158.179 17.784 158.179 17.6057C158.179 17.4631 175.255 17.3918 196.172 17.4274L234.13 17.5344V188.692H86.1419L86.0707 187.622C85.6794 183.2 84.0786 179.635 81.0548 176.568C74.5448 170.007 63.7303 170.043 57.2202 176.639C54.5878 179.314 53.3071 181.774 52.5245 185.589L51.9197 188.692H1.83154L1.72482 103.47C1.68925 56.5796 1.72482 18.0336 1.83154 17.784C1.93826 17.4274 16.3813 17.3561 73.0507 17.4274L144.127 17.5344V20.0304ZM72.9795 172.646C76.11 173.466 77.9599 174.464 80.3077 176.639C84.3632 180.419 86.3909 186.516 85.2881 191.687C84.292 196.322 81.0548 200.78 77.1061 202.919C67.8568 207.911 56.6866 203.347 53.4138 193.22C52.9513 191.758 52.8446 190.474 52.9513 187.871C53.0936 184.841 53.2715 184.092 54.3387 181.738C57.7183 174.535 65.5445 170.72 72.9795 172.646Z" fill="#3D3D50"/>
<path d="M185.642 34.9354C184.646 36.0051 184.646 37.3601 185.678 38.3229C186.745 39.3213 188.097 39.3213 189.057 38.2872C190.053 37.2175 190.053 35.8625 189.022 34.8997C187.955 33.9013 186.603 33.9013 185.642 34.9354Z" fill="#3D3D50"/>
<path d="M25.844 45.5257H34.7375V36.6113H25.844V45.5257ZM34.0971 44.6343L26.5555 44.8482V36.9322L34.0971 37.1461V44.6343Z" fill="#3D3D50"/>
<path d="M180.128 37.9663C179.381 38.7864 179.346 39.7848 180.093 40.8189C180.911 42.0313 183.045 41.7817 183.792 40.4267C184.255 39.5709 184.255 39.3569 183.792 38.4655C183.081 37.2175 181.053 36.9322 180.128 37.9663Z" fill="#3D3D50"/>
<path d="M39.3621 43.0297H78.4935V38.7507H39.3621V43.0297Z" fill="#3D3D50"/>
<path d="M193.54 41.9956C193.433 42.2096 193.469 42.5305 193.682 42.7444C194.145 43.208 194.82 42.8158 194.82 42.1026C194.82 41.5321 193.895 41.4251 193.54 41.9956Z" fill="#3D3D50"/>
<path d="M179.061 43.315C177.887 44.6343 178.599 46.5955 180.235 46.5955C182.156 46.5955 183.081 44.5273 181.729 43.2793C180.875 42.4948 179.773 42.5305 179.061 43.315Z" fill="#3D3D50"/>
<path d="M114.316 45.1691C113.961 45.7397 113.214 46.4885 112.644 46.8451C112.04 47.166 111.577 47.5582 111.577 47.6652C111.577 47.7722 112.04 48.1644 112.644 48.4853C113.214 48.8419 113.961 49.5907 114.316 50.1612C114.637 50.7674 115.028 51.231 115.135 51.231C115.241 51.231 115.668 50.6604 116.131 49.9829C116.558 49.2698 117.34 48.521 117.803 48.307C118.906 47.8078 118.906 47.5226 117.803 47.0233C117.34 46.8094 116.558 46.0606 116.131 45.3474C115.668 44.6699 115.241 44.0994 115.135 44.0994C115.028 44.0994 114.637 44.563 114.316 45.1691Z" fill="#3D3D50"/>
<path d="M193.184 45.3118C192.899 46.0606 193.291 46.5955 194.144 46.5955C194.678 46.5955 194.856 46.3815 194.749 45.811C194.607 44.8482 193.504 44.4917 193.184 45.3118Z" fill="#3D3D50"/>
<path d="M181.943 47.7009C180.733 48.3783 181.516 50.8744 182.939 50.8744C183.472 50.8744 184.86 49.6264 184.86 49.1628C184.86 49.0202 184.611 48.521 184.29 48.0931C183.721 47.2373 182.903 47.1303 181.943 47.7009Z" fill="#3D3D50"/>
<path d="M190.907 48.1644C189.947 49.3411 191.548 50.7318 192.615 49.662C193.077 49.1985 193.113 48.9489 192.828 48.4497C192.295 47.6295 191.476 47.5226 190.907 48.1644Z" fill="#3D3D50"/>
<path d="M186.71 49.5194C186.46 49.769 186.283 50.3039 186.283 50.7674C186.283 51.7302 187.777 52.2651 188.595 51.5876C189.591 50.7674 188.986 49.0915 187.706 49.0915C187.385 49.0915 186.959 49.2698 186.71 49.5194Z" fill="#3D3D50"/>
<path d="M25.844 58.3625H34.7375V49.4481H25.844V58.3625Z" fill="#3D3D50"/>
<path d="M39.3621 56.2231H70.3115V51.9441H39.3621V56.2231Z" fill="#3D3D50"/>
<path d="M185.571 142.158H198.734V73.3388H185.571V142.158ZM198.307 85.712L198.378 97.586H185.927V85.8903C185.927 79.4362 186.034 74.0519 186.176 73.9093C186.318 73.8023 189.057 73.731 192.295 73.7667L198.2 73.8736L198.307 85.712Z" fill="#3D3D50"/>
<path d="M52.7023 77.7603C52.2043 78.6874 51.315 79.6502 50.1054 80.4347L48.2912 81.6827L49.4295 82.3602C51.2438 83.4299 52.2043 84.464 52.9158 85.9973L53.5561 87.3879L53.9474 86.3538C54.4455 85.0702 55.4415 83.9291 57.2202 82.6098L58.572 81.6114L57.1847 80.7199C55.7617 79.7572 53.9474 77.689 53.9474 76.9759C53.9474 76.0488 53.3427 76.4053 52.7023 77.7603Z" fill="#3D3D50"/>
<path d="M136.123 142.158H149.286V79.044H136.123V142.158ZM148.574 100.082H136.835V79.7572H148.574V100.082Z" fill="#3D3D50"/>
<path d="M164.227 86.4608C164.227 86.96 165.97 88.4576 166.254 88.208C166.361 88.0654 166.041 87.5662 165.507 87.067C164.476 86.1042 164.227 85.9973 164.227 86.4608Z" fill="#3D3D50"/>
<path d="M169.029 87.067C168.531 87.6019 168.175 88.1367 168.318 88.2437C168.424 88.3507 168.958 88.0298 169.456 87.4949C169.99 86.9957 170.31 86.4608 170.203 86.3539C170.096 86.2112 169.563 86.5678 169.029 87.067Z" fill="#3D3D50"/>
<path d="M165.152 91.025C163.978 92.3087 164.333 92.6653 165.543 91.4173C166.077 90.9181 166.397 90.3832 166.29 90.2762C166.183 90.1336 165.65 90.4902 165.152 91.025Z" fill="#3D3D50"/>
<path d="M168.14 90.3832C168.14 90.8824 169.883 92.38 170.168 92.0947C170.31 91.9521 169.954 91.4529 169.421 90.9893C168.282 90.0266 168.14 89.9553 168.14 90.3832Z" fill="#3D3D50"/>
<path d="M86.6755 142.158H99.8379V92.9505H86.6755V142.158ZM99.1264 109.353H93.8259C90.9088 109.353 88.2763 109.46 87.9562 109.567C87.4581 109.745 87.387 108.925 87.387 101.544V93.3071H99.1264V109.353Z" fill="#3D3D50"/>
<path d="M37.2277 142.158H50.39V105.431H37.2277V142.158ZM49.9631 112.455C50.0343 118.981 50.0343 118.981 49.2517 119.159C48.7892 119.266 46.05 119.302 43.0974 119.266L37.7613 119.159L37.6545 112.919C37.619 109.496 37.6545 106.5 37.7613 106.251C37.868 105.859 39.2198 105.787 43.88 105.859L49.8564 105.966L49.9631 112.455Z" fill="#3D3D50"/>
<path d="M26.1997 153.747H61.418V149.646H26.1997V153.747Z" fill="#3D3D50"/>
<path d="M75.6476 151.572C75.6476 152.963 75.7898 153.533 76.1812 153.711C76.4658 153.818 84.3632 153.854 93.7191 153.818L110.688 153.747L110.901 149.646H75.6476V151.572Z" fill="#3D3D50"/>
<path d="M125.095 153.747L142.705 153.64L160.314 153.569V149.646H125.095V153.747Z" fill="#3D3D50"/>
<path d="M174.543 153.925L192.081 153.854L209.584 153.747L209.797 149.646H174.543V153.925Z" fill="#3D3D50"/>
<path d="M29.0456 160.7H58.572V156.778H29.0456V160.7Z" fill="#3D3D50"/>
<path d="M78.4935 160.7H108.02V156.778H78.4935V160.7Z" fill="#3D3D50"/>
<path d="M127.941 160.7H157.468V156.778H127.941V160.7Z" fill="#3D3D50"/>
<path d="M177.389 160.7H206.916V156.778H177.389V160.7Z" fill="#3D3D50"/>
<path d="M219.544 171.077C219.331 171.719 217.659 173.323 216.805 173.644C216.485 173.787 216.77 174.179 217.552 174.821C218.193 175.356 219.011 176.283 219.366 176.853L220.007 177.887L220.576 176.782C220.896 176.176 221.679 175.32 222.319 174.892L223.457 174.072L221.608 172.218C220.007 170.649 219.722 170.506 219.544 171.077Z" fill="#3D3D50"/>
<path d="M63.2678 178.993C62.0227 180.312 61.3468 182.451 61.3112 185.126C61.2757 189.476 62.6275 192.436 64.584 192.436C65.7224 192.436 66.505 191.687 67.2877 189.833C68.2482 187.515 68.0703 186.98 65.9714 186.231L64.086 185.554L65.9714 184.698C68.0347 183.735 68.177 183.307 67.2877 181.096C66.6118 179.492 65.4022 178.173 64.6196 178.173C64.2994 178.173 63.6947 178.529 63.2678 178.993Z" fill="#3D3D50"/>
<path d="M72.5526 178.707C70.4538 180.169 69.7423 187.051 71.3075 190.332C72.2325 192.257 73.3708 192.935 74.5803 192.329C75.5053 191.865 76.5725 189.975 76.9282 188.264C77.1417 187.158 77.1061 187.087 75.2562 186.267L73.3708 185.447L75.2207 184.662C76.2523 184.199 77.0705 183.664 77.0705 183.414C77.0705 182.238 75.861 179.528 75.0428 178.886C73.94 178.03 73.5487 177.994 72.5526 178.707Z" fill="#3D3D50"/>
<path fill-rule="evenodd" clip-rule="evenodd" d="M144.127 20.0304C144.127 21.3854 143.985 27.3046 143.843 33.1168C143.523 43.5289 143.558 43.7072 144.27 44.4203C145.622 45.7753 146.724 45.4188 151.278 41.9956C153.59 40.2484 155.618 38.929 155.76 39.036C155.902 39.1786 157.29 41.746 158.891 44.7413L161.808 50.1612L165.33 48.307C167.251 47.2729 168.851 46.3459 168.851 46.2389C168.851 46.1319 167.5 43.5646 165.863 40.5336C163.658 36.4687 162.982 34.9354 163.337 34.7571C163.586 34.6145 165.828 33.7587 168.353 32.8672C170.879 31.9758 173.156 30.9774 173.405 30.6564C174.045 29.8007 173.938 27.9108 173.191 27.2333C172.622 26.7341 168.674 24.2381 161.488 19.8878C159.673 18.7824 158.179 17.784 158.179 17.6057C158.179 17.4631 175.255 17.3918 196.172 17.4274L234.13 17.5344V188.692H86.1419L86.0707 187.622C85.6794 183.2 84.0786 179.635 81.0548 176.568C74.5448 170.007 63.7303 170.043 57.2202 176.639C54.5878 179.314 53.3071 181.774 52.5245 185.589L51.9197 188.692H1.83154L1.72482 103.47C1.68925 56.5796 1.72482 18.0336 1.83154 17.784C1.93826 17.4274 16.3813 17.3561 73.0507 17.4274L144.127 17.5344V20.0304ZM185.678 38.3229C184.646 37.3601 184.646 36.0051 185.642 34.9354C186.603 33.9013 187.955 33.9013 189.022 34.8997C190.053 35.8625 190.053 37.2175 189.057 38.2872C188.097 39.3213 186.745 39.3213 185.678 38.3229ZM180.093 40.8189C179.346 39.7848 179.381 38.7864 180.128 37.9663C181.053 36.9322 183.081 37.2175 183.792 38.4655C184.255 39.3569 184.255 39.5709 183.792 40.4267C183.045 41.7817 180.911 42.0313 180.093 40.8189ZM193.682 42.7444C193.469 42.5305 193.433 42.2096 193.54 41.9956C193.895 41.4251 194.82 41.5321 194.82 42.1026C194.82 42.8158 194.145 43.208 193.682 42.7444ZM180.235 46.5955C178.599 46.5955 177.887 44.6343 179.061 43.315C179.773 42.5305 180.875 42.4948 181.729 43.2793C183.081 44.5273 182.156 46.5955 180.235 46.5955ZM112.644 46.8451C113.214 46.4885 113.961 45.7397 114.316 45.1691C114.637 44.563 115.028 44.0994 115.135 44.0994C115.241 44.0994 115.668 44.6699 116.131 45.3474C116.558 46.0606 117.34 46.8094 117.803 47.0233C118.906 47.5226 118.906 47.8078 117.803 48.307C117.34 48.521 116.558 49.2698 116.131 49.9829C115.668 50.6604 115.241 51.231 115.135 51.231C115.028 51.231 114.637 50.7674 114.316 50.1612C113.961 49.5907 113.214 48.8419 112.644 48.4853C112.04 48.1644 111.577 47.7722 111.577 47.6652C111.577 47.5582 112.04 47.166 112.644 46.8451ZM194.144 46.5955C193.291 46.5955 192.899 46.0606 193.184 45.3118C193.504 44.4917 194.607 44.8482 194.749 45.811C194.856 46.3815 194.678 46.5955 194.144 46.5955ZM182.939 50.8744C181.516 50.8744 180.733 48.3783 181.943 47.7009C182.903 47.1303 183.721 47.2373 184.29 48.0931C184.611 48.521 184.86 49.0202 184.86 49.1628C184.86 49.6264 183.472 50.8744 182.939 50.8744ZM192.615 49.662C191.548 50.7318 189.947 49.3411 190.907 48.1644C191.476 47.5226 192.295 47.6295 192.828 48.4497C193.113 48.9489 193.077 49.1985 192.615 49.662ZM186.283 50.7674C186.283 50.3039 186.46 49.769 186.71 49.5194C186.959 49.2698 187.385 49.0915 187.706 49.0915C188.986 49.0915 189.591 50.7674 188.595 51.5876C187.777 52.2651 186.283 51.7302 186.283 50.7674ZM50.1054 80.4347C51.315 79.6502 52.2043 78.6874 52.7023 77.7603C53.3427 76.4053 53.9474 76.0488 53.9474 76.9759C53.9474 77.689 55.7617 79.7572 57.1847 80.7199L58.572 81.6114L57.2202 82.6098C55.4415 83.9291 54.4455 85.0702 53.9474 86.3538L53.5561 87.3879L52.9158 85.9973C52.2043 84.464 51.2438 83.4299 49.4295 82.3602L48.2912 81.6827L50.1054 80.4347ZM166.254 88.208C165.97 88.4576 164.227 86.96 164.227 86.4608C164.227 85.9973 164.476 86.1042 165.507 87.067C166.041 87.5662 166.361 88.0654 166.254 88.208ZM168.318 88.2437C168.175 88.1367 168.531 87.6019 169.029 87.067C169.563 86.5678 170.096 86.2112 170.203 86.3539C170.31 86.4608 169.99 86.9957 169.456 87.4949C168.958 88.0298 168.424 88.3507 168.318 88.2437ZM165.543 91.4173C164.333 92.6653 163.978 92.3087 165.152 91.025C165.65 90.4902 166.183 90.1336 166.29 90.2762C166.397 90.3832 166.077 90.9181 165.543 91.4173ZM170.168 92.0947C169.883 92.38 168.14 90.8824 168.14 90.3832C168.14 89.9553 168.282 90.0266 169.421 90.9893C169.954 91.4529 170.31 91.9521 170.168 92.0947ZM76.1812 153.711C75.7898 153.533 75.6476 152.963 75.6476 151.572V149.646H110.901L110.688 153.747L93.7191 153.818C84.3632 153.854 76.4658 153.818 76.1812 153.711ZM142.705 153.64L125.095 153.747V149.646H160.314V153.569L142.705 153.64ZM192.081 153.854L174.543 153.925V149.646H209.797L209.584 153.747L192.081 153.854ZM216.805 173.644C217.659 173.323 219.331 171.719 219.544 171.077C219.722 170.506 220.007 170.649 221.608 172.218L223.457 174.072L222.319 174.892C221.679 175.32 220.896 176.176 220.576 176.782L220.007 177.887L219.366 176.853C219.011 176.283 218.193 175.356 217.552 174.821C216.77 174.179 216.485 173.787 216.805 173.644ZM25.844 45.5257V36.6113H34.7375V45.5257H25.844ZM39.3621 43.0297V38.7507H78.4935V43.0297H39.3621ZM25.844 58.3625V49.4481H34.7375V58.3625H25.844ZM39.3621 56.2231V51.9441H70.3115V56.2231H39.3621ZM185.571 142.158V73.3388H198.734V142.158H185.571ZM136.123 142.158V79.044H149.286V142.158H136.123ZM86.6755 142.158V92.9505H99.8379V142.158H86.6755ZM37.2277 142.158V105.431H50.39V142.158H37.2277ZM26.1997 153.747V149.646H61.418V153.747H26.1997ZM29.0456 160.7V156.778H58.572V160.7H29.0456ZM78.4935 160.7V156.778H108.02V160.7H78.4935ZM127.941 160.7V156.778H157.468V160.7H127.941ZM177.389 160.7V156.778H206.916V160.7H177.389Z" fill="#89CBDB"/>
<path d="M198.307 85.712L198.378 97.586H185.927V85.8903C185.927 79.4362 186.034 74.0519 186.176 73.9093C186.318 73.8023 189.057 73.731 192.295 73.7667L198.2 73.8736L198.307 85.712Z" fill="white"/>
<path d="M148.574 79.7572V100.082H136.835V79.7572H148.574Z" fill="white"/>
<path d="M99.1264 109.353H93.8259C90.9088 109.353 88.2763 109.46 87.9562 109.567C87.4581 109.745 87.387 108.925 87.387 101.544V93.3071H99.1264V109.353Z" fill="white"/>
<path d="M49.9631 112.455C50.0343 118.981 50.0343 118.981 49.2517 119.159C48.7892 119.266 46.05 119.302 43.0974 119.266L37.7613 119.159L37.6545 112.919C37.619 109.496 37.6545 106.5 37.7613 106.251C37.868 105.859 39.2198 105.787 43.88 105.859L49.8564 105.966L49.9631 112.455Z" fill="white"/>
<path d="M166.148 3.44958C167.073 6.08825 167.108 12.0788 166.254 14.9314L165.614 16.9995H156.934L150.887 13.2911C146.724 10.6881 144.768 9.68969 144.59 9.97495C144.448 10.2246 144.305 11.9005 144.305 13.6834V16.9995H123.388L123.032 15.9298C122.819 15.3593 122.463 13.612 122.249 12.0788C121.787 9.01219 122.178 4.80458 123.103 2.55814L123.637 1.31011L144.554 1.38143L165.472 1.48841L166.148 3.44958Z" fill="white"/>
<path d="M34.0971 37.1461V44.6343L26.5555 44.8482V36.9322L34.0971 37.1461Z" fill="white"/>
<path d="M11.9346 7.58588C12.9662 8.86956 12.8595 9.72534 11.6144 11.009C10.725 11.8648 10.3337 12.0431 9.5511 11.8648C7.55895 11.3656 6.74075 9.11916 7.91469 7.44325C8.7329 6.26654 10.9741 6.33786 11.9346 7.58588Z" fill="white"/>
<path d="M19.9031 7.79983C21.6107 10.0819 18.5869 13.1128 16.3102 11.4013C15.1362 10.5455 14.8872 8.76258 15.7054 7.51456C16.5236 6.26654 18.8715 6.40917 19.9031 7.79983Z" fill="white"/>
<path d="M27.5871 7.58588C28.5832 8.86956 28.512 9.72534 27.3025 10.9734C26.0574 12.1857 25.2036 12.257 23.923 11.2586C22.8558 10.4028 22.6779 8.69127 23.5672 7.44325C24.3854 6.26654 26.6266 6.33786 27.5871 7.58588Z" fill="white"/>
<path fill-rule="evenodd" clip-rule="evenodd" d="M72.9795 172.646C76.11 173.466 77.9599 174.464 80.3077 176.639C84.3632 180.419 86.3909 186.516 85.2881 191.687C84.292 196.322 81.0548 200.78 77.1061 202.919C67.8568 207.911 56.6866 203.347 53.4138 193.22C52.9513 191.758 52.8446 190.474 52.9513 187.871C53.0936 184.841 53.2715 184.092 54.3387 181.738C57.7183 174.535 65.5445 170.72 72.9795 172.646ZM61.3112 185.126C61.3468 182.451 62.0227 180.312 63.2678 178.993C63.6947 178.529 64.2994 178.173 64.6196 178.173C65.4022 178.173 66.6118 179.492 67.2877 181.096C68.177 183.307 68.0347 183.735 65.9714 184.698L64.086 185.554L65.9714 186.231C68.0703 186.98 68.2482 187.515 67.2877 189.833C66.505 191.687 65.7224 192.436 64.584 192.436C62.6275 192.436 61.2757 189.476 61.3112 185.126ZM71.3075 190.332C69.7423 187.051 70.4538 180.169 72.5526 178.707C73.5487 177.994 73.94 178.03 75.0428 178.886C75.861 179.528 77.0705 182.238 77.0705 183.414C77.0705 183.664 76.2523 184.199 75.2207 184.662L73.3708 185.447L75.2562 186.267C77.1061 187.087 77.1417 187.158 76.9282 188.264C76.5725 189.975 75.5053 191.865 74.5803 192.329C73.3708 192.935 72.2325 192.257 71.3075 190.332Z" fill="white"/>
<path d="M1.12006 1.38143C1.01334 1.63103 0.977766 43.9568 1.01334 95.4466L1.12006 189.048L26.591 189.155L52.0976 189.226L52.4889 191.473C53.3782 196.643 57.2202 201.671 61.9516 203.882C68.3193 206.877 75.9677 205.593 81.0192 200.637C83.4383 198.248 85.4304 194.468 85.8573 191.366L86.1419 189.405L234.841 189.048V1.13183L118.052 1.02485C24.8123 0.953536 1.22679 1.02485 1.12006 1.38143ZM166.148 3.44958C167.073 6.08825 167.108 12.0788 166.254 14.9314L165.614 16.9995H156.934L150.887 13.2911C146.724 10.6881 144.768 9.68969 144.59 9.97495C144.448 10.2246 144.305 11.9005 144.305 13.6834V16.9995H123.388L123.032 15.9298C122.819 15.3593 122.463 13.612 122.249 12.0788C121.787 9.01219 122.178 4.80458 123.103 2.55814L123.637 1.31011L144.554 1.38143L165.472 1.48841L166.148 3.44958ZM11.9346 7.58588C12.9662 8.86956 12.8595 9.72534 11.6144 11.009C10.725 11.8648 10.3337 12.0431 9.5511 11.8648C7.55895 11.3656 6.74075 9.11916 7.91469 7.44325C8.7329 6.26654 10.9741 6.33786 11.9346 7.58588ZM19.9031 7.79983C21.6107 10.0819 18.5869 13.1128 16.3102 11.4013C15.1362 10.5455 14.8872 8.76258 15.7054 7.51456C16.5236 6.26654 18.8715 6.40917 19.9031 7.79983ZM27.5871 7.58588C28.5832 8.86956 28.512 9.72534 27.3025 10.9734C26.0574 12.1857 25.2036 12.257 23.923 11.2586C22.8558 10.4028 22.6779 8.69127 23.5672 7.44325C24.3854 6.26654 26.6266 6.33786 27.5871 7.58588ZM144.127 20.0304C144.127 21.3854 143.985 27.3046 143.843 33.1168C143.523 43.5289 143.558 43.7072 144.27 44.4203C145.622 45.7753 146.724 45.4188 151.278 41.9956C153.59 40.2484 155.618 38.929 155.76 39.036C155.902 39.1786 157.29 41.746 158.891 44.7413L161.808 50.1612L165.33 48.307C167.251 47.2729 168.851 46.3459 168.851 46.2389C168.851 46.1319 167.5 43.5646 165.863 40.5336C163.658 36.4687 162.982 34.9354 163.337 34.7571C163.586 34.6145 165.828 33.7587 168.353 32.8672C170.879 31.9758 173.156 30.9774 173.405 30.6564C174.045 29.8007 173.938 27.9108 173.191 27.2333C172.622 26.7341 168.674 24.2381 161.488 19.8878C159.673 18.7824 158.179 17.784 158.179 17.6057C158.179 17.4631 175.255 17.3918 196.172 17.4274L234.13 17.5344V188.692H86.1419L86.0707 187.622C85.6794 183.2 84.0786 179.635 81.0548 176.568C74.5448 170.007 63.7303 170.043 57.2202 176.639C54.5878 179.314 53.3071 181.774 52.5245 185.589L51.9197 188.692H1.83154L1.72482 103.47C1.68925 56.5796 1.72482 18.0336 1.83154 17.784C1.93826 17.4274 16.3813 17.3561 73.0507 17.4274L144.127 17.5344V20.0304ZM72.9795 172.646C76.11 173.466 77.9599 174.464 80.3077 176.639C84.3632 180.419 86.3909 186.516 85.2881 191.687C84.292 196.322 81.0548 200.78 77.1061 202.919C67.8568 207.911 56.6866 203.347 53.4138 193.22C52.9513 191.758 52.8446 190.474 52.9513 187.871C53.0936 184.841 53.2715 184.092 54.3387 181.738C57.7183 174.535 65.5445 170.72 72.9795 172.646Z" stroke="#3D3D50"/>
<path d="M185.642 34.9354C184.646 36.0051 184.646 37.3601 185.678 38.3229C186.745 39.3213 188.097 39.3213 189.057 38.2872C190.053 37.2175 190.053 35.8625 189.022 34.8997C187.955 33.9013 186.603 33.9013 185.642 34.9354Z" stroke="#3D3D50"/>
<path d="M25.844 45.5257H34.7375V36.6113H25.844V45.5257ZM34.0971 44.6343L26.5555 44.8482V36.9322L34.0971 37.1461V44.6343Z" stroke="#3D3D50"/>
<path d="M180.128 37.9663C179.381 38.7864 179.346 39.7848 180.093 40.8189C180.911 42.0313 183.045 41.7817 183.792 40.4267C184.255 39.5709 184.255 39.3569 183.792 38.4655C183.081 37.2175 181.053 36.9322 180.128 37.9663Z" stroke="#3D3D50"/>
<path d="M39.3621 43.0297H78.4935V38.7507H39.3621V43.0297Z" stroke="#3D3D50"/>
<path d="M193.54 41.9956C193.433 42.2096 193.469 42.5305 193.682 42.7444C194.145 43.208 194.82 42.8158 194.82 42.1026C194.82 41.5321 193.895 41.4251 193.54 41.9956Z" stroke="#3D3D50"/>
<path d="M179.061 43.315C177.887 44.6343 178.599 46.5955 180.235 46.5955C182.156 46.5955 183.081 44.5273 181.729 43.2793C180.875 42.4948 179.773 42.5305 179.061 43.315Z" stroke="#3D3D50"/>
<path d="M114.316 45.1691C113.961 45.7397 113.214 46.4885 112.644 46.8451C112.04 47.166 111.577 47.5582 111.577 47.6652C111.577 47.7722 112.04 48.1644 112.644 48.4853C113.214 48.8419 113.961 49.5907 114.316 50.1612C114.637 50.7674 115.028 51.231 115.135 51.231C115.241 51.231 115.668 50.6604 116.131 49.9829C116.558 49.2698 117.34 48.521 117.803 48.307C118.906 47.8078 118.906 47.5226 117.803 47.0233C117.34 46.8094 116.558 46.0606 116.131 45.3474C115.668 44.6699 115.241 44.0994 115.135 44.0994C115.028 44.0994 114.637 44.563 114.316 45.1691Z" stroke="#3D3D50"/>
<path d="M193.184 45.3118C192.899 46.0606 193.291 46.5955 194.144 46.5955C194.678 46.5955 194.856 46.3815 194.749 45.811C194.607 44.8482 193.504 44.4917 193.184 45.3118Z" stroke="#3D3D50"/>
<path d="M181.943 47.7009C180.733 48.3783 181.516 50.8744 182.939 50.8744C183.472 50.8744 184.86 49.6264 184.86 49.1628C184.86 49.0202 184.611 48.521 184.29 48.0931C183.721 47.2373 182.903 47.1303 181.943 47.7009Z" stroke="#3D3D50"/>
<path d="M190.907 48.1644C189.947 49.3411 191.548 50.7318 192.615 49.662C193.077 49.1985 193.113 48.9489 192.828 48.4497C192.295 47.6295 191.476 47.5226 190.907 48.1644Z" stroke="#3D3D50"/>
<path d="M186.71 49.5194C186.46 49.769 186.283 50.3039 186.283 50.7674C186.283 51.7302 187.777 52.2651 188.595 51.5876C189.591 50.7674 188.986 49.0915 187.706 49.0915C187.385 49.0915 186.959 49.2698 186.71 49.5194Z" stroke="#3D3D50"/>
<path d="M25.844 58.3625H34.7375V49.4481H25.844V58.3625Z" stroke="#3D3D50"/>
<path d="M39.3621 56.2231H70.3115V51.9441H39.3621V56.2231Z" stroke="#3D3D50"/>
<path d="M185.571 142.158H198.734V73.3388H185.571V142.158ZM198.307 85.712L198.378 97.586H185.927V85.8903C185.927 79.4362 186.034 74.0519 186.176 73.9093C186.318 73.8023 189.057 73.731 192.295 73.7667L198.2 73.8736L198.307 85.712Z" stroke="#3D3D50"/>
<path d="M52.7023 77.7603C52.2043 78.6874 51.315 79.6502 50.1054 80.4347L48.2912 81.6827L49.4295 82.3602C51.2438 83.4299 52.2043 84.464 52.9158 85.9973L53.5561 87.3879L53.9474 86.3538C54.4455 85.0702 55.4415 83.9291 57.2202 82.6098L58.572 81.6114L57.1847 80.7199C55.7617 79.7572 53.9474 77.689 53.9474 76.9759C53.9474 76.0488 53.3427 76.4053 52.7023 77.7603Z" stroke="#3D3D50"/>
<path d="M136.123 142.158H149.286V79.044H136.123V142.158ZM148.574 100.082H136.835V79.7572H148.574V100.082Z" stroke="#3D3D50"/>
<path d="M164.227 86.4608C164.227 86.96 165.97 88.4576 166.254 88.208C166.361 88.0654 166.041 87.5662 165.507 87.067C164.476 86.1042 164.227 85.9973 164.227 86.4608Z" stroke="#3D3D50"/>
<path d="M169.029 87.067C168.531 87.6019 168.175 88.1367 168.318 88.2437C168.424 88.3507 168.958 88.0298 169.456 87.4949C169.99 86.9957 170.31 86.4608 170.203 86.3539C170.096 86.2112 169.563 86.5678 169.029 87.067Z" stroke="#3D3D50"/>
<path d="M165.152 91.025C163.978 92.3087 164.333 92.6653 165.543 91.4173C166.077 90.9181 166.397 90.3832 166.29 90.2762C166.183 90.1336 165.65 90.4902 165.152 91.025Z" stroke="#3D3D50"/>
<path d="M168.14 90.3832C168.14 90.8824 169.883 92.38 170.168 92.0947C170.31 91.9521 169.954 91.4529 169.421 90.9893C168.282 90.0266 168.14 89.9553 168.14 90.3832Z" stroke="#3D3D50"/>
<path d="M86.6755 142.158H99.8379V92.9505H86.6755V142.158ZM99.1264 109.353H93.8259C90.9088 109.353 88.2763 109.46 87.9562 109.567C87.4581 109.745 87.387 108.925 87.387 101.544V93.3071H99.1264V109.353Z" stroke="#3D3D50"/>
<path d="M37.2277 142.158H50.39V105.431H37.2277V142.158ZM49.9631 112.455C50.0343 118.981 50.0343 118.981 49.2517 119.159C48.7892 119.266 46.05 119.302 43.0974 119.266L37.7613 119.159L37.6545 112.919C37.619 109.496 37.6545 106.5 37.7613 106.251C37.868 105.859 39.2198 105.787 43.88 105.859L49.8564 105.966L49.9631 112.455Z" stroke="#3D3D50"/>
<path d="M26.1997 153.747H61.418V149.646H26.1997V153.747Z" stroke="#3D3D50"/>
<path d="M75.6476 151.572C75.6476 152.963 75.7898 153.533 76.1812 153.711C76.4658 153.818 84.3632 153.854 93.7191 153.818L110.688 153.747L110.901 149.646H75.6476V151.572Z" stroke="#3D3D50"/>
<path d="M125.095 153.747L142.705 153.64L160.314 153.569V149.646H125.095V153.747Z" stroke="#3D3D50"/>
<path d="M174.543 153.925L192.081 153.854L209.584 153.747L209.797 149.646H174.543V153.925Z" stroke="#3D3D50"/>
<path d="M29.0456 160.7H58.572V156.778H29.0456V160.7Z" stroke="#3D3D50"/>
<path d="M78.4935 160.7H108.02V156.778H78.4935V160.7Z" stroke="#3D3D50"/>
<path d="M127.941 160.7H157.468V156.778H127.941V160.7Z" stroke="#3D3D50"/>
<path d="M177.389 160.7H206.916V156.778H177.389V160.7Z" stroke="#3D3D50"/>
<path d="M219.544 171.077C219.331 171.719 217.659 173.323 216.805 173.644C216.485 173.787 216.77 174.179 217.552 174.821C218.193 175.356 219.011 176.283 219.366 176.853L220.007 177.887L220.576 176.782C220.896 176.176 221.679 175.32 222.319 174.892L223.457 174.072L221.608 172.218C220.007 170.649 219.722 170.506 219.544 171.077Z" stroke="#3D3D50"/>
<path d="M63.2678 178.993C62.0227 180.312 61.3468 182.451 61.3112 185.126C61.2757 189.476 62.6275 192.436 64.584 192.436C65.7224 192.436 66.505 191.687 67.2877 189.833C68.2482 187.515 68.0703 186.98 65.9714 186.231L64.086 185.554L65.9714 184.698C68.0347 183.735 68.177 183.307 67.2877 181.096C66.6118 179.492 65.4022 178.173 64.6196 178.173C64.2994 178.173 63.6947 178.529 63.2678 178.993Z" stroke="#3D3D50"/>
<path d="M72.5526 178.707C70.4538 180.169 69.7423 187.051 71.3075 190.332C72.2325 192.257 73.3708 192.935 74.5803 192.329C75.5053 191.865 76.5725 189.975 76.9282 188.264C77.1417 187.158 77.1061 187.087 75.2562 186.267L73.3708 185.447L75.2207 184.662C76.2523 184.199 77.0705 183.664 77.0705 183.414C77.0705 182.238 75.861 179.528 75.0428 178.886C73.94 178.03 73.5487 177.994 72.5526 178.707Z" stroke="#3D3D50"/>
<path fill-rule="evenodd" clip-rule="evenodd" d="M144.127 20.0304C144.127 21.3854 143.985 27.3046 143.843 33.1168C143.523 43.5289 143.558 43.7072 144.27 44.4203C145.622 45.7753 146.724 45.4188 151.278 41.9956C153.59 40.2484 155.618 38.929 155.76 39.036C155.902 39.1786 157.29 41.746 158.891 44.7413L161.808 50.1612L165.33 48.307C167.251 47.2729 168.851 46.3459 168.851 46.2389C168.851 46.1319 167.5 43.5646 165.863 40.5336C163.658 36.4687 162.982 34.9354 163.337 34.7571C163.586 34.6145 165.828 33.7587 168.353 32.8672C170.879 31.9758 173.156 30.9774 173.405 30.6564C174.045 29.8007 173.938 27.9108 173.191 27.2333C172.622 26.7341 168.674 24.2381 161.488 19.8878C159.673 18.7824 158.179 17.784 158.179 17.6057C158.179 17.4631 175.255 17.3918 196.172 17.4274L234.13 17.5344V188.692H86.1419L86.0707 187.622C85.6794 183.2 84.0786 179.635 81.0548 176.568C74.5448 170.007 63.7303 170.043 57.2202 176.639C54.5878 179.314 53.3071 181.774 52.5245 185.589L51.9197 188.692H1.83154L1.72482 103.47C1.68925 56.5796 1.72482 18.0336 1.83154 17.784C1.93826 17.4274 16.3813 17.3561 73.0507 17.4274L144.127 17.5344V20.0304ZM185.678 38.3229C184.646 37.3601 184.646 36.0051 185.642 34.9354C186.603 33.9013 187.955 33.9013 189.022 34.8997C190.053 35.8625 190.053 37.2175 189.057 38.2872C188.097 39.3213 186.745 39.3213 185.678 38.3229ZM180.093 40.8189C179.346 39.7848 179.381 38.7864 180.128 37.9663C181.053 36.9322 183.081 37.2175 183.792 38.4655C184.255 39.3569 184.255 39.5709 183.792 40.4267C183.045 41.7817 180.911 42.0313 180.093 40.8189ZM193.682 42.7444C193.469 42.5305 193.433 42.2096 193.54 41.9956C193.895 41.4251 194.82 41.5321 194.82 42.1026C194.82 42.8158 194.145 43.208 193.682 42.7444ZM180.235 46.5955C178.599 46.5955 177.887 44.6343 179.061 43.315C179.773 42.5305 180.875 42.4948 181.729 43.2793C183.081 44.5273 182.156 46.5955 180.235 46.5955ZM112.644 46.8451C113.214 46.4885 113.961 45.7397 114.316 45.1691C114.637 44.563 115.028 44.0994 115.135 44.0994C115.241 44.0994 115.668 44.6699 116.131 45.3474C116.558 46.0606 117.34 46.8094 117.803 47.0233C118.906 47.5226 118.906 47.8078 117.803 48.307C117.34 48.521 116.558 49.2698 116.131 49.9829C115.668 50.6604 115.241 51.231 115.135 51.231C115.028 51.231 114.637 50.7674 114.316 50.1612C113.961 49.5907 113.214 48.8419 112.644 48.4853C112.04 48.1644 111.577 47.7722 111.577 47.6652C111.577 47.5582 112.04 47.166 112.644 46.8451ZM194.144 46.5955C193.291 46.5955 192.899 46.0606 193.184 45.3118C193.504 44.4917 194.607 44.8482 194.749 45.811C194.856 46.3815 194.678 46.5955 194.144 46.5955ZM182.939 50.8744C181.516 50.8744 180.733 48.3783 181.943 47.7009C182.903 47.1303 183.721 47.2373 184.29 48.0931C184.611 48.521 184.86 49.0202 184.86 49.1628C184.86 49.6264 183.472 50.8744 182.939 50.8744ZM192.615 49.662C191.548 50.7318 189.947 49.3411 190.907 48.1644C191.476 47.5226 192.295 47.6295 192.828 48.4497C193.113 48.9489 193.077 49.1985 192.615 49.662ZM186.283 50.7674C186.283 50.3039 186.46 49.769 186.71 49.5194C186.959 49.2698 187.385 49.0915 187.706 49.0915C188.986 49.0915 189.591 50.7674 188.595 51.5876C187.777 52.2651 186.283 51.7302 186.283 50.7674ZM50.1054 80.4347C51.315 79.6502 52.2043 78.6874 52.7023 77.7603C53.3427 76.4053 53.9474 76.0488 53.9474 76.9759C53.9474 77.689 55.7617 79.7572 57.1847 80.7199L58.572 81.6114L57.2202 82.6098C55.4415 83.9291 54.4455 85.0702 53.9474 86.3538L53.5561 87.3879L52.9158 85.9973C52.2043 84.464 51.2438 83.4299 49.4295 82.3602L48.2912 81.6827L50.1054 80.4347ZM166.254 88.208C165.97 88.4576 164.227 86.96 164.227 86.4608C164.227 85.9973 164.476 86.1042 165.507 87.067C166.041 87.5662 166.361 88.0654 166.254 88.208ZM168.318 88.2437C168.175 88.1367 168.531 87.6019 169.029 87.067C169.563 86.5678 170.096 86.2112 170.203 86.3539C170.31 86.4608 169.99 86.9957 169.456 87.4949C168.958 88.0298 168.424 88.3507 168.318 88.2437ZM165.543 91.4173C164.333 92.6653 163.978 92.3087 165.152 91.025C165.65 90.4902 166.183 90.1336 166.29 90.2762C166.397 90.3832 166.077 90.9181 165.543 91.4173ZM170.168 92.0947C169.883 92.38 168.14 90.8824 168.14 90.3832C168.14 89.9553 168.282 90.0266 169.421 90.9893C169.954 91.4529 170.31 91.9521 170.168 92.0947ZM76.1812 153.711C75.7898 153.533 75.6476 152.963 75.6476 151.572V149.646H110.901L110.688 153.747L93.7191 153.818C84.3632 153.854 76.4658 153.818 76.1812 153.711ZM142.705 153.64L125.095 153.747V149.646H160.314V153.569L142.705 153.64ZM192.081 153.854L174.543 153.925V149.646H209.797L209.584 153.747L192.081 153.854ZM216.805 173.644C217.659 173.323 219.331 171.719 219.544 171.077C219.722 170.506 220.007 170.649 221.608 172.218L223.457 174.072L222.319 174.892C221.679 175.32 220.896 176.176 220.576 176.782L220.007 177.887L219.366 176.853C219.011 176.283 218.193 175.356 217.552 174.821C216.77 174.179 216.485 173.787 216.805 173.644ZM25.844 45.5257V36.6113H34.7375V45.5257H25.844ZM39.3621 43.0297V38.7507H78.4935V43.0297H39.3621ZM25.844 58.3625V49.4481H34.7375V58.3625H25.844ZM39.3621 56.2231V51.9441H70.3115V56.2231H39.3621ZM185.571 142.158V73.3388H198.734V142.158H185.571ZM136.123 142.158V79.044H149.286V142.158H136.123ZM86.6755 142.158V92.9505H99.8379V142.158H86.6755ZM37.2277 142.158V105.431H50.39V142.158H37.2277ZM26.1997 153.747V149.646H61.418V153.747H26.1997ZM29.0456 160.7V156.778H58.572V160.7H29.0456ZM78.4935 160.7V156.778H108.02V160.7H78.4935ZM127.941 160.7V156.778H157.468V160.7H127.941ZM177.389 160.7V156.778H206.916V160.7H177.389Z" stroke="#3D3D50"/>
<path d="M198.307 85.712L198.378 97.586H185.927V85.8903C185.927 79.4362 186.034 74.0519 186.176 73.9093C186.318 73.8023 189.057 73.731 192.295 73.7667L198.2 73.8736L198.307 85.712Z" stroke="#3D3D50"/>
<path d="M148.574 79.7572V100.082H136.835V79.7572H148.574Z" stroke="#3D3D50"/>
<path d="M99.1264 109.353H93.8259C90.9088 109.353 88.2763 109.46 87.9562 109.567C87.4581 109.745 87.387 108.925 87.387 101.544V93.3071H99.1264V109.353Z" stroke="#3D3D50"/>
<path d="M49.9631 112.455C50.0343 118.981 50.0343 118.981 49.2517 119.159C48.7892 119.266 46.05 119.302 43.0974 119.266L37.7613 119.159L37.6545 112.919C37.619 109.496 37.6545 106.5 37.7613 106.251C37.868 105.859 39.2198 105.787 43.88 105.859L49.8564 105.966L49.9631 112.455Z" stroke="#3D3D50"/>
<path d="M166.148 3.44958C167.073 6.08825 167.108 12.0788 166.254 14.9314L165.614 16.9995H156.934L150.887 13.2911C146.724 10.6881 144.768 9.68969 144.59 9.97495C144.448 10.2246 144.305 11.9005 144.305 13.6834V16.9995H123.388L123.032 15.9298C122.819 15.3593 122.463 13.612 122.249 12.0788C121.787 9.01219 122.178 4.80458 123.103 2.55814L123.637 1.31011L144.554 1.38143L165.472 1.48841L166.148 3.44958Z" stroke="#3D3D50"/>
<path d="M34.0971 37.1461V44.6343L26.5555 44.8482V36.9322L34.0971 37.1461Z" stroke="#3D3D50"/>
<path d="M11.9346 7.58588C12.9662 8.86956 12.8595 9.72534 11.6144 11.009C10.725 11.8648 10.3337 12.0431 9.5511 11.8648C7.55895 11.3656 6.74075 9.11916 7.91469 7.44325C8.7329 6.26654 10.9741 6.33786 11.9346 7.58588Z" stroke="#3D3D50"/>
<path d="M19.9031 7.79983C21.6107 10.0819 18.5869 13.1128 16.3102 11.4013C15.1362 10.5455 14.8872 8.76258 15.7054 7.51456C16.5236 6.26654 18.8715 6.40917 19.9031 7.79983Z" stroke="#3D3D50"/>
<path d="M27.5871 7.58588C28.5832 8.86956 28.512 9.72534 27.3025 10.9734C26.0574 12.1857 25.2036 12.257 23.923 11.2586C22.8558 10.4028 22.6779 8.69127 23.5672 7.44325C24.3854 6.26654 26.6266 6.33786 27.5871 7.58588Z" stroke="#3D3D50"/>
<path fill-rule="evenodd" clip-rule="evenodd" d="M72.9795 172.646C76.11 173.466 77.9599 174.464 80.3077 176.639C84.3632 180.419 86.3909 186.516 85.2881 191.687C84.292 196.322 81.0548 200.78 77.1061 202.919C67.8568 207.911 56.6866 203.347 53.4138 193.22C52.9513 191.758 52.8446 190.474 52.9513 187.871C53.0936 184.841 53.2715 184.092 54.3387 181.738C57.7183 174.535 65.5445 170.72 72.9795 172.646ZM61.3112 185.126C61.3468 182.451 62.0227 180.312 63.2678 178.993C63.6947 178.529 64.2994 178.173 64.6196 178.173C65.4022 178.173 66.6118 179.492 67.2877 181.096C68.177 183.307 68.0347 183.735 65.9714 184.698L64.086 185.554L65.9714 186.231C68.0703 186.98 68.2482 187.515 67.2877 189.833C66.505 191.687 65.7224 192.436 64.584 192.436C62.6275 192.436 61.2757 189.476 61.3112 185.126ZM71.3075 190.332C69.7423 187.051 70.4538 180.169 72.5526 178.707C73.5487 177.994 73.94 178.03 75.0428 178.886C75.861 179.528 77.0705 182.238 77.0705 183.414C77.0705 183.664 76.2523 184.199 75.2207 184.662L73.3708 185.447L75.2562 186.267C77.1061 187.087 77.1417 187.158 76.9282 188.264C76.5725 189.975 75.5053 191.865 74.5803 192.329C73.3708 192.935 72.2325 192.257 71.3075 190.332Z" stroke="#3D3D50"/>
</svg>
