<svg width="249" height="238" viewBox="0 0 249 238" fill="none" xmlns="http://www.w3.org/2000/svg">
<path d="M146.432 0.88297C143.926 1.27217 139.549 2.54591 137.254 3.5366C134.607 4.7042 130.018 7.49936 130.018 7.9947C130.018 8.45467 132.454 12.0282 134.148 13.9742L135.737 15.8495L1 16.0264V155.077L5.05939 155.183C8.3775 155.254 9.18938 155.395 9.57767 155.855C9.96596 156.421 10.0013 156.421 10.0013 155.855C10.0013 155.289 11.0955 155.254 24.0503 155.254H38.0993L38.6994 157.164C39.9702 161.198 43.2177 164.771 47.2771 166.646C48.7596 167.354 49.5715 167.46 53.2426 167.46C57.3726 167.46 57.5491 167.425 59.7376 166.293C63.7264 164.205 66.5151 160.879 67.8917 156.563L68.3153 155.254H148.727V189.22C148.727 210.909 148.832 223.434 149.044 223.859C149.256 224.213 149.856 224.673 150.386 224.92C151.127 225.203 163.623 225.309 198.745 225.239L246.117 225.133L247.74 223.505V77.0953L246.929 76.2815C246.187 75.5385 245.764 75.4677 241.74 75.3616C237.892 75.2554 237.327 75.1493 237.327 74.6539C237.292 74.0878 237.257 74.1232 236.833 74.6539C236.409 75.2554 235.28 75.2908 222.36 75.2908H208.382L208.311 45.6409L208.205 16.0264L180.602 15.6725L179.19 13.9035C174.565 8.10085 167.682 3.64275 160.375 1.69675C158.116 1.09526 156.139 0.882969 152.433 0.812206C149.715 0.741442 147.032 0.776824 146.432 0.88297ZM158.61 1.90904C167.011 3.46584 175.624 9.19768 180.425 16.4509C181.872 18.68 181.837 18.8215 178.448 20.6968C172.659 23.9519 167.223 25.4025 160.905 25.4025C151.55 25.4025 142.832 21.829 136.301 15.3541C134.007 13.0897 130.724 8.84386 130.724 8.20699C130.724 8.03008 131.465 7.39321 132.418 6.79172C137.078 3.71351 142.232 1.94442 148.727 1.20141C150.597 0.989115 155.645 1.34293 158.61 1.90904ZM11.5897 22.3951C12.0839 22.855 12.4722 23.6688 12.4722 24.1642C12.4722 25.4379 10.9896 26.8178 9.64827 26.8178C7.42443 26.8178 6.33016 24.0226 7.95392 22.3243C8.97759 21.2275 10.4954 21.2629 11.5897 22.3951ZM19.3555 22.3951C19.8497 22.855 20.238 23.6688 20.238 24.1642C20.238 25.4379 18.7554 26.8178 17.4141 26.8178C15.1902 26.8178 14.096 24.0226 15.7197 22.3243C16.7434 21.2275 18.2612 21.2629 19.3555 22.3951ZM27.1213 22.3951C28.1803 23.4565 28.2509 24.6595 27.2625 25.8979C26.3447 27.0655 24.4739 27.1716 23.4149 26.1102C22.3559 25.0487 22.4618 23.1735 23.6267 22.2536C24.8622 21.2629 26.0623 21.3336 27.1213 22.3951ZM207.676 75.2908L178.907 75.3616C151.868 75.4677 150.139 75.5031 149.538 76.1046C148.938 76.7061 148.903 78.8997 148.727 115.732L148.55 154.723H68.4212L68.3506 152.282C68.2094 147.894 66.7269 144.568 63.5146 141.525C59.9847 138.164 55.4312 136.714 50.9129 137.492C43.2883 138.801 37.8875 145.276 37.8875 153.166V154.9L19.8144 154.829L1.70598 154.723L1.52949 32.4789H207.676V75.2908ZM246.646 76.7768C247.14 77.4845 247.211 85.0562 247.211 150.3C247.211 215.544 247.14 223.116 246.646 223.823L246.117 224.602H198.392C172.13 224.602 150.492 224.46 150.28 224.319C149.08 223.54 149.08 223.363 149.08 150.3C149.08 77.2368 149.08 77.0599 150.28 76.2815C150.492 76.14 172.13 75.9984 198.392 75.9984H246.117L246.646 76.7768ZM59.314 139.296C65.2796 142.056 68.7036 148.566 67.574 154.935C65.5267 166.576 51.76 171.246 43.2177 163.214C40.0761 160.278 38.5935 156.74 38.5935 152.282C38.6288 147.859 40.6408 143.755 44.1355 141.065C48.5478 137.633 54.3016 136.997 59.314 139.296Z" fill="#3D3D50"/>
<path d="M154.551 4.03194C151.55 6.01332 149.75 9.65764 149.503 14.2926C149.256 19.0338 150.809 22.4658 153.633 23.315C156.563 24.1995 160.199 21.5813 161.752 17.5478C162.105 16.5925 162.034 16.5217 159.634 15.1064C158.293 14.2926 157.234 13.585 157.304 13.5142C157.375 13.4435 158.646 13.1958 160.128 12.9835L162.846 12.5943V10.7899C162.846 8.1716 162.14 6.33175 160.516 4.63343C159.246 3.28892 158.893 3.11201 157.516 3.11201C156.386 3.11201 155.504 3.39507 154.551 4.03194Z" fill="#3D3D50"/>
<path d="M185.438 51.7619C184.308 52.9649 184.873 53.3895 186.002 52.2219C186.497 51.7266 186.779 51.2312 186.567 51.1251C186.391 50.9835 185.861 51.302 185.438 51.7619Z" fill="#3D3D50"/>
<path d="M181.908 52.1158C182.367 52.6111 182.896 53.0003 183.073 53.0003C183.284 53.0003 183.073 52.6111 182.614 52.1158C182.155 51.6204 181.625 51.2312 181.449 51.2312C181.237 51.2312 181.449 51.6204 181.908 52.1158Z" fill="#3D3D50"/>
<path d="M27.6508 51.9742C27.6508 53.0003 25.1799 55.9724 23.2384 57.2815L21.297 58.5906L22.8148 59.4752C24.721 60.6074 26.38 62.3765 27.2625 64.1455L27.9332 65.5608L28.3568 64.4994C28.9922 62.801 31.0748 60.5366 32.9456 59.4752L34.6753 58.5198L33.1927 57.6707C31.1454 56.5385 29.8746 55.2647 28.6745 53.1772C28.1097 52.1865 27.6508 51.6558 27.6508 51.9742Z" fill="#3D3D50"/>
<path d="M182.119 55.194C181.272 56.3969 181.449 56.7508 182.437 55.8308C182.931 55.3709 183.32 54.8755 183.32 54.6986C183.32 54.1325 182.649 54.4156 182.119 55.194Z" fill="#3D3D50"/>
<path d="M184.732 54.6632C184.732 54.8402 185.12 55.3709 185.614 55.8308C186.108 56.2908 186.497 56.5031 186.497 56.2908C186.497 56.1139 186.108 55.5832 185.614 55.1232C185.12 54.6632 184.732 54.451 184.732 54.6632Z" fill="#3D3D50"/>
<path d="M134.254 61.0673C134.254 61.5273 144.455 71.5403 144.702 71.2927C144.95 71.0804 134.995 60.7843 134.536 60.7843C134.36 60.7843 134.254 60.8904 134.254 61.0673Z" fill="#3D3D50"/>
<path d="M147.315 67.8606C147.315 69.9835 147.456 71.3988 147.668 71.3988C147.879 71.3988 148.021 69.9835 148.021 67.8606C148.021 65.7377 147.879 64.3225 147.668 64.3225C147.456 64.3225 147.315 65.7377 147.315 67.8606Z" fill="#3D3D50"/>
<path d="M101.038 69.3113C92.1069 70.6204 84.2705 77.3429 81.4466 86.0822C79.5051 92.0618 80.0346 98.7135 82.8938 104.481C89.7418 118.386 107.85 122.419 119.887 112.76C129.277 105.188 131.854 92.0264 126.029 81.5534C121.123 72.8141 110.992 67.8252 101.038 69.3113ZM111.839 70.6912C117.628 72.531 122.994 76.9891 125.676 82.1902C127.865 86.4361 128.394 88.5943 128.43 93.3355C128.43 98.1474 127.971 100.235 126.065 104.304C124.9 106.745 124.053 107.842 121.582 110.319C118.052 113.857 114.486 115.909 110.039 116.864C106.368 117.714 100.402 117.466 97.1899 116.369C88.3652 113.291 81.976 105.401 81.023 96.3429C80.2111 88.6651 82.5055 82.1902 87.9769 76.7061C91.4009 73.274 94.6131 71.4342 99.0255 70.302C102.555 69.382 108.344 69.559 111.839 70.6912Z" fill="#3D3D50"/>
<path d="M104.179 82.4379L104.073 90.6819L100.896 83.1809C99.1667 79.0413 97.5076 75.6446 97.2958 75.6446C97.0487 75.6446 96.8369 75.7861 96.8369 75.9631C96.8369 76.14 98.1783 79.5012 99.8374 83.3932C101.496 87.2852 102.838 90.6111 102.838 90.7526C102.838 90.8942 100.226 88.4174 97.0487 85.2331C93.2011 81.3765 91.1891 79.6074 91.0126 79.8904C90.8361 80.1735 92.7775 82.3672 96.5192 86.1176C99.6962 89.302 102.202 91.9202 102.097 91.9202C101.991 91.9202 98.6019 90.5757 94.5778 88.9128C87.871 86.153 86.6002 85.7992 86.6002 86.5776C86.6002 86.7191 89.9536 88.1698 94.0836 89.7973L101.567 92.8048L93.4482 92.9817C82.682 93.2294 82.682 93.7955 93.4835 94.0431L101.602 94.22L99.8374 95.0338C98.8843 95.4938 95.5662 96.909 92.5305 98.2182C89.3888 99.5273 86.9532 100.766 86.9532 101.013C86.9532 101.261 87.0591 101.473 87.165 101.473C87.2709 101.473 90.3419 100.235 93.9777 98.6781C97.5782 97.1567 100.861 95.8122 101.249 95.6707C101.638 95.5292 99.4138 97.9705 96.3075 101.084C92.001 105.436 90.7655 106.851 91.0832 107.17C91.4009 107.488 92.7776 106.321 97.0134 102.039C100.049 98.9612 102.626 96.5198 102.697 96.626C102.802 96.6968 101.602 99.9519 100.014 103.808C98.4607 107.665 97.2605 111.062 97.3664 111.345C97.7477 112.283 97.8227 112.095 102.037 101.534C102.114 101.341 102.193 101.143 102.273 100.943C104.285 95.9537 104.214 95.883 104.25 104.941C104.25 111.38 104.356 113.185 104.709 113.079C105.026 112.937 105.168 110.849 105.309 104.799L105.485 96.6968L108.627 104.127C110.356 108.231 111.768 111.592 111.804 111.628C111.839 111.663 112.051 111.592 112.298 111.416C112.58 111.239 111.874 109.222 109.721 104.092C108.062 100.235 106.721 96.909 106.721 96.6968C106.721 96.5199 109.262 98.8904 112.333 101.969C115.969 105.613 118.087 107.488 118.369 107.311C118.652 107.134 116.816 105.047 112.863 101.049C106.05 94.1847 105.591 94.5031 116.216 98.7843C119.393 100.058 122.111 101.119 122.288 101.119C122.464 101.119 122.605 100.907 122.605 100.66C122.605 100.447 119.499 98.9966 115.616 97.4398C111.804 95.9184 108.521 94.5385 108.309 94.3616C108.133 94.1847 111.415 94.0431 116.004 94.0431C122.888 94.0431 124.017 93.9724 124.017 93.5124C124.017 93.0524 122.852 92.9817 115.828 92.9463H107.603L109.192 92.2387C110.074 91.8495 113.427 90.3988 116.71 89.0189C120.452 87.4267 122.605 86.3299 122.605 86.0115C122.605 85.3444 122.536 85.3741 114.774 88.6936C114.714 88.7193 114.653 88.7452 114.592 88.7713C110.992 90.3281 107.956 91.531 107.886 91.4249C107.815 91.3541 110.215 88.7712 113.251 85.7284C117.381 81.6241 118.687 80.0673 118.405 79.7843C118.122 79.5012 116.499 80.8811 112.157 85.1977C105.485 91.8848 105.768 92.3448 110.039 81.7303C111.31 78.5459 112.369 75.8569 112.369 75.7861C112.369 75.68 112.121 75.6446 111.839 75.7154C111.486 75.7861 110.215 78.4752 108.38 83.0394L105.485 90.2927L105.379 82.261C105.309 75.5031 105.203 74.2293 104.779 74.2293C104.356 74.2293 104.25 75.5031 104.179 82.4379Z" fill="#3D3D50"/>
<path d="M137.784 74.2293C137.784 74.4416 139.266 74.5832 141.49 74.5832C143.714 74.5832 145.197 74.4416 145.197 74.2293C145.197 74.0171 143.714 73.8755 141.49 73.8755C139.266 73.8755 137.784 74.0171 137.784 74.2293Z" fill="#3D3D50"/>
<path d="M44.5943 104.587C44.5943 104.764 44.9826 105.259 45.4768 105.719C46.1475 106.356 46.3593 106.427 46.3593 106.002C46.3593 105.719 46.0769 105.224 45.7239 104.905C45.0179 104.233 44.5943 104.127 44.5943 104.587Z" fill="#3D3D50"/>
<path d="M48.8302 105.188C48.3713 105.684 48.0889 106.144 48.1948 106.25C48.2654 106.356 48.7243 106.038 49.1832 105.542C49.6421 105.047 49.9245 104.587 49.8186 104.481C49.748 104.375 49.2891 104.693 48.8302 105.188Z" fill="#3D3D50"/>
<path d="M45.3003 108.727C44.8414 109.222 44.6296 109.611 44.8414 109.611C45.0179 109.611 45.5474 109.222 46.0063 108.727C46.4652 108.231 46.677 107.842 46.4652 107.842C46.2887 107.842 45.7592 108.231 45.3003 108.727Z" fill="#3D3D50"/>
<path d="M48.1242 108.125C48.1242 108.479 49.2891 109.611 49.6774 109.611C49.9951 109.611 48.7243 107.877 48.4066 107.842C48.2301 107.842 48.1242 107.984 48.1242 108.125Z" fill="#3D3D50"/>
<path d="M171.918 93.1586C171.6 93.8309 170.683 94.7862 169.906 95.3169L168.494 96.2722L169.482 96.8737C170.541 97.5459 172.377 99.5627 172.377 100.093C172.377 100.766 172.942 100.376 173.542 99.2443C173.895 98.6074 174.813 97.6521 175.589 97.1567L177.001 96.2368L175.766 95.5292C175.095 95.14 174.107 94.1493 173.577 93.3709C173.048 92.5571 172.624 91.9202 172.589 91.9202C172.553 91.9202 172.236 92.4863 171.918 93.1586Z" fill="#3D3D50"/>
<path d="M229.914 116.157C230.373 116.652 230.903 117.041 231.079 117.041C231.291 117.041 231.079 116.652 230.62 116.157C230.161 115.661 229.632 115.272 229.456 115.272C229.244 115.272 229.456 115.661 229.914 116.157Z" fill="#3D3D50"/>
<path d="M233.444 116.157C232.985 116.652 232.774 117.041 232.985 117.041C233.409 117.041 234.68 115.697 234.433 115.449C234.362 115.343 233.903 115.661 233.444 116.157Z" fill="#3D3D50"/>
<path d="M229.914 119.695C229.456 120.19 229.244 120.579 229.456 120.579C229.632 120.579 230.161 120.19 230.62 119.695C231.079 119.2 231.291 118.81 231.079 118.81C230.903 118.81 230.373 119.2 229.914 119.695Z" fill="#3D3D50"/>
<path d="M233.444 119.695C233.903 120.19 234.362 120.509 234.433 120.403C234.68 120.155 233.409 118.81 232.985 118.81C232.774 118.81 232.985 119.2 233.444 119.695Z" fill="#3D3D50"/>
<path d="M194.968 121.606C192.286 122.455 189.532 124.861 188.226 127.585C187.591 128.859 187.414 129.885 187.414 132.079C187.379 135.44 188.12 137.35 190.344 139.792C192.462 142.092 194.827 143.047 198.322 143.011C201.71 143.011 203.581 142.268 205.805 140.11C208.064 137.917 208.841 136.112 209.017 132.715C209.159 130.062 209.088 129.637 208.1 127.55C206.899 124.931 204.676 122.844 202.099 121.924C200.369 121.287 196.557 121.146 194.968 121.606ZM201.958 122.384C203.37 122.879 203.37 123.198 202.028 123.764C199.663 124.754 197.122 128.611 197.545 130.699C197.792 132.043 196.663 131.76 195.215 130.168C193.909 128.717 193.415 127.231 193.38 124.578C193.38 122.808 193.45 122.738 195.568 122.136C197.369 121.606 200.122 121.747 201.958 122.384ZM206.617 131.548C208.417 132.468 208.558 132.609 208.453 133.671C208.417 134.343 208.029 135.581 207.641 136.466C206.511 139.049 203.158 142.092 203.687 140.075C203.793 139.721 203.617 138.412 203.299 137.173C202.84 135.404 202.416 134.626 201.393 133.635C200.651 132.928 199.804 132.291 199.522 132.185C198.745 131.902 199.91 130.84 201.357 130.486C202.981 130.133 204.323 130.416 206.617 131.548ZM190.203 133.635C192.497 134.732 195.11 134.803 196.804 133.777C198.039 133.034 198.075 133.034 198.251 133.706C198.498 134.661 197.933 136.607 197.016 137.74C196.027 139.013 193.592 140.747 192.815 140.747C191.756 140.747 190.132 139.049 189.003 136.784C188.014 134.803 187.52 132.362 188.191 132.68C188.332 132.751 189.215 133.211 190.203 133.635Z" fill="#3D3D50"/>
<path d="M156.139 162.33L240.328 162.153L240.539 154.9H156.139V162.33ZM158.046 156.032C157.904 156.492 157.516 157.483 157.163 158.261L156.528 159.676V157.447C156.492 155.324 156.528 155.254 157.41 155.254C158.187 155.254 158.257 155.36 158.046 156.032ZM167.612 155.997C167.47 156.386 167.011 157.801 166.588 159.075L165.776 161.445L161.117 161.658L162.176 158.438L163.27 155.254H165.564C167.717 155.254 167.823 155.289 167.612 155.997ZM177.284 155.678C177.284 155.926 176.86 157.341 176.33 158.792L175.377 161.445L173.189 161.552C171.777 161.622 170.965 161.516 170.965 161.268C170.965 161.056 171.389 159.641 171.918 158.084L172.871 155.254H175.095C176.648 155.254 177.319 155.395 177.284 155.678ZM186.85 155.678C186.85 155.926 186.426 157.341 185.896 158.863L184.908 161.622H182.684C181.061 161.622 180.46 161.516 180.566 161.162C180.637 160.95 181.061 159.499 181.519 157.978L182.367 155.254H184.59C186.144 155.254 186.85 155.395 186.85 155.678ZM195.604 158.438L194.545 161.622H192.286C191.05 161.622 190.026 161.516 190.026 161.41C190.026 161.268 190.415 160.03 190.909 158.65C191.403 157.27 191.897 155.926 191.968 155.678C192.074 155.395 192.886 155.254 194.404 155.254H196.698L195.604 158.438ZM206.088 155.997C205.946 156.386 205.487 157.801 205.064 159.075L204.252 161.445L201.922 161.552C200.616 161.622 199.557 161.587 199.557 161.516C199.557 161.375 201.146 156.74 201.499 155.855C201.71 155.36 202.205 155.254 204.04 155.254C206.193 155.254 206.299 155.289 206.088 155.997ZM239.798 161.622H209.123L210.218 158.438L211.277 155.254H239.798V161.622Z" fill="#3D3D50"/>
<path d="M175.907 183.559H220.737V180.728H175.907V183.559Z" fill="#3D3D50"/>
<path d="M180.849 189.22H215.442V186.036H180.849V189.22Z" fill="#3D3D50"/>
<path d="M162.14 208.609C162.14 209.069 163.87 210.591 164.117 210.378C164.223 210.272 163.87 209.741 163.376 209.246C162.423 208.291 162.14 208.149 162.14 208.609Z" fill="#3D3D50"/>
<path d="M166.376 209.211C165.917 209.706 165.635 210.166 165.741 210.272C165.811 210.378 166.27 210.06 166.729 209.565C167.188 209.069 167.47 208.609 167.364 208.503C167.294 208.397 166.835 208.715 166.376 209.211Z" fill="#3D3D50"/>
<path d="M162.846 212.749C162.387 213.244 162.176 213.633 162.387 213.633C162.564 213.633 163.093 213.244 163.552 212.749C164.011 212.254 164.223 211.864 164.011 211.864C163.835 211.864 163.305 212.254 162.846 212.749Z" fill="#3D3D50"/>
<path d="M165.67 212.147C165.67 212.572 167.047 213.775 167.259 213.598C167.47 213.35 166.411 211.864 165.988 211.864C165.811 211.864 165.67 212.006 165.67 212.147Z" fill="#3D3D50"/>
<path d="M47.7713 143.931C46.9947 144.71 46.6064 145.594 46.2181 147.328C46.0063 148.354 46.0416 148.425 47.4183 148.885C48.2301 149.133 48.9361 149.486 49.042 149.628C49.1126 149.769 48.4772 150.229 47.5595 150.619C46.324 151.185 46.0063 151.503 46.1475 151.963C46.2534 152.317 46.4299 153.025 46.5358 153.52C46.677 154.051 47.2418 154.9 47.8066 155.466C48.689 156.315 48.9361 156.386 49.6774 156.032C51.0188 155.43 51.76 153.626 51.9365 150.654C52.113 147.54 51.5835 145.241 50.4187 144.073C49.395 143.047 48.689 143.011 47.7713 143.931Z" fill="#3D3D50"/>
<path d="M55.9606 144.002C55.1135 144.957 54.4781 146.479 54.4781 147.646C54.4781 148.248 54.7958 148.602 55.89 149.026C56.6666 149.345 57.302 149.663 57.302 149.769C57.302 149.876 56.6666 150.194 55.89 150.512C54.7958 150.972 54.4781 151.255 54.4781 151.928C54.4781 153.272 55.3959 155.147 56.3489 155.784C59.9141 158.119 61.785 147.54 58.4669 143.861C57.6903 143.011 56.8784 143.047 55.9606 144.002Z" fill="#3D3D50"/>
<path d="M10.0013 197.782C10.0013 198.313 10.919 202.028 12.2251 206.734C13.0723 209.918 13.4606 211.298 17.2376 225.486C20.1321 236.419 20.238 236.632 22.603 236.632C23.9797 236.632 24.1915 236.419 28.145 231.041C30.0511 228.494 31.7102 226.371 31.8161 226.371C31.9573 226.371 34.3576 228.671 37.1815 231.501L42.3352 236.667L43.8884 235.146C44.7355 234.296 46.2181 232.775 47.1712 231.749L48.9361 229.909L45.7945 226.76C44.0649 225.026 41.7351 222.656 40.5702 221.488L38.4876 219.365L42.6882 216.287C48.4419 212.041 48.8302 211.652 48.8302 210.095C48.8302 208.291 47.8066 207.512 44.2413 206.592C42.5823 206.133 39.5819 205.354 37.5345 204.788C33.7222 203.727 29.6275 202.63 17.9435 199.481C14.2724 198.49 10.9543 197.606 10.6366 197.499C10.2484 197.393 10.0013 197.499 10.0013 197.782Z" fill="#3D3D50"/>
<path d="M65.5267 205.673C64.0794 206.699 64.1853 209.14 65.7385 210.343C67.0445 211.334 69.3743 210.52 70.0097 208.822C70.3979 207.795 69.8332 205.956 68.9507 205.496C67.9976 204.965 66.4092 205.071 65.5267 205.673Z" fill="#3D3D50"/>
<path d="M59.067 209.388C58.2551 210.201 58.1845 211.192 58.7493 212.324C59.314 213.386 59.7376 213.633 61.079 213.633C62.2792 213.633 63.6558 212.324 63.6558 211.157C63.6558 210.803 63.3381 210.131 62.9145 209.6C61.9968 208.432 60.1259 208.326 59.067 209.388Z" fill="#3D3D50"/>
<path d="M74.4926 214.129C74.2102 214.836 75.1986 215.65 75.7281 215.12C76.2223 214.624 75.834 213.633 75.1633 213.633C74.9162 213.633 74.5985 213.846 74.4926 214.129Z" fill="#3D3D50"/>
<path d="M57.655 215.756C57.2667 216.146 56.949 216.853 56.949 217.313C56.949 218.268 58.4316 219.648 59.4552 219.648C60.4436 219.648 61.5379 218.375 61.5379 217.242C61.5379 215.226 59.1023 214.306 57.655 215.756Z" fill="#3D3D50"/>
<path d="M74.3161 217.596C73.3631 218.552 74.4926 220.179 75.6575 219.471C76.2223 219.118 76.0811 217.632 75.4457 217.384C74.7397 217.101 74.8103 217.101 74.3161 217.596Z" fill="#3D3D50"/>
<path d="M60.5848 221.276C60.0553 222.125 60.0553 222.302 60.5142 223.151C61.2202 224.425 63.0204 224.602 63.797 223.47C64.5383 222.444 64.503 221.665 63.7264 220.958C62.7381 220.038 61.2908 220.214 60.5848 221.276Z" fill="#3D3D50"/>
<path d="M71.4216 221.241C70.5038 222.373 71.8805 224.106 73.116 223.328C74.3161 222.55 73.8926 220.71 72.4806 220.71C72.1276 220.71 71.6687 220.958 71.4216 221.241Z" fill="#3D3D50"/>
<path d="M66.6916 222.691C65.562 223.788 66.1974 225.663 67.7152 225.663C68.7389 225.663 69.3037 224.991 69.3037 223.823C69.3037 222.337 67.7152 221.63 66.6916 222.691Z" fill="#3D3D50"/>
<path fill-rule="evenodd" clip-rule="evenodd" d="M207.676 75.2908L178.907 75.3616C151.868 75.4677 150.139 75.5031 149.538 76.1046C148.938 76.7061 148.903 78.8997 148.727 115.732L148.55 154.723H68.4212L68.3506 152.282C68.2094 147.894 66.7269 144.568 63.5146 141.525C59.9847 138.164 55.4312 136.714 50.9129 137.492C43.2883 138.801 37.8875 145.276 37.8875 153.166V154.9L19.8144 154.829L1.70598 154.723L1.52949 32.4789H207.676V75.2908ZM186.002 52.2219C184.873 53.3895 184.308 52.9649 185.438 51.7619C185.861 51.302 186.391 50.9835 186.567 51.1251C186.779 51.2312 186.497 51.7266 186.002 52.2219ZM183.073 53.0003C182.896 53.0003 182.367 52.6111 181.908 52.1158C181.449 51.6204 181.237 51.2312 181.449 51.2312C181.625 51.2312 182.155 51.6204 182.614 52.1158C183.073 52.6111 183.284 53.0003 183.073 53.0003ZM23.2384 57.2815C25.1799 55.9724 27.6508 53.0003 27.6508 51.9742C27.6508 51.6558 28.1097 52.1865 28.6745 53.1772C29.8746 55.2647 31.1454 56.5385 33.1927 57.6707L34.6753 58.5198L32.9456 59.4752C31.0748 60.5366 28.9922 62.801 28.3568 64.4994L27.9332 65.5608L27.2625 64.1455C26.38 62.3765 24.721 60.6074 22.8148 59.4752L21.297 58.5906L23.2384 57.2815ZM182.437 55.8308C181.449 56.7508 181.272 56.3969 182.119 55.194C182.649 54.4156 183.32 54.1325 183.32 54.6986C183.32 54.8755 182.931 55.3709 182.437 55.8308ZM185.614 55.8308C185.12 55.3709 184.732 54.8402 184.732 54.6632C184.732 54.451 185.12 54.6632 185.614 55.1232C186.108 55.5832 186.497 56.1139 186.497 56.2908C186.497 56.5031 186.108 56.2908 185.614 55.8308ZM144.702 71.2927C144.455 71.5403 134.254 61.5273 134.254 61.0673C134.254 60.8904 134.36 60.7843 134.536 60.7843C134.995 60.7843 144.95 71.0804 144.702 71.2927ZM147.668 71.3988C147.456 71.3988 147.315 69.9835 147.315 67.8606C147.315 65.7377 147.456 64.3225 147.668 64.3225C147.879 64.3225 148.021 65.7377 148.021 67.8606C148.021 69.9835 147.879 71.3988 147.668 71.3988ZM81.4466 86.0822C84.2705 77.3429 92.1069 70.6204 101.038 69.3113C110.992 67.8252 121.123 72.8141 126.029 81.5534C131.854 92.0264 129.277 105.188 119.887 112.76C107.85 122.419 89.7418 118.386 82.8938 104.481C80.0346 98.7135 79.5051 92.0618 81.4466 86.0822ZM141.49 74.5832C139.266 74.5832 137.784 74.4416 137.784 74.2293C137.784 74.0171 139.266 73.8755 141.49 73.8755C143.714 73.8755 145.197 74.0171 145.197 74.2293C145.197 74.4416 143.714 74.5832 141.49 74.5832ZM45.4768 105.719C44.9826 105.259 44.5943 104.764 44.5943 104.587C44.5943 104.127 45.0179 104.233 45.7239 104.905C46.0769 105.224 46.3593 105.719 46.3593 106.002C46.3593 106.427 46.1475 106.356 45.4768 105.719ZM48.1948 106.25C48.0889 106.144 48.3713 105.684 48.8302 105.188C49.2891 104.693 49.748 104.375 49.8186 104.481C49.9245 104.587 49.6421 105.047 49.1832 105.542C48.7243 106.038 48.2654 106.356 48.1948 106.25ZM44.8414 109.611C44.6296 109.611 44.8414 109.222 45.3003 108.727C45.7592 108.231 46.2887 107.842 46.4652 107.842C46.677 107.842 46.4652 108.231 46.0063 108.727C45.5474 109.222 45.0179 109.611 44.8414 109.611ZM49.6774 109.611C49.2891 109.611 48.1242 108.479 48.1242 108.125C48.1242 107.984 48.2301 107.842 48.4066 107.842C48.7243 107.877 49.9951 109.611 49.6774 109.611Z" fill="#EE786B"/>
<path fill-rule="evenodd" clip-rule="evenodd" d="M246.646 76.7768C247.14 77.4845 247.211 85.0562 247.211 150.3C247.211 215.544 247.14 223.116 246.646 223.823L246.117 224.602H198.392C172.13 224.602 150.492 224.46 150.28 224.319C149.08 223.54 149.08 223.363 149.08 150.3C149.08 77.2368 149.08 77.0599 150.28 76.2815C150.492 76.14 172.13 75.9984 198.392 75.9984H246.117L246.646 76.7768ZM169.906 95.3169C170.683 94.7862 171.6 93.8309 171.918 93.1586C172.236 92.4863 172.553 91.9202 172.589 91.9202C172.624 91.9202 173.048 92.5571 173.577 93.3709C174.107 94.1493 175.095 95.14 175.766 95.5292L177.001 96.2368L175.589 97.1567C174.813 97.6521 173.895 98.6074 173.542 99.2443C172.942 100.376 172.377 100.766 172.377 100.093C172.377 99.5627 170.541 97.5459 169.482 96.8737L168.494 96.2722L169.906 95.3169ZM231.079 117.041C230.903 117.041 230.373 116.652 229.914 116.157C229.456 115.661 229.244 115.272 229.456 115.272C229.632 115.272 230.161 115.661 230.62 116.157C231.079 116.652 231.291 117.041 231.079 117.041ZM232.985 117.041C232.774 117.041 232.985 116.652 233.444 116.157C233.903 115.661 234.362 115.343 234.433 115.449C234.68 115.697 233.409 117.041 232.985 117.041ZM229.456 120.579C229.244 120.579 229.456 120.19 229.914 119.695C230.373 119.2 230.903 118.81 231.079 118.81C231.291 118.81 231.079 119.2 230.62 119.695C230.161 120.19 229.632 120.579 229.456 120.579ZM234.433 120.403C234.362 120.509 233.903 120.19 233.444 119.695C232.985 119.2 232.774 118.81 232.985 118.81C233.409 118.81 234.68 120.155 234.433 120.403ZM188.226 127.585C189.532 124.861 192.286 122.455 194.968 121.606C196.557 121.146 200.369 121.287 202.099 121.924C204.676 122.844 206.899 124.931 208.1 127.55C209.088 129.637 209.159 130.062 209.017 132.715C208.841 136.112 208.064 137.917 205.805 140.11C203.581 142.268 201.71 143.011 198.322 143.011C194.827 143.047 192.462 142.092 190.344 139.792C188.12 137.35 187.379 135.44 187.414 132.079C187.414 129.885 187.591 128.859 188.226 127.585ZM164.117 210.378C163.87 210.591 162.14 209.069 162.14 208.609C162.14 208.149 162.423 208.291 163.376 209.246C163.87 209.741 164.223 210.272 164.117 210.378ZM165.741 210.272C165.635 210.166 165.917 209.706 166.376 209.211C166.835 208.715 167.294 208.397 167.364 208.503C167.47 208.609 167.188 209.069 166.729 209.565C166.27 210.06 165.811 210.378 165.741 210.272ZM162.387 213.633C162.176 213.633 162.387 213.244 162.846 212.749C163.305 212.254 163.835 211.864 164.011 211.864C164.223 211.864 164.011 212.254 163.552 212.749C163.093 213.244 162.564 213.633 162.387 213.633ZM167.259 213.598C167.047 213.775 165.67 212.572 165.67 212.147C165.67 212.006 165.811 211.864 165.988 211.864C166.411 211.864 167.47 213.35 167.259 213.598ZM156.139 162.33V154.9H240.539L240.328 162.153L156.139 162.33ZM175.907 183.559V180.728H220.737V183.559H175.907ZM180.849 189.22V186.036H215.442V189.22H180.849Z" fill="white"/>
<path fill-rule="evenodd" clip-rule="evenodd" d="M158.61 1.90904C167.011 3.46584 175.624 9.19768 180.425 16.4509C181.872 18.68 181.837 18.8215 178.448 20.6968C172.659 23.9519 167.223 25.4025 160.905 25.4025C151.55 25.4025 142.832 21.829 136.301 15.3541C134.007 13.0897 130.724 8.84386 130.724 8.20699C130.724 8.03008 131.465 7.39321 132.418 6.79172C137.078 3.71351 142.232 1.94442 148.727 1.20141C150.597 0.989115 155.645 1.34293 158.61 1.90904ZM149.503 14.2926C149.75 9.65764 151.55 6.01332 154.551 4.03194C155.504 3.39507 156.386 3.11201 157.516 3.11201C158.893 3.11201 159.246 3.28892 160.516 4.63343C162.14 6.33175 162.846 8.1716 162.846 10.7899V12.5943L160.128 12.9835C158.646 13.1958 157.375 13.4435 157.304 13.5142C157.234 13.585 158.293 14.2926 159.634 15.1064C162.034 16.5217 162.105 16.5925 161.752 17.5478C160.199 21.5813 156.563 24.1995 153.633 23.315C150.809 22.4658 149.256 19.0338 149.503 14.2926Z" fill="white"/>
<path fill-rule="evenodd" clip-rule="evenodd" d="M111.839 70.6912C117.628 72.531 122.994 76.9891 125.676 82.1902C127.865 86.4361 128.394 88.5943 128.43 93.3355C128.43 98.1474 127.971 100.235 126.065 104.304C124.9 106.745 124.053 107.842 121.582 110.319C118.052 113.857 114.486 115.909 110.039 116.864C106.368 117.714 100.402 117.466 97.1899 116.369C88.3652 113.291 81.976 105.401 81.023 96.3429C80.2111 88.6651 82.5055 82.1902 87.9769 76.7061C91.4009 73.274 94.6131 71.4342 99.0255 70.302C102.555 69.382 108.344 69.559 111.839 70.6912ZM104.073 90.6819L104.179 82.4379C104.25 75.5031 104.356 74.2293 104.779 74.2293C105.203 74.2293 105.309 75.5031 105.379 82.261L105.485 90.2927L108.38 83.0394C110.215 78.4752 111.486 75.7861 111.839 75.7154C112.121 75.6446 112.369 75.68 112.369 75.7861C112.369 75.8569 111.31 78.5459 110.039 81.7303C105.768 92.3448 105.485 91.8848 112.157 85.1977C116.499 80.8811 118.122 79.5012 118.405 79.7843C118.687 80.0673 117.381 81.6241 113.251 85.7284C110.215 88.7712 107.815 91.3541 107.886 91.4249C107.956 91.531 110.992 90.3281 114.592 88.7713L114.774 88.6936C122.536 85.3741 122.605 85.3444 122.605 86.0115C122.605 86.3299 120.452 87.4267 116.71 89.0189C113.427 90.3988 110.074 91.8495 109.192 92.2387L107.603 92.9463H115.828C122.852 92.9817 124.017 93.0524 124.017 93.5124C124.017 93.9724 122.888 94.0431 116.004 94.0431C111.415 94.0431 108.133 94.1847 108.309 94.3616C108.521 94.5385 111.804 95.9184 115.616 97.4398C119.499 98.9966 122.605 100.447 122.605 100.66C122.605 100.907 122.464 101.119 122.288 101.119C122.111 101.119 119.393 100.058 116.216 98.7843C105.591 94.5031 106.05 94.1847 112.863 101.049C116.816 105.047 118.652 107.134 118.369 107.311C118.087 107.488 115.969 105.613 112.333 101.969C109.262 98.8904 106.721 96.5199 106.721 96.6968C106.721 96.909 108.062 100.235 109.721 104.092C111.874 109.222 112.58 111.239 112.298 111.416C112.051 111.592 111.839 111.663 111.804 111.628C111.768 111.592 110.356 108.231 108.627 104.127L105.485 96.6968L105.309 104.799C105.168 110.849 105.026 112.937 104.709 113.079C104.356 113.185 104.25 111.38 104.25 104.941C104.214 95.883 104.285 95.9537 102.273 100.943L102.037 101.534C97.8227 112.095 97.7477 112.283 97.3664 111.345C97.2605 111.062 98.4607 107.665 100.014 103.808C101.602 99.9519 102.802 96.6968 102.697 96.626C102.626 96.5198 100.049 98.9612 97.0134 102.039C92.7776 106.321 91.4009 107.488 91.0832 107.17C90.7655 106.851 92.001 105.436 96.3075 101.084C99.4138 97.9705 101.638 95.5292 101.249 95.6707C100.861 95.8122 97.5782 97.1567 93.9777 98.6781C90.3419 100.235 87.2709 101.473 87.165 101.473C87.0591 101.473 86.9532 101.261 86.9532 101.013C86.9532 100.766 89.3888 99.5273 92.5305 98.2182C95.5662 96.909 98.8843 95.4938 99.8374 95.0338L101.602 94.22L93.4835 94.0431C82.682 93.7955 82.682 93.2294 93.4482 92.9817L101.567 92.8048L94.0836 89.7973C89.9536 88.1698 86.6002 86.7191 86.6002 86.5776C86.6002 85.7992 87.871 86.153 94.5778 88.9128C98.6019 90.5757 101.991 91.9202 102.097 91.9202C102.202 91.9202 99.6962 89.302 96.5192 86.1176C92.7775 82.3672 90.8361 80.1735 91.0126 79.8904C91.1891 79.6074 93.2011 81.3765 97.0487 85.2331C100.226 88.4174 102.838 90.8942 102.838 90.7526C102.838 90.6111 101.496 87.2852 99.8374 83.3932C98.1783 79.5012 96.8369 76.14 96.8369 75.9631C96.8369 75.7861 97.0487 75.6446 97.2958 75.6446C97.5076 75.6446 99.1667 79.0413 100.896 83.1809L104.073 90.6819Z" fill="white"/>
<path fill-rule="evenodd" clip-rule="evenodd" d="M59.314 139.296C65.2796 142.056 68.7036 148.566 67.574 154.935C65.5267 166.576 51.76 171.246 43.2177 163.214C40.0761 160.278 38.5935 156.74 38.5935 152.282C38.6288 147.859 40.6408 143.755 44.1355 141.065C48.5478 137.633 54.3016 136.997 59.314 139.296ZM46.2181 147.328C46.6064 145.594 46.9947 144.71 47.7713 143.931C48.689 143.011 49.395 143.047 50.4187 144.073C51.5835 145.241 52.113 147.54 51.9365 150.654C51.76 153.626 51.0188 155.43 49.6774 156.032C48.9361 156.386 48.689 156.315 47.8066 155.466C47.2418 154.9 46.677 154.051 46.5358 153.52C46.4299 153.025 46.2534 152.317 46.1475 151.963C46.0063 151.503 46.324 151.185 47.5595 150.619C48.4772 150.229 49.1126 149.769 49.042 149.628C48.9361 149.486 48.2301 149.133 47.4183 148.885C46.0416 148.425 46.0063 148.354 46.2181 147.328ZM54.4781 147.646C54.4781 146.479 55.1135 144.957 55.9606 144.002C56.8784 143.047 57.6903 143.011 58.4669 143.861C61.785 147.54 59.9141 158.119 56.3489 155.784C55.3959 155.147 54.4781 153.272 54.4781 151.928C54.4781 151.255 54.7958 150.972 55.89 150.512C56.6666 150.194 57.302 149.876 57.302 149.769C57.302 149.663 56.6666 149.345 55.89 149.026C54.7958 148.602 54.4781 148.248 54.4781 147.646Z" fill="white"/>
<path d="M201.958 122.384C203.37 122.879 203.37 123.198 202.028 123.764C199.663 124.754 197.122 128.611 197.545 130.699C197.792 132.043 196.663 131.76 195.215 130.168C193.909 128.717 193.415 127.231 193.38 124.578C193.38 122.808 193.45 122.738 195.568 122.136C197.369 121.606 200.122 121.747 201.958 122.384Z" fill="#F2EECF"/>
<path d="M190.203 133.635C192.497 134.732 195.11 134.803 196.804 133.777C198.039 133.034 198.075 133.034 198.251 133.706C198.498 134.661 197.933 136.607 197.016 137.74C196.027 139.013 193.592 140.747 192.815 140.747C191.756 140.747 190.132 139.049 189.003 136.784C188.014 134.803 187.52 132.362 188.191 132.68C188.332 132.751 189.215 133.211 190.203 133.635Z" fill="#F2EECF"/>
<path d="M206.617 131.548C208.417 132.468 208.558 132.609 208.453 133.671C208.417 134.343 208.029 135.581 207.641 136.466C206.511 139.049 203.158 142.092 203.687 140.075C203.793 139.721 203.617 138.412 203.299 137.173C202.84 135.404 202.416 134.626 201.393 133.635C200.651 132.928 199.804 132.291 199.522 132.185C198.745 131.902 199.91 130.84 201.357 130.486C202.981 130.133 204.323 130.416 206.617 131.548Z" fill="#F2EECF"/>
<path d="M209.123 161.622L210.218 158.438L211.277 155.254H239.798V161.622H209.123Z" fill="#F2EECF"/>
<path d="M206.088 155.997C205.946 156.386 205.487 157.801 205.064 159.075L204.252 161.445L201.922 161.552C200.616 161.622 199.557 161.587 199.557 161.516C199.557 161.375 201.146 156.74 201.499 155.855C201.71 155.36 202.205 155.254 204.04 155.254C206.193 155.254 206.299 155.289 206.088 155.997Z" fill="#F2EECF"/>
<path d="M195.604 158.438L194.545 161.622H192.286C191.05 161.622 190.026 161.516 190.026 161.41C190.026 161.268 190.415 160.03 190.909 158.65C191.403 157.27 191.897 155.926 191.968 155.678C192.074 155.395 192.886 155.254 194.404 155.254H196.698L195.604 158.438Z" fill="#F2EECF"/>
<path d="M186.85 155.678C186.85 155.926 186.426 157.341 185.896 158.863L184.908 161.622H182.684C181.061 161.622 180.46 161.516 180.566 161.162C180.637 160.95 181.061 159.499 181.519 157.978L182.367 155.254H184.59C186.144 155.254 186.85 155.395 186.85 155.678Z" fill="#F2EECF"/>
<path d="M177.284 155.678C177.284 155.926 176.86 157.341 176.33 158.792L175.377 161.445L173.189 161.552C171.777 161.622 170.965 161.516 170.965 161.268C170.965 161.056 171.389 159.641 171.918 158.084L172.871 155.254H175.095C176.648 155.254 177.319 155.395 177.284 155.678Z" fill="#F2EECF"/>
<path d="M167.612 155.997C167.47 156.386 167.011 157.801 166.588 159.075L165.776 161.445L161.117 161.658L162.176 158.438L163.27 155.254H165.564C167.717 155.254 167.823 155.289 167.612 155.997Z" fill="#F2EECF"/>
<path d="M158.046 156.032C157.904 156.492 157.516 157.483 157.163 158.261L156.528 159.676V157.447C156.492 155.324 156.528 155.254 157.41 155.254C158.187 155.254 158.257 155.36 158.046 156.032Z" fill="#F2EECF"/>
<path d="M27.1213 22.3951C28.1803 23.4565 28.2509 24.6595 27.2625 25.8979C26.3447 27.0655 24.4739 27.1716 23.4149 26.1102C22.3559 25.0487 22.4618 23.1735 23.6267 22.2536C24.8622 21.2629 26.0623 21.3336 27.1213 22.3951Z" fill="white"/>
<path d="M19.3555 22.3951C19.8497 22.855 20.238 23.6688 20.238 24.1642C20.238 25.4379 18.7554 26.8178 17.4141 26.8178C15.1902 26.8178 14.096 24.0226 15.7197 22.3243C16.7434 21.2275 18.2612 21.2629 19.3555 22.3951Z" fill="white"/>
<path d="M11.5897 22.3951C12.0839 22.855 12.4722 23.6688 12.4722 24.1642C12.4722 25.4379 10.9896 26.8178 9.64827 26.8178C7.42443 26.8178 6.33016 24.0226 7.95392 22.3243C8.97759 21.2275 10.4954 21.2629 11.5897 22.3951Z" fill="white"/>
<path d="M102.273 100.943C104.285 95.9537 104.214 95.883 104.25 104.941C104.25 111.38 104.356 113.185 104.709 113.079C105.026 112.937 105.168 110.849 105.309 104.799L105.485 96.6968L108.627 104.127C110.356 108.231 111.768 111.592 111.804 111.628C111.839 111.663 112.051 111.592 112.298 111.416C112.58 111.239 111.874 109.222 109.721 104.092C108.062 100.235 106.721 96.9091 106.721 96.6968C106.721 96.5199 109.262 98.8904 112.333 101.969C115.969 105.613 118.087 107.488 118.369 107.311C118.652 107.134 116.816 105.047 112.863 101.049C106.05 94.1847 105.591 94.5031 116.216 98.7843C119.393 100.058 122.111 101.119 122.288 101.119C122.464 101.119 122.605 100.907 122.605 100.66C122.605 100.447 119.499 98.9966 115.616 97.4398C111.804 95.9184 108.521 94.5385 108.309 94.3616C108.133 94.1847 111.415 94.0431 116.004 94.0431C122.888 94.0431 124.017 93.9724 124.017 93.5124C124.017 93.0524 122.852 92.9817 115.828 92.9463H107.603L109.192 92.2387C110.074 91.8495 113.427 90.3988 116.71 89.0189C120.452 87.4267 122.605 86.3299 122.605 86.0115C122.605 85.3444 122.536 85.3741 114.774 88.6936M102.273 100.943L102.037 101.534M102.273 100.943C102.193 101.143 102.114 101.341 102.037 101.534M114.592 88.7713C110.992 90.3281 107.956 91.531 107.886 91.4249C107.815 91.3541 110.215 88.7712 113.251 85.7284C117.381 81.6241 118.687 80.0673 118.405 79.7843C118.122 79.5012 116.499 80.8811 112.157 85.1977C105.485 91.8848 105.768 92.3448 110.039 81.7303C111.31 78.5459 112.369 75.8569 112.369 75.7861C112.369 75.68 112.121 75.6446 111.839 75.7154C111.486 75.7861 110.215 78.4752 108.38 83.0394L105.485 90.2927L105.379 82.261C105.309 75.5031 105.203 74.2293 104.779 74.2293C104.356 74.2293 104.25 75.5031 104.179 82.4379L104.073 90.6819L100.896 83.1809C99.1667 79.0413 97.5076 75.6446 97.2958 75.6446C97.0487 75.6446 96.8369 75.7861 96.8369 75.9631C96.8369 76.14 98.1783 79.5012 99.8374 83.3932C101.496 87.2852 102.838 90.6111 102.838 90.7526C102.838 90.8942 100.226 88.4174 97.0487 85.2331C93.2011 81.3765 91.1891 79.6074 91.0126 79.8904C90.8361 80.1735 92.7775 82.3672 96.5192 86.1176C99.6962 89.302 102.202 91.9202 102.097 91.9202C101.991 91.9202 98.6019 90.5757 94.5778 88.9128C87.871 86.153 86.6002 85.7992 86.6002 86.5776C86.6002 86.7191 89.9536 88.1698 94.0836 89.7973L101.567 92.8048L93.4482 92.9817C82.682 93.2294 82.682 93.7955 93.4835 94.0431L101.602 94.22L99.8374 95.0338C98.8843 95.4938 95.5662 96.9091 92.5305 98.2182C89.3888 99.5273 86.9532 100.766 86.9532 101.013C86.9532 101.261 87.0591 101.473 87.165 101.473C87.2709 101.473 90.3419 100.235 93.9777 98.6781C97.5782 97.1567 100.861 95.8122 101.249 95.6707C101.638 95.5292 99.4138 97.9705 96.3075 101.084C92.001 105.436 90.7655 106.851 91.0832 107.17C91.4009 107.488 92.7776 106.321 97.0134 102.039C100.049 98.9612 102.626 96.5198 102.697 96.626C102.802 96.6968 101.602 99.9519 100.014 103.808C98.4607 107.665 97.2605 111.062 97.3664 111.345C97.7477 112.283 97.8227 112.095 102.037 101.534M114.592 88.7713L114.774 88.6936M114.592 88.7713C114.653 88.7452 114.714 88.7193 114.774 88.6936M146.432 0.88297C143.926 1.27217 139.549 2.54591 137.254 3.5366C134.607 4.7042 130.018 7.49936 130.018 7.9947C130.018 8.45467 132.454 12.0282 134.148 13.9742L135.737 15.8495L1 16.0264V155.077L5.05939 155.183C8.3775 155.254 9.18938 155.395 9.57767 155.855C9.96596 156.421 10.0013 156.421 10.0013 155.855C10.0013 155.289 11.0955 155.254 24.0503 155.254H38.0993L38.6994 157.164C39.9702 161.198 43.2177 164.771 47.2771 166.646C48.7596 167.354 49.5715 167.46 53.2426 167.46C57.3726 167.46 57.5491 167.425 59.7376 166.293C63.7264 164.205 66.5151 160.879 67.8917 156.563L68.3153 155.254H148.727V189.22C148.727 210.909 148.832 223.434 149.044 223.859C149.256 224.213 149.856 224.673 150.386 224.92C151.127 225.203 163.623 225.309 198.745 225.239L246.117 225.133L247.74 223.505V77.0953L246.929 76.2815C246.187 75.5385 245.764 75.4677 241.74 75.3616C237.892 75.2554 237.327 75.1493 237.327 74.6539C237.292 74.0878 237.257 74.1232 236.833 74.6539C236.409 75.2554 235.28 75.2908 222.36 75.2908H208.382L208.311 45.6409L208.205 16.0264L180.602 15.6725L179.19 13.9035C174.565 8.10085 167.682 3.64275 160.375 1.69675C158.116 1.09526 156.139 0.882969 152.433 0.812206C149.715 0.741442 147.032 0.776824 146.432 0.88297ZM158.61 1.90904C167.011 3.46584 175.624 9.19768 180.425 16.4509C181.872 18.68 181.837 18.8215 178.448 20.6968C172.659 23.9519 167.223 25.4025 160.905 25.4025C151.55 25.4025 142.832 21.829 136.301 15.3541C134.007 13.0897 130.724 8.84386 130.724 8.20699C130.724 8.03008 131.465 7.39321 132.418 6.79172C137.078 3.71351 142.232 1.94442 148.727 1.20141C150.597 0.989115 155.645 1.34293 158.61 1.90904ZM11.5897 22.3951C12.0839 22.855 12.4722 23.6688 12.4722 24.1642C12.4722 25.4379 10.9896 26.8178 9.64827 26.8178C7.42443 26.8178 6.33016 24.0226 7.95392 22.3243C8.97759 21.2275 10.4954 21.2629 11.5897 22.3951ZM19.3555 22.3951C19.8497 22.855 20.238 23.6688 20.238 24.1642C20.238 25.4379 18.7554 26.8178 17.4141 26.8178C15.1902 26.8178 14.096 24.0226 15.7197 22.3243C16.7434 21.2275 18.2612 21.2629 19.3555 22.3951ZM27.1213 22.3951C28.1803 23.4565 28.2509 24.6595 27.2625 25.8979C26.3447 27.0655 24.4739 27.1716 23.4149 26.1102C22.3559 25.0487 22.4618 23.1735 23.6267 22.2536C24.8622 21.2629 26.0623 21.3336 27.1213 22.3951ZM207.676 75.2908L178.907 75.3616C151.868 75.4677 150.139 75.5031 149.538 76.1046C148.938 76.7061 148.903 78.8997 148.727 115.732L148.55 154.723H68.4212L68.3506 152.282C68.2094 147.894 66.7269 144.568 63.5146 141.525C59.9847 138.164 55.4312 136.714 50.9129 137.492C43.2883 138.801 37.8875 145.276 37.8875 153.166V154.9L19.8144 154.829L1.70598 154.723L1.52949 32.4789H207.676V75.2908ZM246.646 76.7768C247.14 77.4845 247.211 85.0562 247.211 150.3C247.211 215.544 247.14 223.116 246.646 223.823L246.117 224.602H198.392C172.13 224.602 150.492 224.46 150.28 224.319C149.08 223.54 149.08 223.363 149.08 150.3C149.08 77.2368 149.08 77.0599 150.28 76.2815C150.492 76.14 172.13 75.9984 198.392 75.9984H246.117L246.646 76.7768ZM59.314 139.296C65.2796 142.056 68.7036 148.566 67.574 154.935C65.5267 166.576 51.76 171.246 43.2177 163.214C40.0761 160.278 38.5935 156.74 38.5935 152.282C38.6288 147.859 40.6408 143.755 44.1355 141.065C48.5478 137.633 54.3016 136.997 59.314 139.296ZM154.551 4.03194C151.55 6.01332 149.75 9.65764 149.503 14.2926C149.256 19.0338 150.809 22.4658 153.633 23.315C156.563 24.1995 160.199 21.5813 161.752 17.5478C162.105 16.5925 162.034 16.5217 159.634 15.1064C158.293 14.2926 157.234 13.585 157.304 13.5142C157.375 13.4435 158.646 13.1958 160.128 12.9835L162.846 12.5943V10.7899C162.846 8.1716 162.14 6.33175 160.516 4.63343C159.246 3.28892 158.893 3.11201 157.516 3.11201C156.386 3.11201 155.504 3.39507 154.551 4.03194ZM185.438 51.7619C184.308 52.9649 184.873 53.3895 186.002 52.2219C186.497 51.7266 186.779 51.2312 186.567 51.1251C186.391 50.9835 185.861 51.302 185.438 51.7619ZM181.908 52.1158C182.367 52.6111 182.896 53.0003 183.073 53.0003C183.284 53.0003 183.073 52.6111 182.614 52.1158C182.155 51.6204 181.625 51.2312 181.449 51.2312C181.237 51.2312 181.449 51.6204 181.908 52.1158ZM27.6508 51.9742C27.6508 53.0003 25.1799 55.9724 23.2384 57.2815L21.297 58.5906L22.8148 59.4752C24.721 60.6074 26.38 62.3765 27.2625 64.1455L27.9332 65.5608L28.3568 64.4994C28.9922 62.801 31.0748 60.5366 32.9456 59.4752L34.6753 58.5198L33.1927 57.6707C31.1454 56.5385 29.8746 55.2647 28.6745 53.1772C28.1097 52.1865 27.6508 51.6558 27.6508 51.9742ZM182.119 55.194C181.272 56.3969 181.449 56.7508 182.437 55.8308C182.931 55.3709 183.32 54.8755 183.32 54.6986C183.32 54.1325 182.649 54.4156 182.119 55.194ZM184.732 54.6632C184.732 54.8402 185.12 55.3709 185.614 55.8308C186.108 56.2908 186.497 56.5031 186.497 56.2908C186.497 56.1139 186.108 55.5832 185.614 55.1232C185.12 54.6632 184.732 54.451 184.732 54.6632ZM134.254 61.0673C134.254 61.5273 144.455 71.5403 144.702 71.2927C144.95 71.0804 134.995 60.7843 134.536 60.7843C134.36 60.7843 134.254 60.8904 134.254 61.0673ZM147.315 67.8606C147.315 69.9835 147.456 71.3988 147.668 71.3988C147.879 71.3988 148.021 69.9835 148.021 67.8606C148.021 65.7377 147.879 64.3225 147.668 64.3225C147.456 64.3225 147.315 65.7377 147.315 67.8606ZM101.038 69.3113C92.1069 70.6204 84.2705 77.3429 81.4466 86.0822C79.5051 92.0618 80.0346 98.7135 82.8938 104.481C89.7418 118.386 107.85 122.419 119.887 112.76C129.277 105.188 131.854 92.0264 126.029 81.5534C121.123 72.8141 110.992 67.8252 101.038 69.3113ZM111.839 70.6912C117.628 72.531 122.994 76.9891 125.676 82.1902C127.865 86.4361 128.394 88.5943 128.43 93.3355C128.43 98.1474 127.971 100.235 126.065 104.304C124.9 106.745 124.053 107.842 121.582 110.319C118.052 113.857 114.486 115.909 110.039 116.864C106.368 117.714 100.402 117.466 97.1899 116.369C88.3652 113.291 81.976 105.401 81.023 96.3429C80.2111 88.6651 82.5055 82.1902 87.9769 76.7061C91.4009 73.274 94.6131 71.4342 99.0255 70.302C102.555 69.382 108.344 69.559 111.839 70.6912ZM137.784 74.2293C137.784 74.4416 139.266 74.5832 141.49 74.5832C143.714 74.5832 145.197 74.4416 145.197 74.2293C145.197 74.0171 143.714 73.8755 141.49 73.8755C139.266 73.8755 137.784 74.0171 137.784 74.2293ZM44.5943 104.587C44.5943 104.764 44.9826 105.259 45.4768 105.719C46.1475 106.356 46.3593 106.427 46.3593 106.002C46.3593 105.719 46.0769 105.224 45.7239 104.905C45.0179 104.233 44.5943 104.127 44.5943 104.587ZM48.8302 105.188C48.3713 105.684 48.0889 106.144 48.1948 106.25C48.2654 106.356 48.7243 106.038 49.1832 105.542C49.6421 105.047 49.9245 104.587 49.8186 104.481C49.748 104.375 49.2891 104.693 48.8302 105.188ZM45.3003 108.727C44.8414 109.222 44.6296 109.611 44.8414 109.611C45.0179 109.611 45.5474 109.222 46.0063 108.727C46.4652 108.231 46.677 107.842 46.4652 107.842C46.2887 107.842 45.7592 108.231 45.3003 108.727ZM48.1242 108.125C48.1242 108.479 49.2891 109.611 49.6774 109.611C49.9951 109.611 48.7243 107.877 48.4066 107.842C48.2301 107.842 48.1242 107.984 48.1242 108.125ZM171.918 93.1586C171.6 93.8309 170.683 94.7862 169.906 95.3169L168.494 96.2722L169.482 96.8737C170.541 97.5459 172.377 99.5627 172.377 100.093C172.377 100.766 172.942 100.376 173.542 99.2443C173.895 98.6074 174.813 97.6521 175.589 97.1567L177.001 96.2368L175.766 95.5292C175.095 95.14 174.107 94.1493 173.577 93.3709C173.048 92.5571 172.624 91.9202 172.589 91.9202C172.553 91.9202 172.236 92.4863 171.918 93.1586ZM229.914 116.157C230.373 116.652 230.903 117.041 231.079 117.041C231.291 117.041 231.079 116.652 230.62 116.157C230.161 115.661 229.632 115.272 229.456 115.272C229.244 115.272 229.456 115.661 229.914 116.157ZM233.444 116.157C232.985 116.652 232.774 117.041 232.985 117.041C233.409 117.041 234.68 115.697 234.433 115.449C234.362 115.343 233.903 115.661 233.444 116.157ZM229.914 119.695C229.456 120.19 229.244 120.579 229.456 120.579C229.632 120.579 230.161 120.19 230.62 119.695C231.079 119.2 231.291 118.81 231.079 118.81C230.903 118.81 230.373 119.2 229.914 119.695ZM233.444 119.695C233.903 120.19 234.362 120.509 234.433 120.403C234.68 120.155 233.409 118.81 232.985 118.81C232.774 118.81 232.985 119.2 233.444 119.695ZM194.968 121.606C192.286 122.455 189.532 124.861 188.226 127.585C187.591 128.859 187.414 129.885 187.414 132.079C187.379 135.44 188.12 137.35 190.344 139.792C192.462 142.092 194.827 143.047 198.322 143.011C201.71 143.011 203.581 142.268 205.805 140.11C208.064 137.917 208.841 136.112 209.017 132.715C209.159 130.062 209.088 129.637 208.1 127.55C206.899 124.931 204.676 122.844 202.099 121.924C200.369 121.287 196.557 121.146 194.968 121.606ZM201.958 122.384C203.37 122.879 203.37 123.198 202.028 123.764C199.663 124.754 197.122 128.611 197.545 130.699C197.792 132.043 196.663 131.76 195.215 130.168C193.909 128.717 193.415 127.231 193.38 124.578C193.38 122.808 193.45 122.738 195.568 122.136C197.369 121.606 200.122 121.747 201.958 122.384ZM206.617 131.548C208.417 132.468 208.558 132.609 208.453 133.671C208.417 134.343 208.029 135.581 207.641 136.466C206.511 139.049 203.158 142.092 203.687 140.075C203.793 139.721 203.617 138.412 203.299 137.173C202.84 135.404 202.416 134.626 201.393 133.635C200.651 132.928 199.804 132.291 199.522 132.185C198.745 131.902 199.91 130.84 201.357 130.486C202.981 130.133 204.323 130.416 206.617 131.548ZM190.203 133.635C192.497 134.732 195.11 134.803 196.804 133.777C198.039 133.034 198.075 133.034 198.251 133.706C198.498 134.661 197.933 136.607 197.016 137.74C196.027 139.013 193.592 140.747 192.815 140.747C191.756 140.747 190.132 139.049 189.003 136.784C188.014 134.803 187.52 132.362 188.191 132.68C188.332 132.751 189.215 133.211 190.203 133.635ZM156.139 162.33V154.9H240.539L240.328 162.153L156.139 162.33ZM158.046 156.032C157.904 156.492 157.516 157.483 157.163 158.261L156.528 159.676V157.447C156.492 155.324 156.528 155.254 157.41 155.254C158.187 155.254 158.257 155.36 158.046 156.032ZM167.612 155.997C167.47 156.386 167.011 157.801 166.588 159.075L165.776 161.445L161.117 161.658L162.176 158.438L163.27 155.254H165.564C167.717 155.254 167.823 155.289 167.612 155.997ZM177.284 155.678C177.284 155.926 176.86 157.341 176.33 158.792L175.377 161.445L173.189 161.552C171.777 161.622 170.965 161.516 170.965 161.268C170.965 161.056 171.389 159.641 171.918 158.084L172.871 155.254H175.095C176.648 155.254 177.319 155.395 177.284 155.678ZM186.85 155.678C186.85 155.926 186.426 157.341 185.896 158.863L184.908 161.622H182.684C181.061 161.622 180.46 161.516 180.566 161.162C180.637 160.95 181.061 159.499 181.519 157.978L182.367 155.254H184.59C186.144 155.254 186.85 155.395 186.85 155.678ZM195.604 158.438L194.545 161.622H192.286C191.05 161.622 190.026 161.516 190.026 161.41C190.026 161.268 190.415 160.03 190.909 158.65C191.403 157.27 191.897 155.926 191.968 155.678C192.074 155.395 192.886 155.254 194.404 155.254H196.698L195.604 158.438ZM206.088 155.997C205.946 156.386 205.487 157.801 205.064 159.075L204.252 161.445L201.922 161.552C200.616 161.622 199.557 161.587 199.557 161.516C199.557 161.375 201.146 156.74 201.499 155.855C201.71 155.36 202.205 155.254 204.04 155.254C206.193 155.254 206.299 155.289 206.088 155.997ZM239.798 161.622V155.254H211.277L210.218 158.438L209.123 161.622H239.798ZM175.907 183.559V180.728H220.737V183.559H175.907ZM180.849 189.22V186.036H215.442V189.22H180.849ZM162.14 208.609C162.14 209.069 163.87 210.591 164.117 210.378C164.223 210.272 163.87 209.741 163.376 209.246C162.423 208.291 162.14 208.149 162.14 208.609ZM166.376 209.211C165.917 209.706 165.635 210.166 165.741 210.272C165.811 210.378 166.27 210.06 166.729 209.565C167.188 209.069 167.47 208.609 167.364 208.503C167.294 208.397 166.835 208.715 166.376 209.211ZM162.846 212.749C162.387 213.244 162.176 213.633 162.387 213.633C162.564 213.633 163.093 213.244 163.552 212.749C164.011 212.254 164.223 211.864 164.011 211.864C163.835 211.864 163.305 212.254 162.846 212.749ZM165.67 212.147C165.67 212.572 167.047 213.775 167.259 213.598C167.47 213.35 166.411 211.864 165.988 211.864C165.811 211.864 165.67 212.006 165.67 212.147ZM47.7713 143.931C46.9947 144.71 46.6064 145.594 46.2181 147.328C46.0063 148.354 46.0416 148.425 47.4183 148.885C48.2301 149.133 48.9361 149.486 49.042 149.628C49.1126 149.769 48.4772 150.229 47.5595 150.619C46.324 151.185 46.0063 151.503 46.1475 151.963C46.2534 152.317 46.4299 153.025 46.5358 153.52C46.677 154.051 47.2418 154.9 47.8066 155.466C48.689 156.315 48.9361 156.386 49.6774 156.032C51.0188 155.43 51.76 153.626 51.9365 150.654C52.113 147.54 51.5836 145.241 50.4187 144.073C49.395 143.047 48.689 143.011 47.7713 143.931ZM55.9606 144.002C55.1135 144.957 54.4781 146.479 54.4781 147.646C54.4781 148.248 54.7958 148.602 55.89 149.026C56.6666 149.345 57.302 149.663 57.302 149.769C57.302 149.876 56.6666 150.194 55.89 150.512C54.7958 150.972 54.4781 151.255 54.4781 151.928C54.4781 153.272 55.3959 155.147 56.3489 155.784C59.9141 158.119 61.785 147.54 58.4669 143.861C57.6903 143.011 56.8784 143.047 55.9606 144.002ZM10.0013 197.782C10.0013 198.313 10.919 202.028 12.2251 206.734C13.0723 209.918 13.4606 211.298 17.2376 225.486C20.1321 236.419 20.238 236.632 22.603 236.632C23.9797 236.632 24.1915 236.419 28.145 231.041C30.0511 228.494 31.7102 226.371 31.8161 226.371C31.9573 226.371 34.3576 228.671 37.1815 231.501L42.3352 236.667L43.8884 235.146C44.7355 234.296 46.2181 232.775 47.1712 231.749L48.9361 229.909L45.7945 226.76C44.0649 225.026 41.7351 222.656 40.5702 221.488L38.4876 219.365L42.6882 216.287C48.4419 212.041 48.8302 211.652 48.8302 210.095C48.8302 208.291 47.8066 207.512 44.2413 206.592C42.5823 206.133 39.5819 205.354 37.5345 204.788C33.7222 203.727 29.6275 202.63 17.9435 199.481C14.2724 198.49 10.9543 197.606 10.6366 197.499C10.2484 197.393 10.0013 197.499 10.0013 197.782ZM65.5267 205.673C64.0794 206.699 64.1853 209.14 65.7385 210.343C67.0445 211.334 69.3743 210.52 70.0097 208.822C70.3979 207.795 69.8332 205.956 68.9507 205.496C67.9976 204.965 66.4092 205.071 65.5267 205.673ZM59.067 209.388C58.2551 210.201 58.1845 211.192 58.7493 212.324C59.314 213.386 59.7376 213.633 61.079 213.633C62.2792 213.633 63.6558 212.324 63.6558 211.157C63.6558 210.803 63.3381 210.131 62.9145 209.6C61.9968 208.432 60.1259 208.326 59.067 209.388ZM74.4926 214.129C74.2102 214.836 75.1986 215.65 75.7281 215.12C76.2223 214.624 75.834 213.633 75.1633 213.633C74.9162 213.633 74.5985 213.846 74.4926 214.129ZM57.655 215.756C57.2667 216.146 56.949 216.853 56.949 217.313C56.949 218.268 58.4316 219.648 59.4552 219.648C60.4436 219.648 61.5379 218.375 61.5379 217.242C61.5379 215.226 59.1023 214.306 57.655 215.756ZM74.3161 217.596C73.3631 218.552 74.4926 220.179 75.6575 219.471C76.2223 219.118 76.0811 217.632 75.4457 217.384C74.7397 217.101 74.8103 217.101 74.3161 217.596ZM60.5848 221.276C60.0553 222.125 60.0553 222.302 60.5142 223.151C61.2202 224.425 63.0204 224.602 63.797 223.47C64.5383 222.444 64.503 221.665 63.7264 220.958C62.7381 220.038 61.2908 220.214 60.5848 221.276ZM71.4216 221.241C70.5038 222.373 71.8805 224.106 73.116 223.328C74.3162 222.55 73.8926 220.71 72.4806 220.71C72.1276 220.71 71.6687 220.958 71.4216 221.241ZM66.6916 222.691C65.562 223.788 66.1974 225.663 67.7152 225.663C68.7389 225.663 69.3037 224.991 69.3037 223.823C69.3037 222.337 67.7152 221.63 66.6916 222.691Z" stroke="#3D3D50"/>
</svg>
